M48
; DRILL file {KiCad 5.1.4} date Do 31 Okt 2019 21:17:33 CET
; FORMAT={-:-/ absolute / inch / decimal}
; #@! TF.CreationDate,2019-10-31T21:17:33+01:00
; #@! TF.GenerationSoftware,Kicad,Pcbnew,5.1.4
; #@! TF.FileFunction,Plated,1,2,PTH
FMAT,2
INCH
T1C0.0118
T2C0.0315
T3C0.0394
%
G90
G05
T1
X0.864Y-7.624
X0.93Y-7.626
X0.932Y-7.534
X0.972Y-7.31
X0.996Y-7.346
X1.0639Y-7.2981
X1.075Y-6.786
X1.108Y-7.286
X1.115Y-6.519
X1.122Y-7.176
X1.122Y-7.22
X1.17Y-7.48
X1.24Y-7.48
X1.255Y-6.86
X1.278Y-7.188
X1.335Y-7.45
X1.416Y-7.6
X1.42Y-7.41
X1.478Y-7.278
X1.485Y-7.46
X1.497Y-7.018
X1.54Y-7.041
X1.58Y-7.385
X1.6Y-7.495
X1.606Y-7.206
X1.622Y-7.13
X1.636Y-7.198
X1.656Y-7.144
X1.66Y-7.53
X1.685Y-7.505
X1.711Y-7.235
X1.74Y-7.36
X1.744Y-7.492
X1.748Y-7.136
X1.748Y-7.168
X1.748Y-7.2
X1.749Y-7.262
X1.78Y-7.263
X1.792Y-7.492
X1.798Y-7.136
X1.798Y-7.166
X1.798Y-7.196
X1.804Y-7.332
X1.808Y-7.672
X1.812Y-7.263
X1.844Y-7.263
X1.864Y-7.58
X1.8825Y-7.485
X1.915Y-7.485
X1.9475Y-7.485
X1.955Y-7.15
X1.99Y-7.334
X2.03Y-7.34
X2.034Y-7.077
X2.08Y-7.315
X2.112Y-7.126
X2.128Y-7.602
X2.28Y-7.052
X2.5Y-7.53
X2.702Y-7.166
T2
X0.9Y-6.5
X0.9Y-6.6
X0.9Y-6.7
X0.9Y-6.8
X0.9Y-6.9
X0.9Y-7.0
X0.9Y-7.1
X0.9Y-7.2
X0.9Y-7.3
X0.9Y-7.4
X1.2Y-6.5
X1.2Y-6.6
X1.2Y-6.7
X1.2Y-6.8
X1.2Y-6.9
X1.2Y-7.0
X1.2Y-7.1
X1.2Y-7.2
X1.2Y-7.3
X1.2Y-7.4
X2.225Y-6.5
X2.225Y-6.6
X2.225Y-6.7
X2.225Y-6.8
X2.225Y-6.9
X2.225Y-7.0
X2.225Y-7.1
X2.225Y-7.2
X2.225Y-7.3
X2.225Y-7.4
X2.525Y-6.5
X2.525Y-6.6
X2.525Y-6.7
X2.525Y-6.8
X2.525Y-6.9
X2.525Y-7.0
X2.525Y-7.1
X2.525Y-7.2
X2.525Y-7.3
X2.525Y-7.4
T3
X2.225Y-7.6
X2.325Y-7.6
X2.425Y-7.6
X2.525Y-7.6
X1.675Y-6.5
X1.675Y-6.6
X1.675Y-6.7
X1.775Y-6.5
X1.775Y-6.6
X1.775Y-6.7
X1.925Y-7.6
X2.025Y-7.6
X0.7Y-7.6
X0.8Y-7.6
T0
M30
