G04 #@! TF.GenerationSoftware,KiCad,Pcbnew,5.1.4*
G04 #@! TF.CreationDate,2019-11-08T16:48:00+01:00*
G04 #@! TF.ProjectId,AsyncDRAM,4173796e-6344-4524-914d-2e6b69636164,rev?*
G04 #@! TF.SameCoordinates,Original*
G04 #@! TF.FileFunction,Soldermask,Bot*
G04 #@! TF.FilePolarity,Negative*
%FSLAX46Y46*%
G04 Gerber Fmt 4.6, Leading zero omitted, Abs format (unit mm)*
G04 Created by KiCad (PCBNEW 5.1.4) date 2019-11-08 16:48:00*
%MOMM*%
%LPD*%
G04 APERTURE LIST*
%ADD10C,0.100000*%
G04 APERTURE END LIST*
D10*
G36*
X49796000Y-193941000D02*
G01*
X47994000Y-193941000D01*
X47994000Y-192139000D01*
X49796000Y-192139000D01*
X49796000Y-193941000D01*
X49796000Y-193941000D01*
G37*
G36*
X51545443Y-192145519D02*
G01*
X51611627Y-192152037D01*
X51781466Y-192203557D01*
X51937991Y-192287222D01*
X51973729Y-192316552D01*
X52075186Y-192399814D01*
X52158448Y-192501271D01*
X52187778Y-192537009D01*
X52271443Y-192693534D01*
X52322963Y-192863373D01*
X52340359Y-193040000D01*
X52322963Y-193216627D01*
X52271443Y-193386466D01*
X52187778Y-193542991D01*
X52158448Y-193578729D01*
X52075186Y-193680186D01*
X51973729Y-193763448D01*
X51937991Y-193792778D01*
X51781466Y-193876443D01*
X51611627Y-193927963D01*
X51545443Y-193934481D01*
X51479260Y-193941000D01*
X51390740Y-193941000D01*
X51324557Y-193934481D01*
X51258373Y-193927963D01*
X51088534Y-193876443D01*
X50932009Y-193792778D01*
X50896271Y-193763448D01*
X50794814Y-193680186D01*
X50711552Y-193578729D01*
X50682222Y-193542991D01*
X50598557Y-193386466D01*
X50547037Y-193216627D01*
X50529641Y-193040000D01*
X50547037Y-192863373D01*
X50598557Y-192693534D01*
X50682222Y-192537009D01*
X50711552Y-192501271D01*
X50794814Y-192399814D01*
X50896271Y-192316552D01*
X50932009Y-192287222D01*
X51088534Y-192203557D01*
X51258373Y-192152037D01*
X51324557Y-192145519D01*
X51390740Y-192139000D01*
X51479260Y-192139000D01*
X51545443Y-192145519D01*
X51545443Y-192145519D01*
G37*
G36*
X57416000Y-193941000D02*
G01*
X55614000Y-193941000D01*
X55614000Y-192139000D01*
X57416000Y-192139000D01*
X57416000Y-193941000D01*
X57416000Y-193941000D01*
G37*
G36*
X59165443Y-192145519D02*
G01*
X59231627Y-192152037D01*
X59401466Y-192203557D01*
X59557991Y-192287222D01*
X59593729Y-192316552D01*
X59695186Y-192399814D01*
X59778448Y-192501271D01*
X59807778Y-192537009D01*
X59891443Y-192693534D01*
X59942963Y-192863373D01*
X59960359Y-193040000D01*
X59942963Y-193216627D01*
X59891443Y-193386466D01*
X59807778Y-193542991D01*
X59778448Y-193578729D01*
X59695186Y-193680186D01*
X59593729Y-193763448D01*
X59557991Y-193792778D01*
X59401466Y-193876443D01*
X59231627Y-193927963D01*
X59165443Y-193934481D01*
X59099260Y-193941000D01*
X59010740Y-193941000D01*
X58944557Y-193934481D01*
X58878373Y-193927963D01*
X58708534Y-193876443D01*
X58552009Y-193792778D01*
X58516271Y-193763448D01*
X58414814Y-193680186D01*
X58331552Y-193578729D01*
X58302222Y-193542991D01*
X58218557Y-193386466D01*
X58167037Y-193216627D01*
X58149641Y-193040000D01*
X58167037Y-192863373D01*
X58218557Y-192693534D01*
X58302222Y-192537009D01*
X58331552Y-192501271D01*
X58414814Y-192399814D01*
X58516271Y-192316552D01*
X58552009Y-192287222D01*
X58708534Y-192203557D01*
X58878373Y-192152037D01*
X58944557Y-192145519D01*
X59010740Y-192139000D01*
X59099260Y-192139000D01*
X59165443Y-192145519D01*
X59165443Y-192145519D01*
G37*
G36*
X64245443Y-192145519D02*
G01*
X64311627Y-192152037D01*
X64481466Y-192203557D01*
X64637991Y-192287222D01*
X64673729Y-192316552D01*
X64775186Y-192399814D01*
X64858448Y-192501271D01*
X64887778Y-192537009D01*
X64971443Y-192693534D01*
X65022963Y-192863373D01*
X65040359Y-193040000D01*
X65022963Y-193216627D01*
X64971443Y-193386466D01*
X64887778Y-193542991D01*
X64858448Y-193578729D01*
X64775186Y-193680186D01*
X64673729Y-193763448D01*
X64637991Y-193792778D01*
X64481466Y-193876443D01*
X64311627Y-193927963D01*
X64245443Y-193934481D01*
X64179260Y-193941000D01*
X64090740Y-193941000D01*
X64024557Y-193934481D01*
X63958373Y-193927963D01*
X63788534Y-193876443D01*
X63632009Y-193792778D01*
X63596271Y-193763448D01*
X63494814Y-193680186D01*
X63411552Y-193578729D01*
X63382222Y-193542991D01*
X63298557Y-193386466D01*
X63247037Y-193216627D01*
X63229641Y-193040000D01*
X63247037Y-192863373D01*
X63298557Y-192693534D01*
X63382222Y-192537009D01*
X63411552Y-192501271D01*
X63494814Y-192399814D01*
X63596271Y-192316552D01*
X63632009Y-192287222D01*
X63788534Y-192203557D01*
X63958373Y-192152037D01*
X64024557Y-192145519D01*
X64090740Y-192139000D01*
X64179260Y-192139000D01*
X64245443Y-192145519D01*
X64245443Y-192145519D01*
G37*
G36*
X18681000Y-193941000D02*
G01*
X16879000Y-193941000D01*
X16879000Y-192139000D01*
X18681000Y-192139000D01*
X18681000Y-193941000D01*
X18681000Y-193941000D01*
G37*
G36*
X20430443Y-192145519D02*
G01*
X20496627Y-192152037D01*
X20666466Y-192203557D01*
X20822991Y-192287222D01*
X20858729Y-192316552D01*
X20960186Y-192399814D01*
X21043448Y-192501271D01*
X21072778Y-192537009D01*
X21156443Y-192693534D01*
X21207963Y-192863373D01*
X21225359Y-193040000D01*
X21207963Y-193216627D01*
X21156443Y-193386466D01*
X21072778Y-193542991D01*
X21043448Y-193578729D01*
X20960186Y-193680186D01*
X20858729Y-193763448D01*
X20822991Y-193792778D01*
X20666466Y-193876443D01*
X20496627Y-193927963D01*
X20430443Y-193934481D01*
X20364260Y-193941000D01*
X20275740Y-193941000D01*
X20209557Y-193934481D01*
X20143373Y-193927963D01*
X19973534Y-193876443D01*
X19817009Y-193792778D01*
X19781271Y-193763448D01*
X19679814Y-193680186D01*
X19596552Y-193578729D01*
X19567222Y-193542991D01*
X19483557Y-193386466D01*
X19432037Y-193216627D01*
X19414641Y-193040000D01*
X19432037Y-192863373D01*
X19483557Y-192693534D01*
X19567222Y-192537009D01*
X19596552Y-192501271D01*
X19679814Y-192399814D01*
X19781271Y-192316552D01*
X19817009Y-192287222D01*
X19973534Y-192203557D01*
X20143373Y-192152037D01*
X20209557Y-192145519D01*
X20275740Y-192139000D01*
X20364260Y-192139000D01*
X20430443Y-192145519D01*
X20430443Y-192145519D01*
G37*
G36*
X61705443Y-192145519D02*
G01*
X61771627Y-192152037D01*
X61941466Y-192203557D01*
X62097991Y-192287222D01*
X62133729Y-192316552D01*
X62235186Y-192399814D01*
X62318448Y-192501271D01*
X62347778Y-192537009D01*
X62431443Y-192693534D01*
X62482963Y-192863373D01*
X62500359Y-193040000D01*
X62482963Y-193216627D01*
X62431443Y-193386466D01*
X62347778Y-193542991D01*
X62318448Y-193578729D01*
X62235186Y-193680186D01*
X62133729Y-193763448D01*
X62097991Y-193792778D01*
X61941466Y-193876443D01*
X61771627Y-193927963D01*
X61705443Y-193934481D01*
X61639260Y-193941000D01*
X61550740Y-193941000D01*
X61484557Y-193934481D01*
X61418373Y-193927963D01*
X61248534Y-193876443D01*
X61092009Y-193792778D01*
X61056271Y-193763448D01*
X60954814Y-193680186D01*
X60871552Y-193578729D01*
X60842222Y-193542991D01*
X60758557Y-193386466D01*
X60707037Y-193216627D01*
X60689641Y-193040000D01*
X60707037Y-192863373D01*
X60758557Y-192693534D01*
X60842222Y-192537009D01*
X60871552Y-192501271D01*
X60954814Y-192399814D01*
X61056271Y-192316552D01*
X61092009Y-192287222D01*
X61248534Y-192203557D01*
X61418373Y-192152037D01*
X61484557Y-192145519D01*
X61550740Y-192139000D01*
X61639260Y-192139000D01*
X61705443Y-192145519D01*
X61705443Y-192145519D01*
G37*
G36*
X23026823Y-187121313D02*
G01*
X23187242Y-187169976D01*
X23319906Y-187240886D01*
X23335078Y-187248996D01*
X23464659Y-187355341D01*
X23571004Y-187484922D01*
X23571005Y-187484924D01*
X23650024Y-187632758D01*
X23698687Y-187793177D01*
X23715117Y-187960000D01*
X23698687Y-188126823D01*
X23650024Y-188287242D01*
X23579114Y-188419906D01*
X23571004Y-188435078D01*
X23464659Y-188564659D01*
X23335078Y-188671004D01*
X23335076Y-188671005D01*
X23187242Y-188750024D01*
X23026823Y-188798687D01*
X22901804Y-188811000D01*
X22818196Y-188811000D01*
X22693177Y-188798687D01*
X22532758Y-188750024D01*
X22384924Y-188671005D01*
X22384922Y-188671004D01*
X22255341Y-188564659D01*
X22148996Y-188435078D01*
X22140886Y-188419906D01*
X22069976Y-188287242D01*
X22021313Y-188126823D01*
X22004883Y-187960000D01*
X22021313Y-187793177D01*
X22069976Y-187632758D01*
X22148995Y-187484924D01*
X22148996Y-187484922D01*
X22255341Y-187355341D01*
X22384922Y-187248996D01*
X22400094Y-187240886D01*
X22532758Y-187169976D01*
X22693177Y-187121313D01*
X22818196Y-187109000D01*
X22901804Y-187109000D01*
X23026823Y-187121313D01*
X23026823Y-187121313D01*
G37*
G36*
X56681823Y-187121313D02*
G01*
X56842242Y-187169976D01*
X56974906Y-187240886D01*
X56990078Y-187248996D01*
X57119659Y-187355341D01*
X57226004Y-187484922D01*
X57226005Y-187484924D01*
X57305024Y-187632758D01*
X57353687Y-187793177D01*
X57370117Y-187960000D01*
X57353687Y-188126823D01*
X57305024Y-188287242D01*
X57234114Y-188419906D01*
X57226004Y-188435078D01*
X57119659Y-188564659D01*
X56990078Y-188671004D01*
X56990076Y-188671005D01*
X56842242Y-188750024D01*
X56681823Y-188798687D01*
X56556804Y-188811000D01*
X56473196Y-188811000D01*
X56348177Y-188798687D01*
X56187758Y-188750024D01*
X56039924Y-188671005D01*
X56039922Y-188671004D01*
X55910341Y-188564659D01*
X55803996Y-188435078D01*
X55795886Y-188419906D01*
X55724976Y-188287242D01*
X55676313Y-188126823D01*
X55659883Y-187960000D01*
X55676313Y-187793177D01*
X55724976Y-187632758D01*
X55803995Y-187484924D01*
X55803996Y-187484922D01*
X55910341Y-187355341D01*
X56039922Y-187248996D01*
X56055094Y-187240886D01*
X56187758Y-187169976D01*
X56348177Y-187121313D01*
X56473196Y-187109000D01*
X56556804Y-187109000D01*
X56681823Y-187121313D01*
X56681823Y-187121313D01*
G37*
G36*
X64301823Y-187121313D02*
G01*
X64462242Y-187169976D01*
X64594906Y-187240886D01*
X64610078Y-187248996D01*
X64739659Y-187355341D01*
X64846004Y-187484922D01*
X64846005Y-187484924D01*
X64925024Y-187632758D01*
X64973687Y-187793177D01*
X64990117Y-187960000D01*
X64973687Y-188126823D01*
X64925024Y-188287242D01*
X64854114Y-188419906D01*
X64846004Y-188435078D01*
X64739659Y-188564659D01*
X64610078Y-188671004D01*
X64610076Y-188671005D01*
X64462242Y-188750024D01*
X64301823Y-188798687D01*
X64176804Y-188811000D01*
X64093196Y-188811000D01*
X63968177Y-188798687D01*
X63807758Y-188750024D01*
X63659924Y-188671005D01*
X63659922Y-188671004D01*
X63530341Y-188564659D01*
X63423996Y-188435078D01*
X63415886Y-188419906D01*
X63344976Y-188287242D01*
X63296313Y-188126823D01*
X63279883Y-187960000D01*
X63296313Y-187793177D01*
X63344976Y-187632758D01*
X63423995Y-187484924D01*
X63423996Y-187484922D01*
X63530341Y-187355341D01*
X63659922Y-187248996D01*
X63675094Y-187240886D01*
X63807758Y-187169976D01*
X63968177Y-187121313D01*
X64093196Y-187109000D01*
X64176804Y-187109000D01*
X64301823Y-187121313D01*
X64301823Y-187121313D01*
G37*
G36*
X30646823Y-187121313D02*
G01*
X30807242Y-187169976D01*
X30939906Y-187240886D01*
X30955078Y-187248996D01*
X31084659Y-187355341D01*
X31191004Y-187484922D01*
X31191005Y-187484924D01*
X31270024Y-187632758D01*
X31318687Y-187793177D01*
X31335117Y-187960000D01*
X31318687Y-188126823D01*
X31270024Y-188287242D01*
X31199114Y-188419906D01*
X31191004Y-188435078D01*
X31084659Y-188564659D01*
X30955078Y-188671004D01*
X30955076Y-188671005D01*
X30807242Y-188750024D01*
X30646823Y-188798687D01*
X30521804Y-188811000D01*
X30438196Y-188811000D01*
X30313177Y-188798687D01*
X30152758Y-188750024D01*
X30004924Y-188671005D01*
X30004922Y-188671004D01*
X29875341Y-188564659D01*
X29768996Y-188435078D01*
X29760886Y-188419906D01*
X29689976Y-188287242D01*
X29641313Y-188126823D01*
X29624883Y-187960000D01*
X29641313Y-187793177D01*
X29689976Y-187632758D01*
X29768995Y-187484924D01*
X29768996Y-187484922D01*
X29875341Y-187355341D01*
X30004922Y-187248996D01*
X30020094Y-187240886D01*
X30152758Y-187169976D01*
X30313177Y-187121313D01*
X30438196Y-187109000D01*
X30521804Y-187109000D01*
X30646823Y-187121313D01*
X30646823Y-187121313D01*
G37*
G36*
X23026823Y-184581313D02*
G01*
X23187242Y-184629976D01*
X23319906Y-184700886D01*
X23335078Y-184708996D01*
X23464659Y-184815341D01*
X23571004Y-184944922D01*
X23571005Y-184944924D01*
X23650024Y-185092758D01*
X23698687Y-185253177D01*
X23715117Y-185420000D01*
X23698687Y-185586823D01*
X23650024Y-185747242D01*
X23579114Y-185879906D01*
X23571004Y-185895078D01*
X23464659Y-186024659D01*
X23335078Y-186131004D01*
X23335076Y-186131005D01*
X23187242Y-186210024D01*
X23026823Y-186258687D01*
X22901804Y-186271000D01*
X22818196Y-186271000D01*
X22693177Y-186258687D01*
X22532758Y-186210024D01*
X22384924Y-186131005D01*
X22384922Y-186131004D01*
X22255341Y-186024659D01*
X22148996Y-185895078D01*
X22140886Y-185879906D01*
X22069976Y-185747242D01*
X22021313Y-185586823D01*
X22004883Y-185420000D01*
X22021313Y-185253177D01*
X22069976Y-185092758D01*
X22148995Y-184944924D01*
X22148996Y-184944922D01*
X22255341Y-184815341D01*
X22384922Y-184708996D01*
X22400094Y-184700886D01*
X22532758Y-184629976D01*
X22693177Y-184581313D01*
X22818196Y-184569000D01*
X22901804Y-184569000D01*
X23026823Y-184581313D01*
X23026823Y-184581313D01*
G37*
G36*
X56681823Y-184581313D02*
G01*
X56842242Y-184629976D01*
X56974906Y-184700886D01*
X56990078Y-184708996D01*
X57119659Y-184815341D01*
X57226004Y-184944922D01*
X57226005Y-184944924D01*
X57305024Y-185092758D01*
X57353687Y-185253177D01*
X57370117Y-185420000D01*
X57353687Y-185586823D01*
X57305024Y-185747242D01*
X57234114Y-185879906D01*
X57226004Y-185895078D01*
X57119659Y-186024659D01*
X56990078Y-186131004D01*
X56990076Y-186131005D01*
X56842242Y-186210024D01*
X56681823Y-186258687D01*
X56556804Y-186271000D01*
X56473196Y-186271000D01*
X56348177Y-186258687D01*
X56187758Y-186210024D01*
X56039924Y-186131005D01*
X56039922Y-186131004D01*
X55910341Y-186024659D01*
X55803996Y-185895078D01*
X55795886Y-185879906D01*
X55724976Y-185747242D01*
X55676313Y-185586823D01*
X55659883Y-185420000D01*
X55676313Y-185253177D01*
X55724976Y-185092758D01*
X55803995Y-184944924D01*
X55803996Y-184944922D01*
X55910341Y-184815341D01*
X56039922Y-184708996D01*
X56055094Y-184700886D01*
X56187758Y-184629976D01*
X56348177Y-184581313D01*
X56473196Y-184569000D01*
X56556804Y-184569000D01*
X56681823Y-184581313D01*
X56681823Y-184581313D01*
G37*
G36*
X30646823Y-184581313D02*
G01*
X30807242Y-184629976D01*
X30939906Y-184700886D01*
X30955078Y-184708996D01*
X31084659Y-184815341D01*
X31191004Y-184944922D01*
X31191005Y-184944924D01*
X31270024Y-185092758D01*
X31318687Y-185253177D01*
X31335117Y-185420000D01*
X31318687Y-185586823D01*
X31270024Y-185747242D01*
X31199114Y-185879906D01*
X31191004Y-185895078D01*
X31084659Y-186024659D01*
X30955078Y-186131004D01*
X30955076Y-186131005D01*
X30807242Y-186210024D01*
X30646823Y-186258687D01*
X30521804Y-186271000D01*
X30438196Y-186271000D01*
X30313177Y-186258687D01*
X30152758Y-186210024D01*
X30004924Y-186131005D01*
X30004922Y-186131004D01*
X29875341Y-186024659D01*
X29768996Y-185895078D01*
X29760886Y-185879906D01*
X29689976Y-185747242D01*
X29641313Y-185586823D01*
X29624883Y-185420000D01*
X29641313Y-185253177D01*
X29689976Y-185092758D01*
X29768995Y-184944924D01*
X29768996Y-184944922D01*
X29875341Y-184815341D01*
X30004922Y-184708996D01*
X30020094Y-184700886D01*
X30152758Y-184629976D01*
X30313177Y-184581313D01*
X30438196Y-184569000D01*
X30521804Y-184569000D01*
X30646823Y-184581313D01*
X30646823Y-184581313D01*
G37*
G36*
X64301823Y-184581313D02*
G01*
X64462242Y-184629976D01*
X64594906Y-184700886D01*
X64610078Y-184708996D01*
X64739659Y-184815341D01*
X64846004Y-184944922D01*
X64846005Y-184944924D01*
X64925024Y-185092758D01*
X64973687Y-185253177D01*
X64990117Y-185420000D01*
X64973687Y-185586823D01*
X64925024Y-185747242D01*
X64854114Y-185879906D01*
X64846004Y-185895078D01*
X64739659Y-186024659D01*
X64610078Y-186131004D01*
X64610076Y-186131005D01*
X64462242Y-186210024D01*
X64301823Y-186258687D01*
X64176804Y-186271000D01*
X64093196Y-186271000D01*
X63968177Y-186258687D01*
X63807758Y-186210024D01*
X63659924Y-186131005D01*
X63659922Y-186131004D01*
X63530341Y-186024659D01*
X63423996Y-185895078D01*
X63415886Y-185879906D01*
X63344976Y-185747242D01*
X63296313Y-185586823D01*
X63279883Y-185420000D01*
X63296313Y-185253177D01*
X63344976Y-185092758D01*
X63423995Y-184944924D01*
X63423996Y-184944922D01*
X63530341Y-184815341D01*
X63659922Y-184708996D01*
X63675094Y-184700886D01*
X63807758Y-184629976D01*
X63968177Y-184581313D01*
X64093196Y-184569000D01*
X64176804Y-184569000D01*
X64301823Y-184581313D01*
X64301823Y-184581313D01*
G37*
G36*
X30646823Y-182041313D02*
G01*
X30807242Y-182089976D01*
X30939906Y-182160886D01*
X30955078Y-182168996D01*
X31084659Y-182275341D01*
X31191004Y-182404922D01*
X31191005Y-182404924D01*
X31270024Y-182552758D01*
X31318687Y-182713177D01*
X31335117Y-182880000D01*
X31318687Y-183046823D01*
X31270024Y-183207242D01*
X31199114Y-183339906D01*
X31191004Y-183355078D01*
X31084659Y-183484659D01*
X30955078Y-183591004D01*
X30955076Y-183591005D01*
X30807242Y-183670024D01*
X30646823Y-183718687D01*
X30521804Y-183731000D01*
X30438196Y-183731000D01*
X30313177Y-183718687D01*
X30152758Y-183670024D01*
X30004924Y-183591005D01*
X30004922Y-183591004D01*
X29875341Y-183484659D01*
X29768996Y-183355078D01*
X29760886Y-183339906D01*
X29689976Y-183207242D01*
X29641313Y-183046823D01*
X29624883Y-182880000D01*
X29641313Y-182713177D01*
X29689976Y-182552758D01*
X29768995Y-182404924D01*
X29768996Y-182404922D01*
X29875341Y-182275341D01*
X30004922Y-182168996D01*
X30020094Y-182160886D01*
X30152758Y-182089976D01*
X30313177Y-182041313D01*
X30438196Y-182029000D01*
X30521804Y-182029000D01*
X30646823Y-182041313D01*
X30646823Y-182041313D01*
G37*
G36*
X23026823Y-182041313D02*
G01*
X23187242Y-182089976D01*
X23319906Y-182160886D01*
X23335078Y-182168996D01*
X23464659Y-182275341D01*
X23571004Y-182404922D01*
X23571005Y-182404924D01*
X23650024Y-182552758D01*
X23698687Y-182713177D01*
X23715117Y-182880000D01*
X23698687Y-183046823D01*
X23650024Y-183207242D01*
X23579114Y-183339906D01*
X23571004Y-183355078D01*
X23464659Y-183484659D01*
X23335078Y-183591004D01*
X23335076Y-183591005D01*
X23187242Y-183670024D01*
X23026823Y-183718687D01*
X22901804Y-183731000D01*
X22818196Y-183731000D01*
X22693177Y-183718687D01*
X22532758Y-183670024D01*
X22384924Y-183591005D01*
X22384922Y-183591004D01*
X22255341Y-183484659D01*
X22148996Y-183355078D01*
X22140886Y-183339906D01*
X22069976Y-183207242D01*
X22021313Y-183046823D01*
X22004883Y-182880000D01*
X22021313Y-182713177D01*
X22069976Y-182552758D01*
X22148995Y-182404924D01*
X22148996Y-182404922D01*
X22255341Y-182275341D01*
X22384922Y-182168996D01*
X22400094Y-182160886D01*
X22532758Y-182089976D01*
X22693177Y-182041313D01*
X22818196Y-182029000D01*
X22901804Y-182029000D01*
X23026823Y-182041313D01*
X23026823Y-182041313D01*
G37*
G36*
X64301823Y-182041313D02*
G01*
X64462242Y-182089976D01*
X64594906Y-182160886D01*
X64610078Y-182168996D01*
X64739659Y-182275341D01*
X64846004Y-182404922D01*
X64846005Y-182404924D01*
X64925024Y-182552758D01*
X64973687Y-182713177D01*
X64990117Y-182880000D01*
X64973687Y-183046823D01*
X64925024Y-183207242D01*
X64854114Y-183339906D01*
X64846004Y-183355078D01*
X64739659Y-183484659D01*
X64610078Y-183591004D01*
X64610076Y-183591005D01*
X64462242Y-183670024D01*
X64301823Y-183718687D01*
X64176804Y-183731000D01*
X64093196Y-183731000D01*
X63968177Y-183718687D01*
X63807758Y-183670024D01*
X63659924Y-183591005D01*
X63659922Y-183591004D01*
X63530341Y-183484659D01*
X63423996Y-183355078D01*
X63415886Y-183339906D01*
X63344976Y-183207242D01*
X63296313Y-183046823D01*
X63279883Y-182880000D01*
X63296313Y-182713177D01*
X63344976Y-182552758D01*
X63423995Y-182404924D01*
X63423996Y-182404922D01*
X63530341Y-182275341D01*
X63659922Y-182168996D01*
X63675094Y-182160886D01*
X63807758Y-182089976D01*
X63968177Y-182041313D01*
X64093196Y-182029000D01*
X64176804Y-182029000D01*
X64301823Y-182041313D01*
X64301823Y-182041313D01*
G37*
G36*
X56681823Y-182041313D02*
G01*
X56842242Y-182089976D01*
X56974906Y-182160886D01*
X56990078Y-182168996D01*
X57119659Y-182275341D01*
X57226004Y-182404922D01*
X57226005Y-182404924D01*
X57305024Y-182552758D01*
X57353687Y-182713177D01*
X57370117Y-182880000D01*
X57353687Y-183046823D01*
X57305024Y-183207242D01*
X57234114Y-183339906D01*
X57226004Y-183355078D01*
X57119659Y-183484659D01*
X56990078Y-183591004D01*
X56990076Y-183591005D01*
X56842242Y-183670024D01*
X56681823Y-183718687D01*
X56556804Y-183731000D01*
X56473196Y-183731000D01*
X56348177Y-183718687D01*
X56187758Y-183670024D01*
X56039924Y-183591005D01*
X56039922Y-183591004D01*
X55910341Y-183484659D01*
X55803996Y-183355078D01*
X55795886Y-183339906D01*
X55724976Y-183207242D01*
X55676313Y-183046823D01*
X55659883Y-182880000D01*
X55676313Y-182713177D01*
X55724976Y-182552758D01*
X55803995Y-182404924D01*
X55803996Y-182404922D01*
X55910341Y-182275341D01*
X56039922Y-182168996D01*
X56055094Y-182160886D01*
X56187758Y-182089976D01*
X56348177Y-182041313D01*
X56473196Y-182029000D01*
X56556804Y-182029000D01*
X56681823Y-182041313D01*
X56681823Y-182041313D01*
G37*
G36*
X56681823Y-179501313D02*
G01*
X56842242Y-179549976D01*
X56974906Y-179620886D01*
X56990078Y-179628996D01*
X57119659Y-179735341D01*
X57226004Y-179864922D01*
X57226005Y-179864924D01*
X57305024Y-180012758D01*
X57353687Y-180173177D01*
X57370117Y-180340000D01*
X57353687Y-180506823D01*
X57305024Y-180667242D01*
X57234114Y-180799906D01*
X57226004Y-180815078D01*
X57119659Y-180944659D01*
X56990078Y-181051004D01*
X56990076Y-181051005D01*
X56842242Y-181130024D01*
X56681823Y-181178687D01*
X56556804Y-181191000D01*
X56473196Y-181191000D01*
X56348177Y-181178687D01*
X56187758Y-181130024D01*
X56039924Y-181051005D01*
X56039922Y-181051004D01*
X55910341Y-180944659D01*
X55803996Y-180815078D01*
X55795886Y-180799906D01*
X55724976Y-180667242D01*
X55676313Y-180506823D01*
X55659883Y-180340000D01*
X55676313Y-180173177D01*
X55724976Y-180012758D01*
X55803995Y-179864924D01*
X55803996Y-179864922D01*
X55910341Y-179735341D01*
X56039922Y-179628996D01*
X56055094Y-179620886D01*
X56187758Y-179549976D01*
X56348177Y-179501313D01*
X56473196Y-179489000D01*
X56556804Y-179489000D01*
X56681823Y-179501313D01*
X56681823Y-179501313D01*
G37*
G36*
X30646823Y-179501313D02*
G01*
X30807242Y-179549976D01*
X30939906Y-179620886D01*
X30955078Y-179628996D01*
X31084659Y-179735341D01*
X31191004Y-179864922D01*
X31191005Y-179864924D01*
X31270024Y-180012758D01*
X31318687Y-180173177D01*
X31335117Y-180340000D01*
X31318687Y-180506823D01*
X31270024Y-180667242D01*
X31199114Y-180799906D01*
X31191004Y-180815078D01*
X31084659Y-180944659D01*
X30955078Y-181051004D01*
X30955076Y-181051005D01*
X30807242Y-181130024D01*
X30646823Y-181178687D01*
X30521804Y-181191000D01*
X30438196Y-181191000D01*
X30313177Y-181178687D01*
X30152758Y-181130024D01*
X30004924Y-181051005D01*
X30004922Y-181051004D01*
X29875341Y-180944659D01*
X29768996Y-180815078D01*
X29760886Y-180799906D01*
X29689976Y-180667242D01*
X29641313Y-180506823D01*
X29624883Y-180340000D01*
X29641313Y-180173177D01*
X29689976Y-180012758D01*
X29768995Y-179864924D01*
X29768996Y-179864922D01*
X29875341Y-179735341D01*
X30004922Y-179628996D01*
X30020094Y-179620886D01*
X30152758Y-179549976D01*
X30313177Y-179501313D01*
X30438196Y-179489000D01*
X30521804Y-179489000D01*
X30646823Y-179501313D01*
X30646823Y-179501313D01*
G37*
G36*
X23026823Y-179501313D02*
G01*
X23187242Y-179549976D01*
X23319906Y-179620886D01*
X23335078Y-179628996D01*
X23464659Y-179735341D01*
X23571004Y-179864922D01*
X23571005Y-179864924D01*
X23650024Y-180012758D01*
X23698687Y-180173177D01*
X23715117Y-180340000D01*
X23698687Y-180506823D01*
X23650024Y-180667242D01*
X23579114Y-180799906D01*
X23571004Y-180815078D01*
X23464659Y-180944659D01*
X23335078Y-181051004D01*
X23335076Y-181051005D01*
X23187242Y-181130024D01*
X23026823Y-181178687D01*
X22901804Y-181191000D01*
X22818196Y-181191000D01*
X22693177Y-181178687D01*
X22532758Y-181130024D01*
X22384924Y-181051005D01*
X22384922Y-181051004D01*
X22255341Y-180944659D01*
X22148996Y-180815078D01*
X22140886Y-180799906D01*
X22069976Y-180667242D01*
X22021313Y-180506823D01*
X22004883Y-180340000D01*
X22021313Y-180173177D01*
X22069976Y-180012758D01*
X22148995Y-179864924D01*
X22148996Y-179864922D01*
X22255341Y-179735341D01*
X22384922Y-179628996D01*
X22400094Y-179620886D01*
X22532758Y-179549976D01*
X22693177Y-179501313D01*
X22818196Y-179489000D01*
X22901804Y-179489000D01*
X23026823Y-179501313D01*
X23026823Y-179501313D01*
G37*
G36*
X64301823Y-179501313D02*
G01*
X64462242Y-179549976D01*
X64594906Y-179620886D01*
X64610078Y-179628996D01*
X64739659Y-179735341D01*
X64846004Y-179864922D01*
X64846005Y-179864924D01*
X64925024Y-180012758D01*
X64973687Y-180173177D01*
X64990117Y-180340000D01*
X64973687Y-180506823D01*
X64925024Y-180667242D01*
X64854114Y-180799906D01*
X64846004Y-180815078D01*
X64739659Y-180944659D01*
X64610078Y-181051004D01*
X64610076Y-181051005D01*
X64462242Y-181130024D01*
X64301823Y-181178687D01*
X64176804Y-181191000D01*
X64093196Y-181191000D01*
X63968177Y-181178687D01*
X63807758Y-181130024D01*
X63659924Y-181051005D01*
X63659922Y-181051004D01*
X63530341Y-180944659D01*
X63423996Y-180815078D01*
X63415886Y-180799906D01*
X63344976Y-180667242D01*
X63296313Y-180506823D01*
X63279883Y-180340000D01*
X63296313Y-180173177D01*
X63344976Y-180012758D01*
X63423995Y-179864924D01*
X63423996Y-179864922D01*
X63530341Y-179735341D01*
X63659922Y-179628996D01*
X63675094Y-179620886D01*
X63807758Y-179549976D01*
X63968177Y-179501313D01*
X64093196Y-179489000D01*
X64176804Y-179489000D01*
X64301823Y-179501313D01*
X64301823Y-179501313D01*
G37*
G36*
X23026823Y-176961313D02*
G01*
X23187242Y-177009976D01*
X23319906Y-177080886D01*
X23335078Y-177088996D01*
X23464659Y-177195341D01*
X23571004Y-177324922D01*
X23571005Y-177324924D01*
X23650024Y-177472758D01*
X23698687Y-177633177D01*
X23715117Y-177800000D01*
X23698687Y-177966823D01*
X23650024Y-178127242D01*
X23579114Y-178259906D01*
X23571004Y-178275078D01*
X23464659Y-178404659D01*
X23335078Y-178511004D01*
X23335076Y-178511005D01*
X23187242Y-178590024D01*
X23026823Y-178638687D01*
X22901804Y-178651000D01*
X22818196Y-178651000D01*
X22693177Y-178638687D01*
X22532758Y-178590024D01*
X22384924Y-178511005D01*
X22384922Y-178511004D01*
X22255341Y-178404659D01*
X22148996Y-178275078D01*
X22140886Y-178259906D01*
X22069976Y-178127242D01*
X22021313Y-177966823D01*
X22004883Y-177800000D01*
X22021313Y-177633177D01*
X22069976Y-177472758D01*
X22148995Y-177324924D01*
X22148996Y-177324922D01*
X22255341Y-177195341D01*
X22384922Y-177088996D01*
X22400094Y-177080886D01*
X22532758Y-177009976D01*
X22693177Y-176961313D01*
X22818196Y-176949000D01*
X22901804Y-176949000D01*
X23026823Y-176961313D01*
X23026823Y-176961313D01*
G37*
G36*
X30646823Y-176961313D02*
G01*
X30807242Y-177009976D01*
X30939906Y-177080886D01*
X30955078Y-177088996D01*
X31084659Y-177195341D01*
X31191004Y-177324922D01*
X31191005Y-177324924D01*
X31270024Y-177472758D01*
X31318687Y-177633177D01*
X31335117Y-177800000D01*
X31318687Y-177966823D01*
X31270024Y-178127242D01*
X31199114Y-178259906D01*
X31191004Y-178275078D01*
X31084659Y-178404659D01*
X30955078Y-178511004D01*
X30955076Y-178511005D01*
X30807242Y-178590024D01*
X30646823Y-178638687D01*
X30521804Y-178651000D01*
X30438196Y-178651000D01*
X30313177Y-178638687D01*
X30152758Y-178590024D01*
X30004924Y-178511005D01*
X30004922Y-178511004D01*
X29875341Y-178404659D01*
X29768996Y-178275078D01*
X29760886Y-178259906D01*
X29689976Y-178127242D01*
X29641313Y-177966823D01*
X29624883Y-177800000D01*
X29641313Y-177633177D01*
X29689976Y-177472758D01*
X29768995Y-177324924D01*
X29768996Y-177324922D01*
X29875341Y-177195341D01*
X30004922Y-177088996D01*
X30020094Y-177080886D01*
X30152758Y-177009976D01*
X30313177Y-176961313D01*
X30438196Y-176949000D01*
X30521804Y-176949000D01*
X30646823Y-176961313D01*
X30646823Y-176961313D01*
G37*
G36*
X64301823Y-176961313D02*
G01*
X64462242Y-177009976D01*
X64594906Y-177080886D01*
X64610078Y-177088996D01*
X64739659Y-177195341D01*
X64846004Y-177324922D01*
X64846005Y-177324924D01*
X64925024Y-177472758D01*
X64973687Y-177633177D01*
X64990117Y-177800000D01*
X64973687Y-177966823D01*
X64925024Y-178127242D01*
X64854114Y-178259906D01*
X64846004Y-178275078D01*
X64739659Y-178404659D01*
X64610078Y-178511004D01*
X64610076Y-178511005D01*
X64462242Y-178590024D01*
X64301823Y-178638687D01*
X64176804Y-178651000D01*
X64093196Y-178651000D01*
X63968177Y-178638687D01*
X63807758Y-178590024D01*
X63659924Y-178511005D01*
X63659922Y-178511004D01*
X63530341Y-178404659D01*
X63423996Y-178275078D01*
X63415886Y-178259906D01*
X63344976Y-178127242D01*
X63296313Y-177966823D01*
X63279883Y-177800000D01*
X63296313Y-177633177D01*
X63344976Y-177472758D01*
X63423995Y-177324924D01*
X63423996Y-177324922D01*
X63530341Y-177195341D01*
X63659922Y-177088996D01*
X63675094Y-177080886D01*
X63807758Y-177009976D01*
X63968177Y-176961313D01*
X64093196Y-176949000D01*
X64176804Y-176949000D01*
X64301823Y-176961313D01*
X64301823Y-176961313D01*
G37*
G36*
X56681823Y-176961313D02*
G01*
X56842242Y-177009976D01*
X56974906Y-177080886D01*
X56990078Y-177088996D01*
X57119659Y-177195341D01*
X57226004Y-177324922D01*
X57226005Y-177324924D01*
X57305024Y-177472758D01*
X57353687Y-177633177D01*
X57370117Y-177800000D01*
X57353687Y-177966823D01*
X57305024Y-178127242D01*
X57234114Y-178259906D01*
X57226004Y-178275078D01*
X57119659Y-178404659D01*
X56990078Y-178511004D01*
X56990076Y-178511005D01*
X56842242Y-178590024D01*
X56681823Y-178638687D01*
X56556804Y-178651000D01*
X56473196Y-178651000D01*
X56348177Y-178638687D01*
X56187758Y-178590024D01*
X56039924Y-178511005D01*
X56039922Y-178511004D01*
X55910341Y-178404659D01*
X55803996Y-178275078D01*
X55795886Y-178259906D01*
X55724976Y-178127242D01*
X55676313Y-177966823D01*
X55659883Y-177800000D01*
X55676313Y-177633177D01*
X55724976Y-177472758D01*
X55803995Y-177324924D01*
X55803996Y-177324922D01*
X55910341Y-177195341D01*
X56039922Y-177088996D01*
X56055094Y-177080886D01*
X56187758Y-177009976D01*
X56348177Y-176961313D01*
X56473196Y-176949000D01*
X56556804Y-176949000D01*
X56681823Y-176961313D01*
X56681823Y-176961313D01*
G37*
G36*
X30646823Y-174421313D02*
G01*
X30807242Y-174469976D01*
X30939906Y-174540886D01*
X30955078Y-174548996D01*
X31084659Y-174655341D01*
X31191004Y-174784922D01*
X31191005Y-174784924D01*
X31270024Y-174932758D01*
X31318687Y-175093177D01*
X31335117Y-175260000D01*
X31318687Y-175426823D01*
X31270024Y-175587242D01*
X31199114Y-175719906D01*
X31191004Y-175735078D01*
X31084659Y-175864659D01*
X30955078Y-175971004D01*
X30955076Y-175971005D01*
X30807242Y-176050024D01*
X30646823Y-176098687D01*
X30521804Y-176111000D01*
X30438196Y-176111000D01*
X30313177Y-176098687D01*
X30152758Y-176050024D01*
X30004924Y-175971005D01*
X30004922Y-175971004D01*
X29875341Y-175864659D01*
X29768996Y-175735078D01*
X29760886Y-175719906D01*
X29689976Y-175587242D01*
X29641313Y-175426823D01*
X29624883Y-175260000D01*
X29641313Y-175093177D01*
X29689976Y-174932758D01*
X29768995Y-174784924D01*
X29768996Y-174784922D01*
X29875341Y-174655341D01*
X30004922Y-174548996D01*
X30020094Y-174540886D01*
X30152758Y-174469976D01*
X30313177Y-174421313D01*
X30438196Y-174409000D01*
X30521804Y-174409000D01*
X30646823Y-174421313D01*
X30646823Y-174421313D01*
G37*
G36*
X23026823Y-174421313D02*
G01*
X23187242Y-174469976D01*
X23319906Y-174540886D01*
X23335078Y-174548996D01*
X23464659Y-174655341D01*
X23571004Y-174784922D01*
X23571005Y-174784924D01*
X23650024Y-174932758D01*
X23698687Y-175093177D01*
X23715117Y-175260000D01*
X23698687Y-175426823D01*
X23650024Y-175587242D01*
X23579114Y-175719906D01*
X23571004Y-175735078D01*
X23464659Y-175864659D01*
X23335078Y-175971004D01*
X23335076Y-175971005D01*
X23187242Y-176050024D01*
X23026823Y-176098687D01*
X22901804Y-176111000D01*
X22818196Y-176111000D01*
X22693177Y-176098687D01*
X22532758Y-176050024D01*
X22384924Y-175971005D01*
X22384922Y-175971004D01*
X22255341Y-175864659D01*
X22148996Y-175735078D01*
X22140886Y-175719906D01*
X22069976Y-175587242D01*
X22021313Y-175426823D01*
X22004883Y-175260000D01*
X22021313Y-175093177D01*
X22069976Y-174932758D01*
X22148995Y-174784924D01*
X22148996Y-174784922D01*
X22255341Y-174655341D01*
X22384922Y-174548996D01*
X22400094Y-174540886D01*
X22532758Y-174469976D01*
X22693177Y-174421313D01*
X22818196Y-174409000D01*
X22901804Y-174409000D01*
X23026823Y-174421313D01*
X23026823Y-174421313D01*
G37*
G36*
X56681823Y-174421313D02*
G01*
X56842242Y-174469976D01*
X56974906Y-174540886D01*
X56990078Y-174548996D01*
X57119659Y-174655341D01*
X57226004Y-174784922D01*
X57226005Y-174784924D01*
X57305024Y-174932758D01*
X57353687Y-175093177D01*
X57370117Y-175260000D01*
X57353687Y-175426823D01*
X57305024Y-175587242D01*
X57234114Y-175719906D01*
X57226004Y-175735078D01*
X57119659Y-175864659D01*
X56990078Y-175971004D01*
X56990076Y-175971005D01*
X56842242Y-176050024D01*
X56681823Y-176098687D01*
X56556804Y-176111000D01*
X56473196Y-176111000D01*
X56348177Y-176098687D01*
X56187758Y-176050024D01*
X56039924Y-175971005D01*
X56039922Y-175971004D01*
X55910341Y-175864659D01*
X55803996Y-175735078D01*
X55795886Y-175719906D01*
X55724976Y-175587242D01*
X55676313Y-175426823D01*
X55659883Y-175260000D01*
X55676313Y-175093177D01*
X55724976Y-174932758D01*
X55803995Y-174784924D01*
X55803996Y-174784922D01*
X55910341Y-174655341D01*
X56039922Y-174548996D01*
X56055094Y-174540886D01*
X56187758Y-174469976D01*
X56348177Y-174421313D01*
X56473196Y-174409000D01*
X56556804Y-174409000D01*
X56681823Y-174421313D01*
X56681823Y-174421313D01*
G37*
G36*
X64301823Y-174421313D02*
G01*
X64462242Y-174469976D01*
X64594906Y-174540886D01*
X64610078Y-174548996D01*
X64739659Y-174655341D01*
X64846004Y-174784922D01*
X64846005Y-174784924D01*
X64925024Y-174932758D01*
X64973687Y-175093177D01*
X64990117Y-175260000D01*
X64973687Y-175426823D01*
X64925024Y-175587242D01*
X64854114Y-175719906D01*
X64846004Y-175735078D01*
X64739659Y-175864659D01*
X64610078Y-175971004D01*
X64610076Y-175971005D01*
X64462242Y-176050024D01*
X64301823Y-176098687D01*
X64176804Y-176111000D01*
X64093196Y-176111000D01*
X63968177Y-176098687D01*
X63807758Y-176050024D01*
X63659924Y-175971005D01*
X63659922Y-175971004D01*
X63530341Y-175864659D01*
X63423996Y-175735078D01*
X63415886Y-175719906D01*
X63344976Y-175587242D01*
X63296313Y-175426823D01*
X63279883Y-175260000D01*
X63296313Y-175093177D01*
X63344976Y-174932758D01*
X63423995Y-174784924D01*
X63423996Y-174784922D01*
X63530341Y-174655341D01*
X63659922Y-174548996D01*
X63675094Y-174540886D01*
X63807758Y-174469976D01*
X63968177Y-174421313D01*
X64093196Y-174409000D01*
X64176804Y-174409000D01*
X64301823Y-174421313D01*
X64301823Y-174421313D01*
G37*
G36*
X64301823Y-171881313D02*
G01*
X64462242Y-171929976D01*
X64594906Y-172000886D01*
X64610078Y-172008996D01*
X64739659Y-172115341D01*
X64846004Y-172244922D01*
X64846005Y-172244924D01*
X64925024Y-172392758D01*
X64973687Y-172553177D01*
X64990117Y-172720000D01*
X64973687Y-172886823D01*
X64925024Y-173047242D01*
X64854114Y-173179906D01*
X64846004Y-173195078D01*
X64739659Y-173324659D01*
X64610078Y-173431004D01*
X64610076Y-173431005D01*
X64462242Y-173510024D01*
X64301823Y-173558687D01*
X64176804Y-173571000D01*
X64093196Y-173571000D01*
X63968177Y-173558687D01*
X63807758Y-173510024D01*
X63659924Y-173431005D01*
X63659922Y-173431004D01*
X63530341Y-173324659D01*
X63423996Y-173195078D01*
X63415886Y-173179906D01*
X63344976Y-173047242D01*
X63296313Y-172886823D01*
X63279883Y-172720000D01*
X63296313Y-172553177D01*
X63344976Y-172392758D01*
X63423995Y-172244924D01*
X63423996Y-172244922D01*
X63530341Y-172115341D01*
X63659922Y-172008996D01*
X63675094Y-172000886D01*
X63807758Y-171929976D01*
X63968177Y-171881313D01*
X64093196Y-171869000D01*
X64176804Y-171869000D01*
X64301823Y-171881313D01*
X64301823Y-171881313D01*
G37*
G36*
X30646823Y-171881313D02*
G01*
X30807242Y-171929976D01*
X30939906Y-172000886D01*
X30955078Y-172008996D01*
X31084659Y-172115341D01*
X31191004Y-172244922D01*
X31191005Y-172244924D01*
X31270024Y-172392758D01*
X31318687Y-172553177D01*
X31335117Y-172720000D01*
X31318687Y-172886823D01*
X31270024Y-173047242D01*
X31199114Y-173179906D01*
X31191004Y-173195078D01*
X31084659Y-173324659D01*
X30955078Y-173431004D01*
X30955076Y-173431005D01*
X30807242Y-173510024D01*
X30646823Y-173558687D01*
X30521804Y-173571000D01*
X30438196Y-173571000D01*
X30313177Y-173558687D01*
X30152758Y-173510024D01*
X30004924Y-173431005D01*
X30004922Y-173431004D01*
X29875341Y-173324659D01*
X29768996Y-173195078D01*
X29760886Y-173179906D01*
X29689976Y-173047242D01*
X29641313Y-172886823D01*
X29624883Y-172720000D01*
X29641313Y-172553177D01*
X29689976Y-172392758D01*
X29768995Y-172244924D01*
X29768996Y-172244922D01*
X29875341Y-172115341D01*
X30004922Y-172008996D01*
X30020094Y-172000886D01*
X30152758Y-171929976D01*
X30313177Y-171881313D01*
X30438196Y-171869000D01*
X30521804Y-171869000D01*
X30646823Y-171881313D01*
X30646823Y-171881313D01*
G37*
G36*
X23026823Y-171881313D02*
G01*
X23187242Y-171929976D01*
X23319906Y-172000886D01*
X23335078Y-172008996D01*
X23464659Y-172115341D01*
X23571004Y-172244922D01*
X23571005Y-172244924D01*
X23650024Y-172392758D01*
X23698687Y-172553177D01*
X23715117Y-172720000D01*
X23698687Y-172886823D01*
X23650024Y-173047242D01*
X23579114Y-173179906D01*
X23571004Y-173195078D01*
X23464659Y-173324659D01*
X23335078Y-173431004D01*
X23335076Y-173431005D01*
X23187242Y-173510024D01*
X23026823Y-173558687D01*
X22901804Y-173571000D01*
X22818196Y-173571000D01*
X22693177Y-173558687D01*
X22532758Y-173510024D01*
X22384924Y-173431005D01*
X22384922Y-173431004D01*
X22255341Y-173324659D01*
X22148996Y-173195078D01*
X22140886Y-173179906D01*
X22069976Y-173047242D01*
X22021313Y-172886823D01*
X22004883Y-172720000D01*
X22021313Y-172553177D01*
X22069976Y-172392758D01*
X22148995Y-172244924D01*
X22148996Y-172244922D01*
X22255341Y-172115341D01*
X22384922Y-172008996D01*
X22400094Y-172000886D01*
X22532758Y-171929976D01*
X22693177Y-171881313D01*
X22818196Y-171869000D01*
X22901804Y-171869000D01*
X23026823Y-171881313D01*
X23026823Y-171881313D01*
G37*
G36*
X56681823Y-171881313D02*
G01*
X56842242Y-171929976D01*
X56974906Y-172000886D01*
X56990078Y-172008996D01*
X57119659Y-172115341D01*
X57226004Y-172244922D01*
X57226005Y-172244924D01*
X57305024Y-172392758D01*
X57353687Y-172553177D01*
X57370117Y-172720000D01*
X57353687Y-172886823D01*
X57305024Y-173047242D01*
X57234114Y-173179906D01*
X57226004Y-173195078D01*
X57119659Y-173324659D01*
X56990078Y-173431004D01*
X56990076Y-173431005D01*
X56842242Y-173510024D01*
X56681823Y-173558687D01*
X56556804Y-173571000D01*
X56473196Y-173571000D01*
X56348177Y-173558687D01*
X56187758Y-173510024D01*
X56039924Y-173431005D01*
X56039922Y-173431004D01*
X55910341Y-173324659D01*
X55803996Y-173195078D01*
X55795886Y-173179906D01*
X55724976Y-173047242D01*
X55676313Y-172886823D01*
X55659883Y-172720000D01*
X55676313Y-172553177D01*
X55724976Y-172392758D01*
X55803995Y-172244924D01*
X55803996Y-172244922D01*
X55910341Y-172115341D01*
X56039922Y-172008996D01*
X56055094Y-172000886D01*
X56187758Y-171929976D01*
X56348177Y-171881313D01*
X56473196Y-171869000D01*
X56556804Y-171869000D01*
X56681823Y-171881313D01*
X56681823Y-171881313D01*
G37*
G36*
X42655443Y-169285519D02*
G01*
X42721627Y-169292037D01*
X42891466Y-169343557D01*
X43047991Y-169427222D01*
X43083729Y-169456552D01*
X43185186Y-169539814D01*
X43268448Y-169641271D01*
X43297778Y-169677009D01*
X43381443Y-169833534D01*
X43432963Y-170003373D01*
X43450359Y-170180000D01*
X43432963Y-170356627D01*
X43381443Y-170526466D01*
X43297778Y-170682991D01*
X43268448Y-170718729D01*
X43185186Y-170820186D01*
X43083729Y-170903448D01*
X43047991Y-170932778D01*
X42891466Y-171016443D01*
X42721627Y-171067963D01*
X42655443Y-171074481D01*
X42589260Y-171081000D01*
X42500740Y-171081000D01*
X42434557Y-171074481D01*
X42368373Y-171067963D01*
X42198534Y-171016443D01*
X42042009Y-170932778D01*
X42006271Y-170903448D01*
X41904814Y-170820186D01*
X41821552Y-170718729D01*
X41792222Y-170682991D01*
X41708557Y-170526466D01*
X41657037Y-170356627D01*
X41639641Y-170180000D01*
X41657037Y-170003373D01*
X41708557Y-169833534D01*
X41792222Y-169677009D01*
X41821552Y-169641271D01*
X41904814Y-169539814D01*
X42006271Y-169456552D01*
X42042009Y-169427222D01*
X42198534Y-169343557D01*
X42368373Y-169292037D01*
X42434557Y-169285519D01*
X42500740Y-169279000D01*
X42589260Y-169279000D01*
X42655443Y-169285519D01*
X42655443Y-169285519D01*
G37*
G36*
X45195443Y-169285519D02*
G01*
X45261627Y-169292037D01*
X45431466Y-169343557D01*
X45587991Y-169427222D01*
X45623729Y-169456552D01*
X45725186Y-169539814D01*
X45808448Y-169641271D01*
X45837778Y-169677009D01*
X45921443Y-169833534D01*
X45972963Y-170003373D01*
X45990359Y-170180000D01*
X45972963Y-170356627D01*
X45921443Y-170526466D01*
X45837778Y-170682991D01*
X45808448Y-170718729D01*
X45725186Y-170820186D01*
X45623729Y-170903448D01*
X45587991Y-170932778D01*
X45431466Y-171016443D01*
X45261627Y-171067963D01*
X45195443Y-171074481D01*
X45129260Y-171081000D01*
X45040740Y-171081000D01*
X44974557Y-171074481D01*
X44908373Y-171067963D01*
X44738534Y-171016443D01*
X44582009Y-170932778D01*
X44546271Y-170903448D01*
X44444814Y-170820186D01*
X44361552Y-170718729D01*
X44332222Y-170682991D01*
X44248557Y-170526466D01*
X44197037Y-170356627D01*
X44179641Y-170180000D01*
X44197037Y-170003373D01*
X44248557Y-169833534D01*
X44332222Y-169677009D01*
X44361552Y-169641271D01*
X44444814Y-169539814D01*
X44546271Y-169456552D01*
X44582009Y-169427222D01*
X44738534Y-169343557D01*
X44908373Y-169292037D01*
X44974557Y-169285519D01*
X45040740Y-169279000D01*
X45129260Y-169279000D01*
X45195443Y-169285519D01*
X45195443Y-169285519D01*
G37*
G36*
X30646823Y-169341313D02*
G01*
X30807242Y-169389976D01*
X30876922Y-169427221D01*
X30955078Y-169468996D01*
X31084659Y-169575341D01*
X31191004Y-169704922D01*
X31191005Y-169704924D01*
X31270024Y-169852758D01*
X31318687Y-170013177D01*
X31335117Y-170180000D01*
X31318687Y-170346823D01*
X31270024Y-170507242D01*
X31259747Y-170526468D01*
X31191004Y-170655078D01*
X31084659Y-170784659D01*
X30955078Y-170891004D01*
X30955076Y-170891005D01*
X30807242Y-170970024D01*
X30646823Y-171018687D01*
X30521804Y-171031000D01*
X30438196Y-171031000D01*
X30313177Y-171018687D01*
X30152758Y-170970024D01*
X30004924Y-170891005D01*
X30004922Y-170891004D01*
X29875341Y-170784659D01*
X29768996Y-170655078D01*
X29700253Y-170526468D01*
X29689976Y-170507242D01*
X29641313Y-170346823D01*
X29624883Y-170180000D01*
X29641313Y-170013177D01*
X29689976Y-169852758D01*
X29768995Y-169704924D01*
X29768996Y-169704922D01*
X29875341Y-169575341D01*
X30004922Y-169468996D01*
X30083078Y-169427221D01*
X30152758Y-169389976D01*
X30313177Y-169341313D01*
X30438196Y-169329000D01*
X30521804Y-169329000D01*
X30646823Y-169341313D01*
X30646823Y-169341313D01*
G37*
G36*
X23026823Y-169341313D02*
G01*
X23187242Y-169389976D01*
X23256922Y-169427221D01*
X23335078Y-169468996D01*
X23464659Y-169575341D01*
X23571004Y-169704922D01*
X23571005Y-169704924D01*
X23650024Y-169852758D01*
X23698687Y-170013177D01*
X23715117Y-170180000D01*
X23698687Y-170346823D01*
X23650024Y-170507242D01*
X23639747Y-170526468D01*
X23571004Y-170655078D01*
X23464659Y-170784659D01*
X23335078Y-170891004D01*
X23335076Y-170891005D01*
X23187242Y-170970024D01*
X23026823Y-171018687D01*
X22901804Y-171031000D01*
X22818196Y-171031000D01*
X22693177Y-171018687D01*
X22532758Y-170970024D01*
X22384924Y-170891005D01*
X22384922Y-170891004D01*
X22255341Y-170784659D01*
X22148996Y-170655078D01*
X22080253Y-170526468D01*
X22069976Y-170507242D01*
X22021313Y-170346823D01*
X22004883Y-170180000D01*
X22021313Y-170013177D01*
X22069976Y-169852758D01*
X22148995Y-169704924D01*
X22148996Y-169704922D01*
X22255341Y-169575341D01*
X22384922Y-169468996D01*
X22463078Y-169427221D01*
X22532758Y-169389976D01*
X22693177Y-169341313D01*
X22818196Y-169329000D01*
X22901804Y-169329000D01*
X23026823Y-169341313D01*
X23026823Y-169341313D01*
G37*
G36*
X56681823Y-169341313D02*
G01*
X56842242Y-169389976D01*
X56911922Y-169427221D01*
X56990078Y-169468996D01*
X57119659Y-169575341D01*
X57226004Y-169704922D01*
X57226005Y-169704924D01*
X57305024Y-169852758D01*
X57353687Y-170013177D01*
X57370117Y-170180000D01*
X57353687Y-170346823D01*
X57305024Y-170507242D01*
X57294747Y-170526468D01*
X57226004Y-170655078D01*
X57119659Y-170784659D01*
X56990078Y-170891004D01*
X56990076Y-170891005D01*
X56842242Y-170970024D01*
X56681823Y-171018687D01*
X56556804Y-171031000D01*
X56473196Y-171031000D01*
X56348177Y-171018687D01*
X56187758Y-170970024D01*
X56039924Y-170891005D01*
X56039922Y-170891004D01*
X55910341Y-170784659D01*
X55803996Y-170655078D01*
X55735253Y-170526468D01*
X55724976Y-170507242D01*
X55676313Y-170346823D01*
X55659883Y-170180000D01*
X55676313Y-170013177D01*
X55724976Y-169852758D01*
X55803995Y-169704924D01*
X55803996Y-169704922D01*
X55910341Y-169575341D01*
X56039922Y-169468996D01*
X56118078Y-169427221D01*
X56187758Y-169389976D01*
X56348177Y-169341313D01*
X56473196Y-169329000D01*
X56556804Y-169329000D01*
X56681823Y-169341313D01*
X56681823Y-169341313D01*
G37*
G36*
X64301823Y-169341313D02*
G01*
X64462242Y-169389976D01*
X64531922Y-169427221D01*
X64610078Y-169468996D01*
X64739659Y-169575341D01*
X64846004Y-169704922D01*
X64846005Y-169704924D01*
X64925024Y-169852758D01*
X64973687Y-170013177D01*
X64990117Y-170180000D01*
X64973687Y-170346823D01*
X64925024Y-170507242D01*
X64914747Y-170526468D01*
X64846004Y-170655078D01*
X64739659Y-170784659D01*
X64610078Y-170891004D01*
X64610076Y-170891005D01*
X64462242Y-170970024D01*
X64301823Y-171018687D01*
X64176804Y-171031000D01*
X64093196Y-171031000D01*
X63968177Y-171018687D01*
X63807758Y-170970024D01*
X63659924Y-170891005D01*
X63659922Y-170891004D01*
X63530341Y-170784659D01*
X63423996Y-170655078D01*
X63355253Y-170526468D01*
X63344976Y-170507242D01*
X63296313Y-170346823D01*
X63279883Y-170180000D01*
X63296313Y-170013177D01*
X63344976Y-169852758D01*
X63423995Y-169704924D01*
X63423996Y-169704922D01*
X63530341Y-169575341D01*
X63659922Y-169468996D01*
X63738078Y-169427221D01*
X63807758Y-169389976D01*
X63968177Y-169341313D01*
X64093196Y-169329000D01*
X64176804Y-169329000D01*
X64301823Y-169341313D01*
X64301823Y-169341313D01*
G37*
G36*
X45195442Y-166745518D02*
G01*
X45261627Y-166752037D01*
X45431466Y-166803557D01*
X45587991Y-166887222D01*
X45623729Y-166916552D01*
X45725186Y-166999814D01*
X45808448Y-167101271D01*
X45837778Y-167137009D01*
X45921443Y-167293534D01*
X45972963Y-167463373D01*
X45990359Y-167640000D01*
X45972963Y-167816627D01*
X45921443Y-167986466D01*
X45837778Y-168142991D01*
X45808448Y-168178729D01*
X45725186Y-168280186D01*
X45623729Y-168363448D01*
X45587991Y-168392778D01*
X45431466Y-168476443D01*
X45261627Y-168527963D01*
X45195442Y-168534482D01*
X45129260Y-168541000D01*
X45040740Y-168541000D01*
X44974558Y-168534482D01*
X44908373Y-168527963D01*
X44738534Y-168476443D01*
X44582009Y-168392778D01*
X44546271Y-168363448D01*
X44444814Y-168280186D01*
X44361552Y-168178729D01*
X44332222Y-168142991D01*
X44248557Y-167986466D01*
X44197037Y-167816627D01*
X44179641Y-167640000D01*
X44197037Y-167463373D01*
X44248557Y-167293534D01*
X44332222Y-167137009D01*
X44361552Y-167101271D01*
X44444814Y-166999814D01*
X44546271Y-166916552D01*
X44582009Y-166887222D01*
X44738534Y-166803557D01*
X44908373Y-166752037D01*
X44974558Y-166745518D01*
X45040740Y-166739000D01*
X45129260Y-166739000D01*
X45195442Y-166745518D01*
X45195442Y-166745518D01*
G37*
G36*
X42655442Y-166745518D02*
G01*
X42721627Y-166752037D01*
X42891466Y-166803557D01*
X43047991Y-166887222D01*
X43083729Y-166916552D01*
X43185186Y-166999814D01*
X43268448Y-167101271D01*
X43297778Y-167137009D01*
X43381443Y-167293534D01*
X43432963Y-167463373D01*
X43450359Y-167640000D01*
X43432963Y-167816627D01*
X43381443Y-167986466D01*
X43297778Y-168142991D01*
X43268448Y-168178729D01*
X43185186Y-168280186D01*
X43083729Y-168363448D01*
X43047991Y-168392778D01*
X42891466Y-168476443D01*
X42721627Y-168527963D01*
X42655442Y-168534482D01*
X42589260Y-168541000D01*
X42500740Y-168541000D01*
X42434558Y-168534482D01*
X42368373Y-168527963D01*
X42198534Y-168476443D01*
X42042009Y-168392778D01*
X42006271Y-168363448D01*
X41904814Y-168280186D01*
X41821552Y-168178729D01*
X41792222Y-168142991D01*
X41708557Y-167986466D01*
X41657037Y-167816627D01*
X41639641Y-167640000D01*
X41657037Y-167463373D01*
X41708557Y-167293534D01*
X41792222Y-167137009D01*
X41821552Y-167101271D01*
X41904814Y-166999814D01*
X42006271Y-166916552D01*
X42042009Y-166887222D01*
X42198534Y-166803557D01*
X42368373Y-166752037D01*
X42434558Y-166745518D01*
X42500740Y-166739000D01*
X42589260Y-166739000D01*
X42655442Y-166745518D01*
X42655442Y-166745518D01*
G37*
G36*
X56681823Y-166801313D02*
G01*
X56842242Y-166849976D01*
X56911922Y-166887221D01*
X56990078Y-166928996D01*
X57119659Y-167035341D01*
X57226004Y-167164922D01*
X57226005Y-167164924D01*
X57305024Y-167312758D01*
X57353687Y-167473177D01*
X57370117Y-167640000D01*
X57353687Y-167806823D01*
X57305024Y-167967242D01*
X57294747Y-167986468D01*
X57226004Y-168115078D01*
X57119659Y-168244659D01*
X56990078Y-168351004D01*
X56990076Y-168351005D01*
X56842242Y-168430024D01*
X56681823Y-168478687D01*
X56556804Y-168491000D01*
X56473196Y-168491000D01*
X56348177Y-168478687D01*
X56187758Y-168430024D01*
X56039924Y-168351005D01*
X56039922Y-168351004D01*
X55910341Y-168244659D01*
X55803996Y-168115078D01*
X55735253Y-167986468D01*
X55724976Y-167967242D01*
X55676313Y-167806823D01*
X55659883Y-167640000D01*
X55676313Y-167473177D01*
X55724976Y-167312758D01*
X55803995Y-167164924D01*
X55803996Y-167164922D01*
X55910341Y-167035341D01*
X56039922Y-166928996D01*
X56118078Y-166887221D01*
X56187758Y-166849976D01*
X56348177Y-166801313D01*
X56473196Y-166789000D01*
X56556804Y-166789000D01*
X56681823Y-166801313D01*
X56681823Y-166801313D01*
G37*
G36*
X30646823Y-166801313D02*
G01*
X30807242Y-166849976D01*
X30876922Y-166887221D01*
X30955078Y-166928996D01*
X31084659Y-167035341D01*
X31191004Y-167164922D01*
X31191005Y-167164924D01*
X31270024Y-167312758D01*
X31318687Y-167473177D01*
X31335117Y-167640000D01*
X31318687Y-167806823D01*
X31270024Y-167967242D01*
X31259747Y-167986468D01*
X31191004Y-168115078D01*
X31084659Y-168244659D01*
X30955078Y-168351004D01*
X30955076Y-168351005D01*
X30807242Y-168430024D01*
X30646823Y-168478687D01*
X30521804Y-168491000D01*
X30438196Y-168491000D01*
X30313177Y-168478687D01*
X30152758Y-168430024D01*
X30004924Y-168351005D01*
X30004922Y-168351004D01*
X29875341Y-168244659D01*
X29768996Y-168115078D01*
X29700253Y-167986468D01*
X29689976Y-167967242D01*
X29641313Y-167806823D01*
X29624883Y-167640000D01*
X29641313Y-167473177D01*
X29689976Y-167312758D01*
X29768995Y-167164924D01*
X29768996Y-167164922D01*
X29875341Y-167035341D01*
X30004922Y-166928996D01*
X30083078Y-166887221D01*
X30152758Y-166849976D01*
X30313177Y-166801313D01*
X30438196Y-166789000D01*
X30521804Y-166789000D01*
X30646823Y-166801313D01*
X30646823Y-166801313D01*
G37*
G36*
X23026823Y-166801313D02*
G01*
X23187242Y-166849976D01*
X23256922Y-166887221D01*
X23335078Y-166928996D01*
X23464659Y-167035341D01*
X23571004Y-167164922D01*
X23571005Y-167164924D01*
X23650024Y-167312758D01*
X23698687Y-167473177D01*
X23715117Y-167640000D01*
X23698687Y-167806823D01*
X23650024Y-167967242D01*
X23639747Y-167986468D01*
X23571004Y-168115078D01*
X23464659Y-168244659D01*
X23335078Y-168351004D01*
X23335076Y-168351005D01*
X23187242Y-168430024D01*
X23026823Y-168478687D01*
X22901804Y-168491000D01*
X22818196Y-168491000D01*
X22693177Y-168478687D01*
X22532758Y-168430024D01*
X22384924Y-168351005D01*
X22384922Y-168351004D01*
X22255341Y-168244659D01*
X22148996Y-168115078D01*
X22080253Y-167986468D01*
X22069976Y-167967242D01*
X22021313Y-167806823D01*
X22004883Y-167640000D01*
X22021313Y-167473177D01*
X22069976Y-167312758D01*
X22148995Y-167164924D01*
X22148996Y-167164922D01*
X22255341Y-167035341D01*
X22384922Y-166928996D01*
X22463078Y-166887221D01*
X22532758Y-166849976D01*
X22693177Y-166801313D01*
X22818196Y-166789000D01*
X22901804Y-166789000D01*
X23026823Y-166801313D01*
X23026823Y-166801313D01*
G37*
G36*
X64301823Y-166801313D02*
G01*
X64462242Y-166849976D01*
X64531922Y-166887221D01*
X64610078Y-166928996D01*
X64739659Y-167035341D01*
X64846004Y-167164922D01*
X64846005Y-167164924D01*
X64925024Y-167312758D01*
X64973687Y-167473177D01*
X64990117Y-167640000D01*
X64973687Y-167806823D01*
X64925024Y-167967242D01*
X64914747Y-167986468D01*
X64846004Y-168115078D01*
X64739659Y-168244659D01*
X64610078Y-168351004D01*
X64610076Y-168351005D01*
X64462242Y-168430024D01*
X64301823Y-168478687D01*
X64176804Y-168491000D01*
X64093196Y-168491000D01*
X63968177Y-168478687D01*
X63807758Y-168430024D01*
X63659924Y-168351005D01*
X63659922Y-168351004D01*
X63530341Y-168244659D01*
X63423996Y-168115078D01*
X63355253Y-167986468D01*
X63344976Y-167967242D01*
X63296313Y-167806823D01*
X63279883Y-167640000D01*
X63296313Y-167473177D01*
X63344976Y-167312758D01*
X63423995Y-167164924D01*
X63423996Y-167164922D01*
X63530341Y-167035341D01*
X63659922Y-166928996D01*
X63738078Y-166887221D01*
X63807758Y-166849976D01*
X63968177Y-166801313D01*
X64093196Y-166789000D01*
X64176804Y-166789000D01*
X64301823Y-166801313D01*
X64301823Y-166801313D01*
G37*
G36*
X45195442Y-164205518D02*
G01*
X45261627Y-164212037D01*
X45431466Y-164263557D01*
X45587991Y-164347222D01*
X45623729Y-164376552D01*
X45725186Y-164459814D01*
X45808448Y-164561271D01*
X45837778Y-164597009D01*
X45921443Y-164753534D01*
X45972963Y-164923373D01*
X45990359Y-165100000D01*
X45972963Y-165276627D01*
X45921443Y-165446466D01*
X45837778Y-165602991D01*
X45808448Y-165638729D01*
X45725186Y-165740186D01*
X45623729Y-165823448D01*
X45587991Y-165852778D01*
X45431466Y-165936443D01*
X45261627Y-165987963D01*
X45195443Y-165994481D01*
X45129260Y-166001000D01*
X45040740Y-166001000D01*
X44974557Y-165994481D01*
X44908373Y-165987963D01*
X44738534Y-165936443D01*
X44582009Y-165852778D01*
X44546271Y-165823448D01*
X44444814Y-165740186D01*
X44361552Y-165638729D01*
X44332222Y-165602991D01*
X44248557Y-165446466D01*
X44197037Y-165276627D01*
X44179641Y-165100000D01*
X44197037Y-164923373D01*
X44248557Y-164753534D01*
X44332222Y-164597009D01*
X44361552Y-164561271D01*
X44444814Y-164459814D01*
X44546271Y-164376552D01*
X44582009Y-164347222D01*
X44738534Y-164263557D01*
X44908373Y-164212037D01*
X44974558Y-164205518D01*
X45040740Y-164199000D01*
X45129260Y-164199000D01*
X45195442Y-164205518D01*
X45195442Y-164205518D01*
G37*
G36*
X43446000Y-166001000D02*
G01*
X41644000Y-166001000D01*
X41644000Y-164199000D01*
X43446000Y-164199000D01*
X43446000Y-166001000D01*
X43446000Y-166001000D01*
G37*
G36*
X57366000Y-165951000D02*
G01*
X55664000Y-165951000D01*
X55664000Y-164249000D01*
X57366000Y-164249000D01*
X57366000Y-165951000D01*
X57366000Y-165951000D01*
G37*
G36*
X64301823Y-164261313D02*
G01*
X64462242Y-164309976D01*
X64531922Y-164347221D01*
X64610078Y-164388996D01*
X64739659Y-164495341D01*
X64846004Y-164624922D01*
X64846005Y-164624924D01*
X64925024Y-164772758D01*
X64973687Y-164933177D01*
X64990117Y-165100000D01*
X64973687Y-165266823D01*
X64925024Y-165427242D01*
X64914747Y-165446468D01*
X64846004Y-165575078D01*
X64739659Y-165704659D01*
X64610078Y-165811004D01*
X64610076Y-165811005D01*
X64462242Y-165890024D01*
X64301823Y-165938687D01*
X64176804Y-165951000D01*
X64093196Y-165951000D01*
X63968177Y-165938687D01*
X63807758Y-165890024D01*
X63659924Y-165811005D01*
X63659922Y-165811004D01*
X63530341Y-165704659D01*
X63423996Y-165575078D01*
X63355253Y-165446468D01*
X63344976Y-165427242D01*
X63296313Y-165266823D01*
X63279883Y-165100000D01*
X63296313Y-164933177D01*
X63344976Y-164772758D01*
X63423995Y-164624924D01*
X63423996Y-164624922D01*
X63530341Y-164495341D01*
X63659922Y-164388996D01*
X63738078Y-164347221D01*
X63807758Y-164309976D01*
X63968177Y-164261313D01*
X64093196Y-164249000D01*
X64176804Y-164249000D01*
X64301823Y-164261313D01*
X64301823Y-164261313D01*
G37*
G36*
X23711000Y-165951000D02*
G01*
X22009000Y-165951000D01*
X22009000Y-164249000D01*
X23711000Y-164249000D01*
X23711000Y-165951000D01*
X23711000Y-165951000D01*
G37*
G36*
X30646823Y-164261313D02*
G01*
X30807242Y-164309976D01*
X30876922Y-164347221D01*
X30955078Y-164388996D01*
X31084659Y-164495341D01*
X31191004Y-164624922D01*
X31191005Y-164624924D01*
X31270024Y-164772758D01*
X31318687Y-164933177D01*
X31335117Y-165100000D01*
X31318687Y-165266823D01*
X31270024Y-165427242D01*
X31259747Y-165446468D01*
X31191004Y-165575078D01*
X31084659Y-165704659D01*
X30955078Y-165811004D01*
X30955076Y-165811005D01*
X30807242Y-165890024D01*
X30646823Y-165938687D01*
X30521804Y-165951000D01*
X30438196Y-165951000D01*
X30313177Y-165938687D01*
X30152758Y-165890024D01*
X30004924Y-165811005D01*
X30004922Y-165811004D01*
X29875341Y-165704659D01*
X29768996Y-165575078D01*
X29700253Y-165446468D01*
X29689976Y-165427242D01*
X29641313Y-165266823D01*
X29624883Y-165100000D01*
X29641313Y-164933177D01*
X29689976Y-164772758D01*
X29768995Y-164624924D01*
X29768996Y-164624922D01*
X29875341Y-164495341D01*
X30004922Y-164388996D01*
X30083078Y-164347221D01*
X30152758Y-164309976D01*
X30313177Y-164261313D01*
X30438196Y-164249000D01*
X30521804Y-164249000D01*
X30646823Y-164261313D01*
X30646823Y-164261313D01*
G37*
M02*
