G04 #@! TF.GenerationSoftware,KiCad,Pcbnew,5.1.4*
G04 #@! TF.CreationDate,2019-11-10T20:11:31+01:00*
G04 #@! TF.ProjectId,AsyncDRAM,4173796e-6344-4524-914d-2e6b69636164,rev?*
G04 #@! TF.SameCoordinates,Original*
G04 #@! TF.FileFunction,Legend,Top*
G04 #@! TF.FilePolarity,Positive*
%FSLAX46Y46*%
G04 Gerber Fmt 4.6, Leading zero omitted, Abs format (unit mm)*
G04 Created by KiCad (PCBNEW 5.1.4) date 2019-11-10 20:11:31*
%MOMM*%
%LPD*%
G04 APERTURE LIST*
%ADD10C,0.150000*%
%ADD11C,0.100000*%
%ADD12C,0.120000*%
G04 APERTURE END LIST*
D10*
X34603266Y-174049266D02*
X34637133Y-174015400D01*
X34704866Y-173981533D01*
X34874200Y-173981533D01*
X34941933Y-174015400D01*
X34975800Y-174049266D01*
X35009666Y-174117000D01*
X35009666Y-174184733D01*
X34975800Y-174286333D01*
X34569400Y-174692733D01*
X35009666Y-174692733D01*
X35653133Y-173981533D02*
X35314466Y-173981533D01*
X35280600Y-174320200D01*
X35314466Y-174286333D01*
X35382200Y-174252466D01*
X35551533Y-174252466D01*
X35619266Y-174286333D01*
X35653133Y-174320200D01*
X35687000Y-174387933D01*
X35687000Y-174557266D01*
X35653133Y-174625000D01*
X35619266Y-174658866D01*
X35551533Y-174692733D01*
X35382200Y-174692733D01*
X35314466Y-174658866D01*
X35280600Y-174625000D01*
X36296600Y-173981533D02*
X36161133Y-173981533D01*
X36093400Y-174015400D01*
X36059533Y-174049266D01*
X35991800Y-174150866D01*
X35957933Y-174286333D01*
X35957933Y-174557266D01*
X35991800Y-174625000D01*
X36025666Y-174658866D01*
X36093400Y-174692733D01*
X36228866Y-174692733D01*
X36296600Y-174658866D01*
X36330466Y-174625000D01*
X36364333Y-174557266D01*
X36364333Y-174387933D01*
X36330466Y-174320200D01*
X36296600Y-174286333D01*
X36228866Y-174252466D01*
X36093400Y-174252466D01*
X36025666Y-174286333D01*
X35991800Y-174320200D01*
X35957933Y-174387933D01*
X37211000Y-174692733D02*
X37211000Y-173981533D01*
X37278733Y-174421800D02*
X37481933Y-174692733D01*
X37481933Y-174218600D02*
X37211000Y-174489533D01*
X38023800Y-174320200D02*
X38125400Y-174354066D01*
X38159266Y-174387933D01*
X38193133Y-174455666D01*
X38193133Y-174557266D01*
X38159266Y-174625000D01*
X38125400Y-174658866D01*
X38057666Y-174692733D01*
X37786733Y-174692733D01*
X37786733Y-173981533D01*
X38023800Y-173981533D01*
X38091533Y-174015400D01*
X38125400Y-174049266D01*
X38159266Y-174117000D01*
X38159266Y-174184733D01*
X38125400Y-174252466D01*
X38091533Y-174286333D01*
X38023800Y-174320200D01*
X37786733Y-174320200D01*
X38430200Y-174218600D02*
X38599533Y-174692733D01*
X38768866Y-174218600D02*
X38599533Y-174692733D01*
X38531800Y-174862066D01*
X38497933Y-174895933D01*
X38430200Y-174929800D01*
X38938200Y-174218600D02*
X39209133Y-174218600D01*
X39039800Y-173981533D02*
X39039800Y-174591133D01*
X39073666Y-174658866D01*
X39141400Y-174692733D01*
X39209133Y-174692733D01*
X39717133Y-174658866D02*
X39649400Y-174692733D01*
X39513933Y-174692733D01*
X39446200Y-174658866D01*
X39412333Y-174591133D01*
X39412333Y-174320200D01*
X39446200Y-174252466D01*
X39513933Y-174218600D01*
X39649400Y-174218600D01*
X39717133Y-174252466D01*
X39751000Y-174320200D01*
X39751000Y-174387933D01*
X39412333Y-174455666D01*
X40699266Y-174692733D02*
X40631533Y-174658866D01*
X40597666Y-174625000D01*
X40563800Y-174557266D01*
X40563800Y-174354066D01*
X40597666Y-174286333D01*
X40631533Y-174252466D01*
X40699266Y-174218600D01*
X40800866Y-174218600D01*
X40868600Y-174252466D01*
X40902466Y-174286333D01*
X40936333Y-174354066D01*
X40936333Y-174557266D01*
X40902466Y-174625000D01*
X40868600Y-174658866D01*
X40800866Y-174692733D01*
X40699266Y-174692733D01*
X41139533Y-174218600D02*
X41410466Y-174218600D01*
X41241133Y-174692733D02*
X41241133Y-174083133D01*
X41275000Y-174015400D01*
X41342733Y-173981533D01*
X41410466Y-173981533D01*
X42494200Y-174692733D02*
X42494200Y-174320200D01*
X42460333Y-174252466D01*
X42392600Y-174218600D01*
X42257133Y-174218600D01*
X42189400Y-174252466D01*
X42494200Y-174658866D02*
X42426466Y-174692733D01*
X42257133Y-174692733D01*
X42189400Y-174658866D01*
X42155533Y-174591133D01*
X42155533Y-174523400D01*
X42189400Y-174455666D01*
X42257133Y-174421800D01*
X42426466Y-174421800D01*
X42494200Y-174387933D01*
X42799000Y-174658866D02*
X42866733Y-174692733D01*
X43002200Y-174692733D01*
X43069933Y-174658866D01*
X43103800Y-174591133D01*
X43103800Y-174557266D01*
X43069933Y-174489533D01*
X43002200Y-174455666D01*
X42900600Y-174455666D01*
X42832866Y-174421800D01*
X42799000Y-174354066D01*
X42799000Y-174320200D01*
X42832866Y-174252466D01*
X42900600Y-174218600D01*
X43002200Y-174218600D01*
X43069933Y-174252466D01*
X43340866Y-174218600D02*
X43510200Y-174692733D01*
X43679533Y-174218600D02*
X43510200Y-174692733D01*
X43442466Y-174862066D01*
X43408600Y-174895933D01*
X43340866Y-174929800D01*
X43950466Y-174218600D02*
X43950466Y-174692733D01*
X43950466Y-174286333D02*
X43984333Y-174252466D01*
X44052066Y-174218600D01*
X44153666Y-174218600D01*
X44221400Y-174252466D01*
X44255266Y-174320200D01*
X44255266Y-174692733D01*
X44898733Y-174658866D02*
X44831000Y-174692733D01*
X44695533Y-174692733D01*
X44627800Y-174658866D01*
X44593933Y-174625000D01*
X44560066Y-174557266D01*
X44560066Y-174354066D01*
X44593933Y-174286333D01*
X44627800Y-174252466D01*
X44695533Y-174218600D01*
X44831000Y-174218600D01*
X44898733Y-174252466D01*
X45203533Y-174692733D02*
X45203533Y-173981533D01*
X45508333Y-174692733D02*
X45508333Y-174320200D01*
X45474466Y-174252466D01*
X45406733Y-174218600D01*
X45305133Y-174218600D01*
X45237400Y-174252466D01*
X45203533Y-174286333D01*
X45847000Y-174692733D02*
X45847000Y-174218600D01*
X45847000Y-174354066D02*
X45880866Y-174286333D01*
X45914733Y-174252466D01*
X45982466Y-174218600D01*
X46050200Y-174218600D01*
X46388866Y-174692733D02*
X46321133Y-174658866D01*
X46287266Y-174625000D01*
X46253400Y-174557266D01*
X46253400Y-174354066D01*
X46287266Y-174286333D01*
X46321133Y-174252466D01*
X46388866Y-174218600D01*
X46490466Y-174218600D01*
X46558200Y-174252466D01*
X46592066Y-174286333D01*
X46625933Y-174354066D01*
X46625933Y-174557266D01*
X46592066Y-174625000D01*
X46558200Y-174658866D01*
X46490466Y-174692733D01*
X46388866Y-174692733D01*
X46930733Y-174218600D02*
X46930733Y-174692733D01*
X46930733Y-174286333D02*
X46964600Y-174252466D01*
X47032333Y-174218600D01*
X47133933Y-174218600D01*
X47201666Y-174252466D01*
X47235533Y-174320200D01*
X47235533Y-174692733D01*
X47675800Y-174692733D02*
X47608066Y-174658866D01*
X47574200Y-174625000D01*
X47540333Y-174557266D01*
X47540333Y-174354066D01*
X47574200Y-174286333D01*
X47608066Y-174252466D01*
X47675800Y-174218600D01*
X47777400Y-174218600D01*
X47845133Y-174252466D01*
X47879000Y-174286333D01*
X47912866Y-174354066D01*
X47912866Y-174557266D01*
X47879000Y-174625000D01*
X47845133Y-174658866D01*
X47777400Y-174692733D01*
X47675800Y-174692733D01*
X48522466Y-174218600D02*
X48522466Y-174692733D01*
X48217666Y-174218600D02*
X48217666Y-174591133D01*
X48251533Y-174658866D01*
X48319266Y-174692733D01*
X48420866Y-174692733D01*
X48488600Y-174658866D01*
X48522466Y-174625000D01*
X48827266Y-174658866D02*
X48895000Y-174692733D01*
X49030466Y-174692733D01*
X49098200Y-174658866D01*
X49132066Y-174591133D01*
X49132066Y-174557266D01*
X49098200Y-174489533D01*
X49030466Y-174455666D01*
X48928866Y-174455666D01*
X48861133Y-174421800D01*
X48827266Y-174354066D01*
X48827266Y-174320200D01*
X48861133Y-174252466D01*
X48928866Y-174218600D01*
X49030466Y-174218600D01*
X49098200Y-174252466D01*
X49978733Y-174692733D02*
X49978733Y-173981533D01*
X50148066Y-173981533D01*
X50249666Y-174015400D01*
X50317400Y-174083133D01*
X50351266Y-174150866D01*
X50385133Y-174286333D01*
X50385133Y-174387933D01*
X50351266Y-174523400D01*
X50317400Y-174591133D01*
X50249666Y-174658866D01*
X50148066Y-174692733D01*
X49978733Y-174692733D01*
X51096333Y-174692733D02*
X50859266Y-174354066D01*
X50689933Y-174692733D02*
X50689933Y-173981533D01*
X50960866Y-173981533D01*
X51028600Y-174015400D01*
X51062466Y-174049266D01*
X51096333Y-174117000D01*
X51096333Y-174218600D01*
X51062466Y-174286333D01*
X51028600Y-174320200D01*
X50960866Y-174354066D01*
X50689933Y-174354066D01*
X51367266Y-174489533D02*
X51705933Y-174489533D01*
X51299533Y-174692733D02*
X51536600Y-173981533D01*
X51773666Y-174692733D01*
X52010733Y-174692733D02*
X52010733Y-173981533D01*
X52247800Y-174489533D01*
X52484866Y-173981533D01*
X52484866Y-174692733D01*
X65459428Y-188091233D02*
X65761809Y-188091233D01*
X65398952Y-188272661D02*
X65610619Y-187637661D01*
X65822285Y-188272661D01*
X66306095Y-187849328D02*
X66306095Y-188272661D01*
X66154904Y-187607423D02*
X66003714Y-188060995D01*
X66396809Y-188060995D01*
X65459428Y-185525833D02*
X65761809Y-185525833D01*
X65398952Y-185707261D02*
X65610619Y-185072261D01*
X65822285Y-185707261D01*
X66336333Y-185072261D02*
X66033952Y-185072261D01*
X66003714Y-185374642D01*
X66033952Y-185344404D01*
X66094428Y-185314166D01*
X66245619Y-185314166D01*
X66306095Y-185344404D01*
X66336333Y-185374642D01*
X66366571Y-185435119D01*
X66366571Y-185586309D01*
X66336333Y-185646785D01*
X66306095Y-185677023D01*
X66245619Y-185707261D01*
X66094428Y-185707261D01*
X66033952Y-185677023D01*
X66003714Y-185646785D01*
X65459428Y-182985833D02*
X65761809Y-182985833D01*
X65398952Y-183167261D02*
X65610619Y-182532261D01*
X65822285Y-183167261D01*
X66306095Y-182532261D02*
X66185142Y-182532261D01*
X66124666Y-182562500D01*
X66094428Y-182592738D01*
X66033952Y-182683452D01*
X66003714Y-182804404D01*
X66003714Y-183046309D01*
X66033952Y-183106785D01*
X66064190Y-183137023D01*
X66124666Y-183167261D01*
X66245619Y-183167261D01*
X66306095Y-183137023D01*
X66336333Y-183106785D01*
X66366571Y-183046309D01*
X66366571Y-182895119D01*
X66336333Y-182834642D01*
X66306095Y-182804404D01*
X66245619Y-182774166D01*
X66124666Y-182774166D01*
X66064190Y-182804404D01*
X66033952Y-182834642D01*
X66003714Y-182895119D01*
X65459428Y-180445833D02*
X65761809Y-180445833D01*
X65398952Y-180627261D02*
X65610619Y-179992261D01*
X65822285Y-180627261D01*
X65973476Y-179992261D02*
X66396809Y-179992261D01*
X66124666Y-180627261D01*
X65459428Y-177931233D02*
X65761809Y-177931233D01*
X65398952Y-178112661D02*
X65610619Y-177477661D01*
X65822285Y-178112661D01*
X66124666Y-177749804D02*
X66064190Y-177719566D01*
X66033952Y-177689328D01*
X66003714Y-177628852D01*
X66003714Y-177598614D01*
X66033952Y-177538138D01*
X66064190Y-177507900D01*
X66124666Y-177477661D01*
X66245619Y-177477661D01*
X66306095Y-177507900D01*
X66336333Y-177538138D01*
X66366571Y-177598614D01*
X66366571Y-177628852D01*
X66336333Y-177689328D01*
X66306095Y-177719566D01*
X66245619Y-177749804D01*
X66124666Y-177749804D01*
X66064190Y-177780042D01*
X66033952Y-177810280D01*
X66003714Y-177870757D01*
X66003714Y-177991709D01*
X66033952Y-178052185D01*
X66064190Y-178082423D01*
X66124666Y-178112661D01*
X66245619Y-178112661D01*
X66306095Y-178082423D01*
X66336333Y-178052185D01*
X66366571Y-177991709D01*
X66366571Y-177870757D01*
X66336333Y-177810280D01*
X66306095Y-177780042D01*
X66245619Y-177749804D01*
X65420119Y-174734800D02*
X66085357Y-174734800D01*
X65692261Y-175039261D02*
X65813214Y-175039261D01*
X65873690Y-175069500D01*
X65934166Y-175129976D01*
X65964404Y-175250928D01*
X65964404Y-175462595D01*
X65934166Y-175583547D01*
X65873690Y-175644023D01*
X65813214Y-175674261D01*
X65692261Y-175674261D01*
X65631785Y-175644023D01*
X65571309Y-175583547D01*
X65541071Y-175462595D01*
X65541071Y-175250928D01*
X65571309Y-175129976D01*
X65631785Y-175069500D01*
X65692261Y-175039261D01*
X66085357Y-174734800D02*
X66659880Y-174734800D01*
X66236547Y-175341642D02*
X66448214Y-175341642D01*
X66538928Y-175674261D02*
X66236547Y-175674261D01*
X66236547Y-175039261D01*
X66538928Y-175039261D01*
X65363876Y-172093200D02*
X65998876Y-172093200D01*
X65877923Y-172972185D02*
X65847685Y-173002423D01*
X65756971Y-173032661D01*
X65696495Y-173032661D01*
X65605780Y-173002423D01*
X65545304Y-172941947D01*
X65515066Y-172881471D01*
X65484828Y-172760519D01*
X65484828Y-172669804D01*
X65515066Y-172548852D01*
X65545304Y-172488376D01*
X65605780Y-172427900D01*
X65696495Y-172397661D01*
X65756971Y-172397661D01*
X65847685Y-172427900D01*
X65877923Y-172458138D01*
X65998876Y-172093200D02*
X66543161Y-172093200D01*
X66119828Y-172851233D02*
X66422209Y-172851233D01*
X66059352Y-173032661D02*
X66271019Y-172397661D01*
X66482685Y-173032661D01*
X66543161Y-172093200D02*
X67147923Y-172093200D01*
X66664114Y-173002423D02*
X66754828Y-173032661D01*
X66906019Y-173032661D01*
X66966495Y-173002423D01*
X66996733Y-172972185D01*
X67026971Y-172911709D01*
X67026971Y-172851233D01*
X66996733Y-172790757D01*
X66966495Y-172760519D01*
X66906019Y-172730280D01*
X66785066Y-172700042D01*
X66724590Y-172669804D01*
X66694352Y-172639566D01*
X66664114Y-172579090D01*
X66664114Y-172518614D01*
X66694352Y-172458138D01*
X66724590Y-172427900D01*
X66785066Y-172397661D01*
X66936257Y-172397661D01*
X67026971Y-172427900D01*
X65279209Y-170492661D02*
X65279209Y-169857661D01*
X65430400Y-169857661D01*
X65521114Y-169887900D01*
X65581590Y-169948376D01*
X65611828Y-170008852D01*
X65642066Y-170129804D01*
X65642066Y-170220519D01*
X65611828Y-170341471D01*
X65581590Y-170401947D01*
X65521114Y-170462423D01*
X65430400Y-170492661D01*
X65279209Y-170492661D01*
X66186352Y-169857661D02*
X66065400Y-169857661D01*
X66004923Y-169887900D01*
X65974685Y-169918138D01*
X65914209Y-170008852D01*
X65883971Y-170129804D01*
X65883971Y-170371709D01*
X65914209Y-170432185D01*
X65944447Y-170462423D01*
X66004923Y-170492661D01*
X66125876Y-170492661D01*
X66186352Y-170462423D01*
X66216590Y-170432185D01*
X66246828Y-170371709D01*
X66246828Y-170220519D01*
X66216590Y-170160042D01*
X66186352Y-170129804D01*
X66125876Y-170099566D01*
X66004923Y-170099566D01*
X65944447Y-170129804D01*
X65914209Y-170160042D01*
X65883971Y-170220519D01*
X65317309Y-167952661D02*
X65317309Y-167317661D01*
X65468500Y-167317661D01*
X65559214Y-167347900D01*
X65619690Y-167408376D01*
X65649928Y-167468852D01*
X65680166Y-167589804D01*
X65680166Y-167680519D01*
X65649928Y-167801471D01*
X65619690Y-167861947D01*
X65559214Y-167922423D01*
X65468500Y-167952661D01*
X65317309Y-167952661D01*
X65891833Y-167317661D02*
X66315166Y-167317661D01*
X66043023Y-167952661D01*
X65810190Y-164782500D02*
X65749714Y-164752261D01*
X65659000Y-164752261D01*
X65568285Y-164782500D01*
X65507809Y-164842976D01*
X65477571Y-164903452D01*
X65447333Y-165024404D01*
X65447333Y-165115119D01*
X65477571Y-165236071D01*
X65507809Y-165296547D01*
X65568285Y-165357023D01*
X65659000Y-165387261D01*
X65719476Y-165387261D01*
X65810190Y-165357023D01*
X65840428Y-165326785D01*
X65840428Y-165115119D01*
X65719476Y-165115119D01*
X66112571Y-165387261D02*
X66112571Y-164752261D01*
X66475428Y-165387261D01*
X66475428Y-164752261D01*
X66777809Y-165387261D02*
X66777809Y-164752261D01*
X66929000Y-164752261D01*
X67019714Y-164782500D01*
X67080190Y-164842976D01*
X67110428Y-164903452D01*
X67140666Y-165024404D01*
X67140666Y-165115119D01*
X67110428Y-165236071D01*
X67080190Y-165296547D01*
X67019714Y-165357023D01*
X66929000Y-165387261D01*
X66777809Y-165387261D01*
X54616047Y-187739261D02*
X54313666Y-187739261D01*
X54283428Y-188041642D01*
X54313666Y-188011404D01*
X54374142Y-187981166D01*
X54525333Y-187981166D01*
X54585809Y-188011404D01*
X54616047Y-188041642D01*
X54646285Y-188102119D01*
X54646285Y-188253309D01*
X54616047Y-188313785D01*
X54585809Y-188344023D01*
X54525333Y-188374261D01*
X54374142Y-188374261D01*
X54313666Y-188344023D01*
X54283428Y-188313785D01*
X54827714Y-187739261D02*
X55039380Y-188374261D01*
X55251047Y-187739261D01*
X54283428Y-185525833D02*
X54585809Y-185525833D01*
X54222952Y-185707261D02*
X54434619Y-185072261D01*
X54646285Y-185707261D01*
X54797476Y-185072261D02*
X55190571Y-185072261D01*
X54978904Y-185314166D01*
X55069619Y-185314166D01*
X55130095Y-185344404D01*
X55160333Y-185374642D01*
X55190571Y-185435119D01*
X55190571Y-185586309D01*
X55160333Y-185646785D01*
X55130095Y-185677023D01*
X55069619Y-185707261D01*
X54888190Y-185707261D01*
X54827714Y-185677023D01*
X54797476Y-185646785D01*
X54283428Y-182985833D02*
X54585809Y-182985833D01*
X54222952Y-183167261D02*
X54434619Y-182532261D01*
X54646285Y-183167261D01*
X54827714Y-182592738D02*
X54857952Y-182562500D01*
X54918428Y-182532261D01*
X55069619Y-182532261D01*
X55130095Y-182562500D01*
X55160333Y-182592738D01*
X55190571Y-182653214D01*
X55190571Y-182713690D01*
X55160333Y-182804404D01*
X54797476Y-183167261D01*
X55190571Y-183167261D01*
X54410428Y-180471233D02*
X54712809Y-180471233D01*
X54349952Y-180652661D02*
X54561619Y-180017661D01*
X54773285Y-180652661D01*
X55317571Y-180652661D02*
X54954714Y-180652661D01*
X55136142Y-180652661D02*
X55136142Y-180017661D01*
X55075666Y-180108376D01*
X55015190Y-180168852D01*
X54954714Y-180199090D01*
X54283428Y-177931233D02*
X54585809Y-177931233D01*
X54222952Y-178112661D02*
X54434619Y-177477661D01*
X54646285Y-178112661D01*
X54978904Y-177477661D02*
X55039380Y-177477661D01*
X55099857Y-177507900D01*
X55130095Y-177538138D01*
X55160333Y-177598614D01*
X55190571Y-177719566D01*
X55190571Y-177870757D01*
X55160333Y-177991709D01*
X55130095Y-178052185D01*
X55099857Y-178082423D01*
X55039380Y-178112661D01*
X54978904Y-178112661D01*
X54918428Y-178082423D01*
X54888190Y-178052185D01*
X54857952Y-177991709D01*
X54827714Y-177870757D01*
X54827714Y-177719566D01*
X54857952Y-177598614D01*
X54888190Y-177538138D01*
X54918428Y-177507900D01*
X54978904Y-177477661D01*
X53463976Y-172093200D02*
X54098976Y-172093200D01*
X53978023Y-173032661D02*
X53766357Y-172730280D01*
X53615166Y-173032661D02*
X53615166Y-172397661D01*
X53857071Y-172397661D01*
X53917547Y-172427900D01*
X53947785Y-172458138D01*
X53978023Y-172518614D01*
X53978023Y-172609328D01*
X53947785Y-172669804D01*
X53917547Y-172700042D01*
X53857071Y-172730280D01*
X53615166Y-172730280D01*
X54098976Y-172093200D02*
X54643261Y-172093200D01*
X54219928Y-172851233D02*
X54522309Y-172851233D01*
X54159452Y-173032661D02*
X54371119Y-172397661D01*
X54582785Y-173032661D01*
X54643261Y-172093200D02*
X55248023Y-172093200D01*
X54764214Y-173002423D02*
X54854928Y-173032661D01*
X55006119Y-173032661D01*
X55066595Y-173002423D01*
X55096833Y-172972185D01*
X55127071Y-172911709D01*
X55127071Y-172851233D01*
X55096833Y-172790757D01*
X55066595Y-172760519D01*
X55006119Y-172730280D01*
X54885166Y-172700042D01*
X54824690Y-172669804D01*
X54794452Y-172639566D01*
X54764214Y-172579090D01*
X54764214Y-172518614D01*
X54794452Y-172458138D01*
X54824690Y-172427900D01*
X54885166Y-172397661D01*
X55036357Y-172397661D01*
X55127071Y-172427900D01*
X54501142Y-169654800D02*
X55226857Y-169654800D01*
X54591857Y-169959261D02*
X54743047Y-170594261D01*
X54864000Y-170140690D01*
X54984952Y-170594261D01*
X55136142Y-169959261D01*
X54268309Y-167800261D02*
X54268309Y-167165261D01*
X54419500Y-167165261D01*
X54510214Y-167195500D01*
X54570690Y-167255976D01*
X54600928Y-167316452D01*
X54631166Y-167437404D01*
X54631166Y-167528119D01*
X54600928Y-167649071D01*
X54570690Y-167709547D01*
X54510214Y-167770023D01*
X54419500Y-167800261D01*
X54268309Y-167800261D01*
X55205690Y-167165261D02*
X54903309Y-167165261D01*
X54873071Y-167467642D01*
X54903309Y-167437404D01*
X54963785Y-167407166D01*
X55114976Y-167407166D01*
X55175452Y-167437404D01*
X55205690Y-167467642D01*
X55235928Y-167528119D01*
X55235928Y-167679309D01*
X55205690Y-167739785D01*
X55175452Y-167770023D01*
X55114976Y-167800261D01*
X54963785Y-167800261D01*
X54903309Y-167770023D01*
X54873071Y-167739785D01*
X54268309Y-165412661D02*
X54268309Y-164777661D01*
X54419500Y-164777661D01*
X54510214Y-164807900D01*
X54570690Y-164868376D01*
X54600928Y-164928852D01*
X54631166Y-165049804D01*
X54631166Y-165140519D01*
X54600928Y-165261471D01*
X54570690Y-165321947D01*
X54510214Y-165382423D01*
X54419500Y-165412661D01*
X54268309Y-165412661D01*
X55175452Y-164989328D02*
X55175452Y-165412661D01*
X55024261Y-164747423D02*
X54873071Y-165200995D01*
X55266166Y-165200995D01*
X31804428Y-188065833D02*
X32106809Y-188065833D01*
X31743952Y-188247261D02*
X31955619Y-187612261D01*
X32167285Y-188247261D01*
X32651095Y-187823928D02*
X32651095Y-188247261D01*
X32499904Y-187582023D02*
X32348714Y-188035595D01*
X32741809Y-188035595D01*
X31804428Y-185678233D02*
X32106809Y-185678233D01*
X31743952Y-185859661D02*
X31955619Y-185224661D01*
X32167285Y-185859661D01*
X32681333Y-185224661D02*
X32378952Y-185224661D01*
X32348714Y-185527042D01*
X32378952Y-185496804D01*
X32439428Y-185466566D01*
X32590619Y-185466566D01*
X32651095Y-185496804D01*
X32681333Y-185527042D01*
X32711571Y-185587519D01*
X32711571Y-185738709D01*
X32681333Y-185799185D01*
X32651095Y-185829423D01*
X32590619Y-185859661D01*
X32439428Y-185859661D01*
X32378952Y-185829423D01*
X32348714Y-185799185D01*
X31804428Y-182985833D02*
X32106809Y-182985833D01*
X31743952Y-183167261D02*
X31955619Y-182532261D01*
X32167285Y-183167261D01*
X32651095Y-182532261D02*
X32530142Y-182532261D01*
X32469666Y-182562500D01*
X32439428Y-182592738D01*
X32378952Y-182683452D01*
X32348714Y-182804404D01*
X32348714Y-183046309D01*
X32378952Y-183106785D01*
X32409190Y-183137023D01*
X32469666Y-183167261D01*
X32590619Y-183167261D01*
X32651095Y-183137023D01*
X32681333Y-183106785D01*
X32711571Y-183046309D01*
X32711571Y-182895119D01*
X32681333Y-182834642D01*
X32651095Y-182804404D01*
X32590619Y-182774166D01*
X32469666Y-182774166D01*
X32409190Y-182804404D01*
X32378952Y-182834642D01*
X32348714Y-182895119D01*
X31804428Y-180445833D02*
X32106809Y-180445833D01*
X31743952Y-180627261D02*
X31955619Y-179992261D01*
X32167285Y-180627261D01*
X32318476Y-179992261D02*
X32741809Y-179992261D01*
X32469666Y-180627261D01*
X31804428Y-177905833D02*
X32106809Y-177905833D01*
X31743952Y-178087261D02*
X31955619Y-177452261D01*
X32167285Y-178087261D01*
X32469666Y-177724404D02*
X32409190Y-177694166D01*
X32378952Y-177663928D01*
X32348714Y-177603452D01*
X32348714Y-177573214D01*
X32378952Y-177512738D01*
X32409190Y-177482500D01*
X32469666Y-177452261D01*
X32590619Y-177452261D01*
X32651095Y-177482500D01*
X32681333Y-177512738D01*
X32711571Y-177573214D01*
X32711571Y-177603452D01*
X32681333Y-177663928D01*
X32651095Y-177694166D01*
X32590619Y-177724404D01*
X32469666Y-177724404D01*
X32409190Y-177754642D01*
X32378952Y-177784880D01*
X32348714Y-177845357D01*
X32348714Y-177966309D01*
X32378952Y-178026785D01*
X32409190Y-178057023D01*
X32469666Y-178087261D01*
X32590619Y-178087261D01*
X32651095Y-178057023D01*
X32681333Y-178026785D01*
X32711571Y-177966309D01*
X32711571Y-177845357D01*
X32681333Y-177784880D01*
X32651095Y-177754642D01*
X32590619Y-177724404D01*
X31765119Y-174760200D02*
X32430357Y-174760200D01*
X32037261Y-175064661D02*
X32158214Y-175064661D01*
X32218690Y-175094900D01*
X32279166Y-175155376D01*
X32309404Y-175276328D01*
X32309404Y-175487995D01*
X32279166Y-175608947D01*
X32218690Y-175669423D01*
X32158214Y-175699661D01*
X32037261Y-175699661D01*
X31976785Y-175669423D01*
X31916309Y-175608947D01*
X31886071Y-175487995D01*
X31886071Y-175276328D01*
X31916309Y-175155376D01*
X31976785Y-175094900D01*
X32037261Y-175064661D01*
X32430357Y-174760200D02*
X33004880Y-174760200D01*
X32581547Y-175367042D02*
X32793214Y-175367042D01*
X32883928Y-175699661D02*
X32581547Y-175699661D01*
X32581547Y-175064661D01*
X32883928Y-175064661D01*
X31746976Y-172067800D02*
X32381976Y-172067800D01*
X32261023Y-172946785D02*
X32230785Y-172977023D01*
X32140071Y-173007261D01*
X32079595Y-173007261D01*
X31988880Y-172977023D01*
X31928404Y-172916547D01*
X31898166Y-172856071D01*
X31867928Y-172735119D01*
X31867928Y-172644404D01*
X31898166Y-172523452D01*
X31928404Y-172462976D01*
X31988880Y-172402500D01*
X32079595Y-172372261D01*
X32140071Y-172372261D01*
X32230785Y-172402500D01*
X32261023Y-172432738D01*
X32381976Y-172067800D02*
X32926261Y-172067800D01*
X32502928Y-172825833D02*
X32805309Y-172825833D01*
X32442452Y-173007261D02*
X32654119Y-172372261D01*
X32865785Y-173007261D01*
X32926261Y-172067800D02*
X33531023Y-172067800D01*
X33047214Y-172977023D02*
X33137928Y-173007261D01*
X33289119Y-173007261D01*
X33349595Y-172977023D01*
X33379833Y-172946785D01*
X33410071Y-172886309D01*
X33410071Y-172825833D01*
X33379833Y-172765357D01*
X33349595Y-172735119D01*
X33289119Y-172704880D01*
X33168166Y-172674642D01*
X33107690Y-172644404D01*
X33077452Y-172614166D01*
X33047214Y-172553690D01*
X33047214Y-172493214D01*
X33077452Y-172432738D01*
X33107690Y-172402500D01*
X33168166Y-172372261D01*
X33319357Y-172372261D01*
X33410071Y-172402500D01*
X31789309Y-170467261D02*
X31789309Y-169832261D01*
X31940500Y-169832261D01*
X32031214Y-169862500D01*
X32091690Y-169922976D01*
X32121928Y-169983452D01*
X32152166Y-170104404D01*
X32152166Y-170195119D01*
X32121928Y-170316071D01*
X32091690Y-170376547D01*
X32031214Y-170437023D01*
X31940500Y-170467261D01*
X31789309Y-170467261D01*
X32394071Y-169892738D02*
X32424309Y-169862500D01*
X32484785Y-169832261D01*
X32635976Y-169832261D01*
X32696452Y-169862500D01*
X32726690Y-169892738D01*
X32756928Y-169953214D01*
X32756928Y-170013690D01*
X32726690Y-170104404D01*
X32363833Y-170467261D01*
X32756928Y-170467261D01*
X31789309Y-167927261D02*
X31789309Y-167292261D01*
X31940500Y-167292261D01*
X32031214Y-167322500D01*
X32091690Y-167382976D01*
X32121928Y-167443452D01*
X32152166Y-167564404D01*
X32152166Y-167655119D01*
X32121928Y-167776071D01*
X32091690Y-167836547D01*
X32031214Y-167897023D01*
X31940500Y-167927261D01*
X31789309Y-167927261D01*
X32363833Y-167292261D02*
X32756928Y-167292261D01*
X32545261Y-167534166D01*
X32635976Y-167534166D01*
X32696452Y-167564404D01*
X32726690Y-167594642D01*
X32756928Y-167655119D01*
X32756928Y-167806309D01*
X32726690Y-167866785D01*
X32696452Y-167897023D01*
X32635976Y-167927261D01*
X32454547Y-167927261D01*
X32394071Y-167897023D01*
X32363833Y-167866785D01*
X32155190Y-164807900D02*
X32094714Y-164777661D01*
X32004000Y-164777661D01*
X31913285Y-164807900D01*
X31852809Y-164868376D01*
X31822571Y-164928852D01*
X31792333Y-165049804D01*
X31792333Y-165140519D01*
X31822571Y-165261471D01*
X31852809Y-165321947D01*
X31913285Y-165382423D01*
X32004000Y-165412661D01*
X32064476Y-165412661D01*
X32155190Y-165382423D01*
X32185428Y-165352185D01*
X32185428Y-165140519D01*
X32064476Y-165140519D01*
X32457571Y-165412661D02*
X32457571Y-164777661D01*
X32820428Y-165412661D01*
X32820428Y-164777661D01*
X33122809Y-165412661D02*
X33122809Y-164777661D01*
X33274000Y-164777661D01*
X33364714Y-164807900D01*
X33425190Y-164868376D01*
X33455428Y-164928852D01*
X33485666Y-165049804D01*
X33485666Y-165140519D01*
X33455428Y-165261471D01*
X33425190Y-165321947D01*
X33364714Y-165382423D01*
X33274000Y-165412661D01*
X33122809Y-165412661D01*
X20961047Y-187612261D02*
X20658666Y-187612261D01*
X20628428Y-187914642D01*
X20658666Y-187884404D01*
X20719142Y-187854166D01*
X20870333Y-187854166D01*
X20930809Y-187884404D01*
X20961047Y-187914642D01*
X20991285Y-187975119D01*
X20991285Y-188126309D01*
X20961047Y-188186785D01*
X20930809Y-188217023D01*
X20870333Y-188247261D01*
X20719142Y-188247261D01*
X20658666Y-188217023D01*
X20628428Y-188186785D01*
X21172714Y-187612261D02*
X21384380Y-188247261D01*
X21596047Y-187612261D01*
X20628428Y-185525833D02*
X20930809Y-185525833D01*
X20567952Y-185707261D02*
X20779619Y-185072261D01*
X20991285Y-185707261D01*
X21142476Y-185072261D02*
X21535571Y-185072261D01*
X21323904Y-185314166D01*
X21414619Y-185314166D01*
X21475095Y-185344404D01*
X21505333Y-185374642D01*
X21535571Y-185435119D01*
X21535571Y-185586309D01*
X21505333Y-185646785D01*
X21475095Y-185677023D01*
X21414619Y-185707261D01*
X21233190Y-185707261D01*
X21172714Y-185677023D01*
X21142476Y-185646785D01*
X20628428Y-183011233D02*
X20930809Y-183011233D01*
X20567952Y-183192661D02*
X20779619Y-182557661D01*
X20991285Y-183192661D01*
X21172714Y-182618138D02*
X21202952Y-182587900D01*
X21263428Y-182557661D01*
X21414619Y-182557661D01*
X21475095Y-182587900D01*
X21505333Y-182618138D01*
X21535571Y-182678614D01*
X21535571Y-182739090D01*
X21505333Y-182829804D01*
X21142476Y-183192661D01*
X21535571Y-183192661D01*
X20628428Y-180471233D02*
X20930809Y-180471233D01*
X20567952Y-180652661D02*
X20779619Y-180017661D01*
X20991285Y-180652661D01*
X21535571Y-180652661D02*
X21172714Y-180652661D01*
X21354142Y-180652661D02*
X21354142Y-180017661D01*
X21293666Y-180108376D01*
X21233190Y-180168852D01*
X21172714Y-180199090D01*
X20628428Y-177905833D02*
X20930809Y-177905833D01*
X20567952Y-178087261D02*
X20779619Y-177452261D01*
X20991285Y-178087261D01*
X21323904Y-177452261D02*
X21384380Y-177452261D01*
X21444857Y-177482500D01*
X21475095Y-177512738D01*
X21505333Y-177573214D01*
X21535571Y-177694166D01*
X21535571Y-177845357D01*
X21505333Y-177966309D01*
X21475095Y-178026785D01*
X21444857Y-178057023D01*
X21384380Y-178087261D01*
X21323904Y-178087261D01*
X21263428Y-178057023D01*
X21233190Y-178026785D01*
X21202952Y-177966309D01*
X21172714Y-177845357D01*
X21172714Y-177694166D01*
X21202952Y-177573214D01*
X21233190Y-177512738D01*
X21263428Y-177482500D01*
X21323904Y-177452261D01*
X19808976Y-172194800D02*
X20443976Y-172194800D01*
X20323023Y-173134261D02*
X20111357Y-172831880D01*
X19960166Y-173134261D02*
X19960166Y-172499261D01*
X20202071Y-172499261D01*
X20262547Y-172529500D01*
X20292785Y-172559738D01*
X20323023Y-172620214D01*
X20323023Y-172710928D01*
X20292785Y-172771404D01*
X20262547Y-172801642D01*
X20202071Y-172831880D01*
X19960166Y-172831880D01*
X20443976Y-172194800D02*
X20988261Y-172194800D01*
X20564928Y-172952833D02*
X20867309Y-172952833D01*
X20504452Y-173134261D02*
X20716119Y-172499261D01*
X20927785Y-173134261D01*
X20988261Y-172194800D02*
X21593023Y-172194800D01*
X21109214Y-173104023D02*
X21199928Y-173134261D01*
X21351119Y-173134261D01*
X21411595Y-173104023D01*
X21441833Y-173073785D01*
X21472071Y-173013309D01*
X21472071Y-172952833D01*
X21441833Y-172892357D01*
X21411595Y-172862119D01*
X21351119Y-172831880D01*
X21230166Y-172801642D01*
X21169690Y-172771404D01*
X21139452Y-172741166D01*
X21109214Y-172680690D01*
X21109214Y-172620214D01*
X21139452Y-172559738D01*
X21169690Y-172529500D01*
X21230166Y-172499261D01*
X21381357Y-172499261D01*
X21472071Y-172529500D01*
X20846142Y-169654800D02*
X21571857Y-169654800D01*
X20936857Y-169959261D02*
X21088047Y-170594261D01*
X21209000Y-170140690D01*
X21329952Y-170594261D01*
X21481142Y-169959261D01*
X20740309Y-168054261D02*
X20740309Y-167419261D01*
X20891500Y-167419261D01*
X20982214Y-167449500D01*
X21042690Y-167509976D01*
X21072928Y-167570452D01*
X21103166Y-167691404D01*
X21103166Y-167782119D01*
X21072928Y-167903071D01*
X21042690Y-167963547D01*
X20982214Y-168024023D01*
X20891500Y-168054261D01*
X20740309Y-168054261D01*
X21707928Y-168054261D02*
X21345071Y-168054261D01*
X21526500Y-168054261D02*
X21526500Y-167419261D01*
X21466023Y-167509976D01*
X21405547Y-167570452D01*
X21345071Y-167600690D01*
X20613309Y-165412661D02*
X20613309Y-164777661D01*
X20764500Y-164777661D01*
X20855214Y-164807900D01*
X20915690Y-164868376D01*
X20945928Y-164928852D01*
X20976166Y-165049804D01*
X20976166Y-165140519D01*
X20945928Y-165261471D01*
X20915690Y-165321947D01*
X20855214Y-165382423D01*
X20764500Y-165412661D01*
X20613309Y-165412661D01*
X21369261Y-164777661D02*
X21429738Y-164777661D01*
X21490214Y-164807900D01*
X21520452Y-164838138D01*
X21550690Y-164898614D01*
X21580928Y-165019566D01*
X21580928Y-165170757D01*
X21550690Y-165291709D01*
X21520452Y-165352185D01*
X21490214Y-165382423D01*
X21429738Y-165412661D01*
X21369261Y-165412661D01*
X21308785Y-165382423D01*
X21278547Y-165352185D01*
X21248309Y-165291709D01*
X21218071Y-165170757D01*
X21218071Y-165019566D01*
X21248309Y-164898614D01*
X21278547Y-164838138D01*
X21308785Y-164807900D01*
X21369261Y-164777661D01*
X60119985Y-181925685D02*
X60718700Y-181925685D01*
X60838442Y-181965600D01*
X60918271Y-182045428D01*
X60958185Y-182165171D01*
X60958185Y-182245000D01*
X60958185Y-181127400D02*
X60958185Y-181526542D01*
X60119985Y-181526542D01*
X60878357Y-180369028D02*
X60918271Y-180408942D01*
X60958185Y-180528685D01*
X60958185Y-180608514D01*
X60918271Y-180728257D01*
X60838442Y-180808085D01*
X60758614Y-180848000D01*
X60598957Y-180887914D01*
X60479214Y-180887914D01*
X60319557Y-180848000D01*
X60239728Y-180808085D01*
X60159900Y-180728257D01*
X60119985Y-180608514D01*
X60119985Y-180528685D01*
X60159900Y-180408942D01*
X60199814Y-180369028D01*
X60119985Y-179770314D02*
X60718700Y-179770314D01*
X60838442Y-179810228D01*
X60918271Y-179890057D01*
X60958185Y-180009800D01*
X60958185Y-180089628D01*
X60958185Y-178972028D02*
X60958185Y-179371171D01*
X60119985Y-179371171D01*
X60878357Y-178213657D02*
X60918271Y-178253571D01*
X60958185Y-178373314D01*
X60958185Y-178453142D01*
X60918271Y-178572885D01*
X60838442Y-178652714D01*
X60758614Y-178692628D01*
X60598957Y-178732542D01*
X60479214Y-178732542D01*
X60319557Y-178692628D01*
X60239728Y-178652714D01*
X60159900Y-178572885D01*
X60119985Y-178453142D01*
X60119985Y-178373314D01*
X60159900Y-178253571D01*
X60199814Y-178213657D01*
X60119985Y-177614942D02*
X60718700Y-177614942D01*
X60838442Y-177654857D01*
X60918271Y-177734685D01*
X60958185Y-177854428D01*
X60958185Y-177934257D01*
X60958185Y-176816657D02*
X60958185Y-177215800D01*
X60119985Y-177215800D01*
X60878357Y-176058285D02*
X60918271Y-176098200D01*
X60958185Y-176217942D01*
X60958185Y-176297771D01*
X60918271Y-176417514D01*
X60838442Y-176497342D01*
X60758614Y-176537257D01*
X60598957Y-176577171D01*
X60479214Y-176577171D01*
X60319557Y-176537257D01*
X60239728Y-176497342D01*
X60159900Y-176417514D01*
X60119985Y-176297771D01*
X60119985Y-176217942D01*
X60159900Y-176098200D01*
X60199814Y-176058285D01*
X60119985Y-175459571D02*
X60718700Y-175459571D01*
X60838442Y-175499485D01*
X60918271Y-175579314D01*
X60958185Y-175699057D01*
X60958185Y-175778885D01*
X60958185Y-174661285D02*
X60958185Y-175060428D01*
X60119985Y-175060428D01*
X60878357Y-173902914D02*
X60918271Y-173942828D01*
X60958185Y-174062571D01*
X60958185Y-174142400D01*
X60918271Y-174262142D01*
X60838442Y-174341971D01*
X60758614Y-174381885D01*
X60598957Y-174421800D01*
X60479214Y-174421800D01*
X60319557Y-174381885D01*
X60239728Y-174341971D01*
X60159900Y-174262142D01*
X60119985Y-174142400D01*
X60119985Y-174062571D01*
X60159900Y-173942828D01*
X60199814Y-173902914D01*
X41368738Y-192184261D02*
X41368738Y-191821404D01*
X41368738Y-192002833D02*
X42003738Y-192002833D01*
X41913023Y-191942357D01*
X41852547Y-191881880D01*
X41822309Y-191821404D01*
X42003738Y-192577357D02*
X42003738Y-192637833D01*
X41973500Y-192698309D01*
X41943261Y-192728547D01*
X41882785Y-192758785D01*
X41761833Y-192789023D01*
X41610642Y-192789023D01*
X41489690Y-192758785D01*
X41429214Y-192728547D01*
X41398976Y-192698309D01*
X41368738Y-192637833D01*
X41368738Y-192577357D01*
X41398976Y-192516880D01*
X41429214Y-192486642D01*
X41489690Y-192456404D01*
X41610642Y-192426166D01*
X41761833Y-192426166D01*
X41882785Y-192456404D01*
X41943261Y-192486642D01*
X41973500Y-192516880D01*
X42003738Y-192577357D01*
X42003738Y-193182119D02*
X42003738Y-193242595D01*
X41973500Y-193303071D01*
X41943261Y-193333309D01*
X41882785Y-193363547D01*
X41761833Y-193393785D01*
X41610642Y-193393785D01*
X41489690Y-193363547D01*
X41429214Y-193333309D01*
X41398976Y-193303071D01*
X41368738Y-193242595D01*
X41368738Y-193182119D01*
X41398976Y-193121642D01*
X41429214Y-193091404D01*
X41489690Y-193061166D01*
X41610642Y-193030928D01*
X41761833Y-193030928D01*
X41882785Y-193061166D01*
X41943261Y-193091404D01*
X41973500Y-193121642D01*
X42003738Y-193182119D01*
X41792071Y-193665928D02*
X41368738Y-193665928D01*
X41731595Y-193665928D02*
X41761833Y-193696166D01*
X41792071Y-193756642D01*
X41792071Y-193847357D01*
X41761833Y-193907833D01*
X41701357Y-193938071D01*
X41368738Y-193938071D01*
X41701357Y-194452119D02*
X41701357Y-194240452D01*
X41368738Y-194240452D02*
X42003738Y-194240452D01*
X42003738Y-194542833D01*
X24680333Y-190617928D02*
X24680333Y-191041261D01*
X24529142Y-190376023D02*
X24377952Y-190829595D01*
X24771047Y-190829595D01*
X24952476Y-190406261D02*
X25375809Y-190406261D01*
X25103666Y-191041261D01*
X25738666Y-190406261D02*
X25799142Y-190406261D01*
X25859619Y-190436500D01*
X25889857Y-190466738D01*
X25920095Y-190527214D01*
X25950333Y-190648166D01*
X25950333Y-190799357D01*
X25920095Y-190920309D01*
X25889857Y-190980785D01*
X25859619Y-191011023D01*
X25799142Y-191041261D01*
X25738666Y-191041261D01*
X25678190Y-191011023D01*
X25647952Y-190980785D01*
X25617714Y-190920309D01*
X25587476Y-190799357D01*
X25587476Y-190648166D01*
X25617714Y-190527214D01*
X25647952Y-190466738D01*
X25678190Y-190436500D01*
X25738666Y-190406261D01*
X26192238Y-191041261D02*
X26343428Y-191041261D01*
X26343428Y-190920309D01*
X26282952Y-190890071D01*
X26222476Y-190829595D01*
X26192238Y-190738880D01*
X26192238Y-190587690D01*
X26222476Y-190496976D01*
X26282952Y-190436500D01*
X26373666Y-190406261D01*
X26494619Y-190406261D01*
X26585333Y-190436500D01*
X26645809Y-190496976D01*
X26676047Y-190587690D01*
X26676047Y-190738880D01*
X26645809Y-190829595D01*
X26585333Y-190890071D01*
X26524857Y-190920309D01*
X26524857Y-191041261D01*
X26676047Y-191041261D01*
X17559261Y-183802261D02*
X17196404Y-183802261D01*
X17377833Y-183802261D02*
X17377833Y-183167261D01*
X17317357Y-183257976D01*
X17256880Y-183318452D01*
X17196404Y-183348690D01*
X17952357Y-183167261D02*
X18012833Y-183167261D01*
X18073309Y-183197500D01*
X18103547Y-183227738D01*
X18133785Y-183288214D01*
X18164023Y-183409166D01*
X18164023Y-183560357D01*
X18133785Y-183681309D01*
X18103547Y-183741785D01*
X18073309Y-183772023D01*
X18012833Y-183802261D01*
X17952357Y-183802261D01*
X17891880Y-183772023D01*
X17861642Y-183741785D01*
X17831404Y-183681309D01*
X17801166Y-183560357D01*
X17801166Y-183409166D01*
X17831404Y-183288214D01*
X17861642Y-183227738D01*
X17891880Y-183197500D01*
X17952357Y-183167261D01*
X18557119Y-183167261D02*
X18617595Y-183167261D01*
X18678071Y-183197500D01*
X18708309Y-183227738D01*
X18738547Y-183288214D01*
X18768785Y-183409166D01*
X18768785Y-183560357D01*
X18738547Y-183681309D01*
X18708309Y-183741785D01*
X18678071Y-183772023D01*
X18617595Y-183802261D01*
X18557119Y-183802261D01*
X18496642Y-183772023D01*
X18466404Y-183741785D01*
X18436166Y-183681309D01*
X18405928Y-183560357D01*
X18405928Y-183409166D01*
X18436166Y-183288214D01*
X18466404Y-183227738D01*
X18496642Y-183197500D01*
X18557119Y-183167261D01*
X19040928Y-183378928D02*
X19040928Y-183802261D01*
X19040928Y-183439404D02*
X19071166Y-183409166D01*
X19131642Y-183378928D01*
X19222357Y-183378928D01*
X19282833Y-183409166D01*
X19313071Y-183469642D01*
X19313071Y-183802261D01*
X19827119Y-183469642D02*
X19615452Y-183469642D01*
X19615452Y-183802261D02*
X19615452Y-183167261D01*
X19917833Y-183167261D01*
X66454261Y-166530261D02*
X66091404Y-166530261D01*
X66272833Y-166530261D02*
X66272833Y-165895261D01*
X66212357Y-165985976D01*
X66151880Y-166046452D01*
X66091404Y-166076690D01*
X66847357Y-165895261D02*
X66907833Y-165895261D01*
X66968309Y-165925500D01*
X66998547Y-165955738D01*
X67028785Y-166016214D01*
X67059023Y-166137166D01*
X67059023Y-166288357D01*
X67028785Y-166409309D01*
X66998547Y-166469785D01*
X66968309Y-166500023D01*
X66907833Y-166530261D01*
X66847357Y-166530261D01*
X66786880Y-166500023D01*
X66756642Y-166469785D01*
X66726404Y-166409309D01*
X66696166Y-166288357D01*
X66696166Y-166137166D01*
X66726404Y-166016214D01*
X66756642Y-165955738D01*
X66786880Y-165925500D01*
X66847357Y-165895261D01*
X67452119Y-165895261D02*
X67512595Y-165895261D01*
X67573071Y-165925500D01*
X67603309Y-165955738D01*
X67633547Y-166016214D01*
X67663785Y-166137166D01*
X67663785Y-166288357D01*
X67633547Y-166409309D01*
X67603309Y-166469785D01*
X67573071Y-166500023D01*
X67512595Y-166530261D01*
X67452119Y-166530261D01*
X67391642Y-166500023D01*
X67361404Y-166469785D01*
X67331166Y-166409309D01*
X67300928Y-166288357D01*
X67300928Y-166137166D01*
X67331166Y-166016214D01*
X67361404Y-165955738D01*
X67391642Y-165925500D01*
X67452119Y-165895261D01*
X67935928Y-166106928D02*
X67935928Y-166530261D01*
X67935928Y-166167404D02*
X67966166Y-166137166D01*
X68026642Y-166106928D01*
X68117357Y-166106928D01*
X68177833Y-166137166D01*
X68208071Y-166197642D01*
X68208071Y-166530261D01*
X68722119Y-166197642D02*
X68510452Y-166197642D01*
X68510452Y-166530261D02*
X68510452Y-165895261D01*
X68812833Y-165895261D01*
X67458166Y-188217628D02*
X67458166Y-188640961D01*
X67306976Y-187975723D02*
X67155785Y-188429295D01*
X67548880Y-188429295D01*
X67730309Y-188005961D02*
X68153642Y-188005961D01*
X67881500Y-188640961D01*
X68667690Y-188217628D02*
X68667690Y-188640961D01*
X68395547Y-188217628D02*
X68395547Y-188550247D01*
X68425785Y-188610723D01*
X68486261Y-188640961D01*
X68576976Y-188640961D01*
X68637452Y-188610723D01*
X68667690Y-188580485D01*
X69181738Y-188308342D02*
X68970071Y-188308342D01*
X68970071Y-188640961D02*
X68970071Y-188005961D01*
X69272452Y-188005961D01*
X17763066Y-163338328D02*
X17763066Y-163761661D01*
X17611876Y-163096423D02*
X17460685Y-163549995D01*
X17853780Y-163549995D01*
X18035209Y-163126661D02*
X18458542Y-163126661D01*
X18186400Y-163761661D01*
X18972590Y-163338328D02*
X18972590Y-163761661D01*
X18700447Y-163338328D02*
X18700447Y-163670947D01*
X18730685Y-163731423D01*
X18791161Y-163761661D01*
X18881876Y-163761661D01*
X18942352Y-163731423D01*
X18972590Y-163701185D01*
X19486638Y-163429042D02*
X19274971Y-163429042D01*
X19274971Y-163761661D02*
X19274971Y-163126661D01*
X19577352Y-163126661D01*
D11*
G36*
X41275000Y-168910000D02*
G01*
X40005000Y-168910000D01*
X40005000Y-166370000D01*
X41275000Y-166370000D01*
X41275000Y-168910000D01*
G37*
X41275000Y-168910000D02*
X40005000Y-168910000D01*
X40005000Y-166370000D01*
X41275000Y-166370000D01*
X41275000Y-168910000D01*
D10*
X37457742Y-164640985D02*
X37457742Y-165319528D01*
X37497657Y-165399357D01*
X37537571Y-165439271D01*
X37617400Y-165479185D01*
X37777057Y-165479185D01*
X37856885Y-165439271D01*
X37896800Y-165399357D01*
X37936714Y-165319528D01*
X37936714Y-164640985D01*
X38335857Y-165479185D02*
X38335857Y-164640985D01*
X38655171Y-164640985D01*
X38735000Y-164680900D01*
X38774914Y-164720814D01*
X38814828Y-164800642D01*
X38814828Y-164920385D01*
X38774914Y-165000214D01*
X38735000Y-165040128D01*
X38655171Y-165080042D01*
X38335857Y-165080042D01*
X39174057Y-165479185D02*
X39174057Y-164640985D01*
X39373628Y-164640985D01*
X39493371Y-164680900D01*
X39573200Y-164760728D01*
X39613114Y-164840557D01*
X39653028Y-165000214D01*
X39653028Y-165119957D01*
X39613114Y-165279614D01*
X39573200Y-165359442D01*
X39493371Y-165439271D01*
X39373628Y-165479185D01*
X39174057Y-165479185D01*
X40012257Y-165479185D02*
X40012257Y-164640985D01*
X47621371Y-169680000D02*
X47541542Y-169632380D01*
X47421800Y-169632380D01*
X47302057Y-169680000D01*
X47222228Y-169775238D01*
X47182314Y-169870476D01*
X47142400Y-170060952D01*
X47142400Y-170203809D01*
X47182314Y-170394285D01*
X47222228Y-170489523D01*
X47302057Y-170584761D01*
X47421800Y-170632380D01*
X47501628Y-170632380D01*
X47621371Y-170584761D01*
X47661285Y-170537142D01*
X47661285Y-170203809D01*
X47501628Y-170203809D01*
X48020514Y-170632380D02*
X48020514Y-169632380D01*
X48499485Y-170632380D01*
X48499485Y-169632380D01*
X48898628Y-170632380D02*
X48898628Y-169632380D01*
X49098200Y-169632380D01*
X49217942Y-169680000D01*
X49297771Y-169775238D01*
X49337685Y-169870476D01*
X49377600Y-170060952D01*
X49377600Y-170203809D01*
X49337685Y-170394285D01*
X49297771Y-170489523D01*
X49217942Y-170584761D01*
X49098200Y-170632380D01*
X48898628Y-170632380D01*
X47182314Y-165159871D02*
X47820942Y-165159871D01*
X47501628Y-165479185D02*
X47501628Y-164840557D01*
X48619228Y-164640985D02*
X48220085Y-164640985D01*
X48180171Y-165040128D01*
X48220085Y-165000214D01*
X48299914Y-164960300D01*
X48499485Y-164960300D01*
X48579314Y-165000214D01*
X48619228Y-165040128D01*
X48659142Y-165119957D01*
X48659142Y-165319528D01*
X48619228Y-165399357D01*
X48579314Y-165439271D01*
X48499485Y-165479185D01*
X48299914Y-165479185D01*
X48220085Y-165439271D01*
X48180171Y-165399357D01*
X48898628Y-164640985D02*
X49178028Y-165479185D01*
X49457428Y-164640985D01*
X19242314Y-190559871D02*
X19880942Y-190559871D01*
X19561628Y-190879185D02*
X19561628Y-190240557D01*
X20679228Y-190040985D02*
X20280085Y-190040985D01*
X20240171Y-190440128D01*
X20280085Y-190400214D01*
X20359914Y-190360300D01*
X20559485Y-190360300D01*
X20639314Y-190400214D01*
X20679228Y-190440128D01*
X20719142Y-190519957D01*
X20719142Y-190719528D01*
X20679228Y-190799357D01*
X20639314Y-190839271D01*
X20559485Y-190879185D01*
X20359914Y-190879185D01*
X20280085Y-190839271D01*
X20240171Y-190799357D01*
X20958628Y-190040985D02*
X21238028Y-190879185D01*
X21517428Y-190040985D01*
X16506371Y-190080900D02*
X16426542Y-190040985D01*
X16306800Y-190040985D01*
X16187057Y-190080900D01*
X16107228Y-190160728D01*
X16067314Y-190240557D01*
X16027400Y-190400214D01*
X16027400Y-190519957D01*
X16067314Y-190679614D01*
X16107228Y-190759442D01*
X16187057Y-190839271D01*
X16306800Y-190879185D01*
X16386628Y-190879185D01*
X16506371Y-190839271D01*
X16546285Y-190799357D01*
X16546285Y-190519957D01*
X16386628Y-190519957D01*
X16905514Y-190879185D02*
X16905514Y-190040985D01*
X17384485Y-190879185D01*
X17384485Y-190040985D01*
X17783628Y-190879185D02*
X17783628Y-190040985D01*
X17983200Y-190040985D01*
X18102942Y-190080900D01*
X18182771Y-190160728D01*
X18222685Y-190240557D01*
X18262600Y-190400214D01*
X18262600Y-190519957D01*
X18222685Y-190679614D01*
X18182771Y-190759442D01*
X18102942Y-190839271D01*
X17983200Y-190879185D01*
X17783628Y-190879185D01*
X64630300Y-190799357D02*
X64590385Y-190839271D01*
X64470642Y-190879185D01*
X64390814Y-190879185D01*
X64271071Y-190839271D01*
X64191242Y-190759442D01*
X64151328Y-190679614D01*
X64111414Y-190519957D01*
X64111414Y-190400214D01*
X64151328Y-190240557D01*
X64191242Y-190160728D01*
X64271071Y-190080900D01*
X64390814Y-190040985D01*
X64470642Y-190040985D01*
X64590385Y-190080900D01*
X64630300Y-190120814D01*
X64949614Y-190839271D02*
X65069357Y-190879185D01*
X65268928Y-190879185D01*
X65348757Y-190839271D01*
X65388671Y-190799357D01*
X65428585Y-190719528D01*
X65428585Y-190639700D01*
X65388671Y-190559871D01*
X65348757Y-190519957D01*
X65268928Y-190480042D01*
X65109271Y-190440128D01*
X65029442Y-190400214D01*
X64989528Y-190360300D01*
X64949614Y-190280471D01*
X64949614Y-190200642D01*
X64989528Y-190120814D01*
X65029442Y-190080900D01*
X65109271Y-190040985D01*
X65308842Y-190040985D01*
X65428585Y-190080900D01*
X60517314Y-190839271D02*
X60637057Y-190879185D01*
X60836628Y-190879185D01*
X60916457Y-190839271D01*
X60956371Y-190799357D01*
X60996285Y-190719528D01*
X60996285Y-190639700D01*
X60956371Y-190559871D01*
X60916457Y-190519957D01*
X60836628Y-190480042D01*
X60676971Y-190440128D01*
X60597142Y-190400214D01*
X60557228Y-190360300D01*
X60517314Y-190280471D01*
X60517314Y-190200642D01*
X60557228Y-190120814D01*
X60597142Y-190080900D01*
X60676971Y-190040985D01*
X60876542Y-190040985D01*
X60996285Y-190080900D01*
X61834485Y-190799357D02*
X61794571Y-190839271D01*
X61674828Y-190879185D01*
X61595000Y-190879185D01*
X61475257Y-190839271D01*
X61395428Y-190759442D01*
X61355514Y-190679614D01*
X61315600Y-190519957D01*
X61315600Y-190400214D01*
X61355514Y-190240557D01*
X61395428Y-190160728D01*
X61475257Y-190080900D01*
X61595000Y-190040985D01*
X61674828Y-190040985D01*
X61794571Y-190080900D01*
X61834485Y-190120814D01*
X62193714Y-190879185D02*
X62193714Y-190040985D01*
X62672685Y-190879185D02*
X62313457Y-190400214D01*
X62672685Y-190040985D02*
X62193714Y-190519957D01*
X58576028Y-190879185D02*
X58576028Y-190040985D01*
X58855428Y-190639700D01*
X59134828Y-190040985D01*
X59134828Y-190879185D01*
X59533971Y-190879185D02*
X59533971Y-190040985D01*
X55796542Y-190879185D02*
X55796542Y-190040985D01*
X56075942Y-190639700D01*
X56355342Y-190040985D01*
X56355342Y-190879185D01*
X56914142Y-190040985D02*
X57073800Y-190040985D01*
X57153628Y-190080900D01*
X57233457Y-190160728D01*
X57273371Y-190320385D01*
X57273371Y-190599785D01*
X57233457Y-190759442D01*
X57153628Y-190839271D01*
X57073800Y-190879185D01*
X56914142Y-190879185D01*
X56834314Y-190839271D01*
X56754485Y-190759442D01*
X56714571Y-190599785D01*
X56714571Y-190320385D01*
X56754485Y-190160728D01*
X56834314Y-190080900D01*
X56914142Y-190040985D01*
X51168300Y-191514185D02*
X50888900Y-191115042D01*
X50689328Y-191514185D02*
X50689328Y-190675985D01*
X51008642Y-190675985D01*
X51088471Y-190715900D01*
X51128385Y-190755814D01*
X51168300Y-190835642D01*
X51168300Y-190955385D01*
X51128385Y-191035214D01*
X51088471Y-191075128D01*
X51008642Y-191115042D01*
X50689328Y-191115042D01*
X51447700Y-190675985D02*
X52006500Y-191514185D01*
X52006500Y-190675985D02*
X51447700Y-191514185D01*
X48065871Y-190675985D02*
X48544842Y-190675985D01*
X48305357Y-191514185D02*
X48305357Y-190675985D01*
X48744414Y-190675985D02*
X49303214Y-191514185D01*
X49303214Y-190675985D02*
X48744414Y-191514185D01*
D12*
X29320000Y-163770000D02*
X27670000Y-163770000D01*
X29320000Y-189290000D02*
X29320000Y-163770000D01*
X24020000Y-189290000D02*
X29320000Y-189290000D01*
X24020000Y-163770000D02*
X24020000Y-189290000D01*
X25670000Y-163770000D02*
X24020000Y-163770000D01*
X27670000Y-163770000D02*
G75*
G02X25670000Y-163770000I-1000000J0D01*
G01*
D10*
X40615000Y-187775000D02*
X40615000Y-189150000D01*
X40190000Y-180525000D02*
X40190000Y-181050000D01*
X47440000Y-180525000D02*
X47440000Y-181050000D01*
X47440000Y-187775000D02*
X47440000Y-187250000D01*
X40190000Y-187775000D02*
X40190000Y-187250000D01*
X47440000Y-187775000D02*
X46915000Y-187775000D01*
X47440000Y-180525000D02*
X46915000Y-180525000D01*
X40190000Y-180525000D02*
X40715000Y-180525000D01*
X40190000Y-187775000D02*
X40615000Y-187775000D01*
D12*
X24690000Y-192781422D02*
X24690000Y-193298578D01*
X26110000Y-192781422D02*
X26110000Y-193298578D01*
X33400000Y-191905000D02*
X29515000Y-191905000D01*
X33400000Y-194175000D02*
X33400000Y-191905000D01*
X29515000Y-194175000D02*
X33400000Y-194175000D01*
X16450000Y-194370000D02*
X16450000Y-193040000D01*
X17780000Y-194370000D02*
X16450000Y-194370000D01*
X19050000Y-194370000D02*
X19050000Y-191710000D01*
X19050000Y-191710000D02*
X21650000Y-191710000D01*
X19050000Y-194370000D02*
X21650000Y-194370000D01*
X21650000Y-194370000D02*
X21650000Y-191710000D01*
X41215000Y-163770000D02*
X42545000Y-163770000D01*
X41215000Y-165100000D02*
X41215000Y-163770000D01*
X43815000Y-163770000D02*
X46415000Y-163770000D01*
X43815000Y-166370000D02*
X43815000Y-163770000D01*
X41215000Y-166370000D02*
X43815000Y-166370000D01*
X46415000Y-163770000D02*
X46415000Y-171510000D01*
X41215000Y-166370000D02*
X41215000Y-171510000D01*
X41215000Y-171510000D02*
X46415000Y-171510000D01*
X55185000Y-194370000D02*
X55185000Y-193040000D01*
X56515000Y-194370000D02*
X55185000Y-194370000D01*
X57785000Y-194370000D02*
X57785000Y-191710000D01*
X57785000Y-191710000D02*
X65465000Y-191710000D01*
X57785000Y-194370000D02*
X65465000Y-194370000D01*
X65465000Y-194370000D02*
X65465000Y-191710000D01*
X47565000Y-194370000D02*
X47565000Y-193040000D01*
X48895000Y-194370000D02*
X47565000Y-194370000D01*
X50165000Y-194370000D02*
X50165000Y-191710000D01*
X50165000Y-191710000D02*
X52765000Y-191710000D01*
X50165000Y-194370000D02*
X52765000Y-194370000D01*
X52765000Y-194370000D02*
X52765000Y-191710000D01*
X66600000Y-168318922D02*
X66600000Y-168836078D01*
X68020000Y-168318922D02*
X68020000Y-168836078D01*
X19125000Y-165993578D02*
X19125000Y-165476422D01*
X17705000Y-165993578D02*
X17705000Y-165476422D01*
X66600000Y-185796422D02*
X66600000Y-186313578D01*
X68020000Y-185796422D02*
X68020000Y-186313578D01*
X39295000Y-192781422D02*
X39295000Y-193298578D01*
X40715000Y-192781422D02*
X40715000Y-193298578D01*
X19125000Y-185981078D02*
X19125000Y-185463922D01*
X17705000Y-185981078D02*
X17705000Y-185463922D01*
X62975000Y-163770000D02*
X61325000Y-163770000D01*
X62975000Y-189290000D02*
X62975000Y-163770000D01*
X57675000Y-189290000D02*
X62975000Y-189290000D01*
X57675000Y-163770000D02*
X57675000Y-189290000D01*
X59325000Y-163770000D02*
X57675000Y-163770000D01*
X61325000Y-163770000D02*
G75*
G02X59325000Y-163770000I-1000000J0D01*
G01*
D10*
X21800457Y-163149185D02*
X21800457Y-162310985D01*
X22279428Y-163149185D02*
X21920200Y-162670214D01*
X22279428Y-162310985D02*
X21800457Y-162789957D01*
X22638657Y-163149185D02*
X22638657Y-162310985D01*
X22918057Y-162909700D01*
X23197457Y-162310985D01*
X23197457Y-163149185D01*
X23955828Y-162590385D02*
X23955828Y-163149185D01*
X23756257Y-162271071D02*
X23556685Y-162869785D01*
X24075571Y-162869785D01*
X24754114Y-162590385D02*
X24754114Y-163149185D01*
X24554542Y-162271071D02*
X24354971Y-162869785D01*
X24873857Y-162869785D01*
X25672142Y-163069357D02*
X25632228Y-163109271D01*
X25512485Y-163149185D01*
X25432657Y-163149185D01*
X25312914Y-163109271D01*
X25233085Y-163029442D01*
X25193171Y-162949614D01*
X25153257Y-162789957D01*
X25153257Y-162670214D01*
X25193171Y-162510557D01*
X25233085Y-162430728D01*
X25312914Y-162350900D01*
X25432657Y-162310985D01*
X25512485Y-162310985D01*
X25632228Y-162350900D01*
X25672142Y-162390814D01*
X25991457Y-162390814D02*
X26031371Y-162350900D01*
X26111200Y-162310985D01*
X26310771Y-162310985D01*
X26390600Y-162350900D01*
X26430514Y-162390814D01*
X26470428Y-162470642D01*
X26470428Y-162550471D01*
X26430514Y-162670214D01*
X25951542Y-163149185D01*
X26470428Y-163149185D01*
X27228800Y-162310985D02*
X26829657Y-162310985D01*
X26789742Y-162710128D01*
X26829657Y-162670214D01*
X26909485Y-162630300D01*
X27109057Y-162630300D01*
X27188885Y-162670214D01*
X27228800Y-162710128D01*
X27268714Y-162789957D01*
X27268714Y-162989528D01*
X27228800Y-163069357D01*
X27188885Y-163109271D01*
X27109057Y-163149185D01*
X26909485Y-163149185D01*
X26829657Y-163109271D01*
X26789742Y-163069357D01*
X27987171Y-162310985D02*
X27827514Y-162310985D01*
X27747685Y-162350900D01*
X27707771Y-162390814D01*
X27627942Y-162510557D01*
X27588028Y-162670214D01*
X27588028Y-162989528D01*
X27627942Y-163069357D01*
X27667857Y-163109271D01*
X27747685Y-163149185D01*
X27907342Y-163149185D01*
X27987171Y-163109271D01*
X28027085Y-163069357D01*
X28067000Y-162989528D01*
X28067000Y-162789957D01*
X28027085Y-162710128D01*
X27987171Y-162670214D01*
X27907342Y-162630300D01*
X27747685Y-162630300D01*
X27667857Y-162670214D01*
X27627942Y-162710128D01*
X27588028Y-162789957D01*
X28705628Y-162710128D02*
X28825371Y-162750042D01*
X28865285Y-162789957D01*
X28905200Y-162869785D01*
X28905200Y-162989528D01*
X28865285Y-163069357D01*
X28825371Y-163109271D01*
X28745542Y-163149185D01*
X28426228Y-163149185D01*
X28426228Y-162310985D01*
X28705628Y-162310985D01*
X28785457Y-162350900D01*
X28825371Y-162390814D01*
X28865285Y-162470642D01*
X28865285Y-162550471D01*
X28825371Y-162630300D01*
X28785457Y-162670214D01*
X28705628Y-162710128D01*
X28426228Y-162710128D01*
X29264428Y-163149185D02*
X29264428Y-162310985D01*
X29583742Y-162310985D01*
X29663571Y-162350900D01*
X29703485Y-162390814D01*
X29743400Y-162470642D01*
X29743400Y-162590385D01*
X29703485Y-162670214D01*
X29663571Y-162710128D01*
X29583742Y-162750042D01*
X29264428Y-162750042D01*
X30102628Y-162829871D02*
X30741257Y-162829871D01*
X31260142Y-162670214D02*
X31180314Y-162630300D01*
X31140400Y-162590385D01*
X31100485Y-162510557D01*
X31100485Y-162470642D01*
X31140400Y-162390814D01*
X31180314Y-162350900D01*
X31260142Y-162310985D01*
X31419800Y-162310985D01*
X31499628Y-162350900D01*
X31539542Y-162390814D01*
X31579457Y-162470642D01*
X31579457Y-162510557D01*
X31539542Y-162590385D01*
X31499628Y-162630300D01*
X31419800Y-162670214D01*
X31260142Y-162670214D01*
X31180314Y-162710128D01*
X31140400Y-162750042D01*
X31100485Y-162829871D01*
X31100485Y-162989528D01*
X31140400Y-163069357D01*
X31180314Y-163109271D01*
X31260142Y-163149185D01*
X31419800Y-163149185D01*
X31499628Y-163109271D01*
X31539542Y-163069357D01*
X31579457Y-162989528D01*
X31579457Y-162829871D01*
X31539542Y-162750042D01*
X31499628Y-162710128D01*
X31419800Y-162670214D01*
X40790585Y-178041300D02*
X41189728Y-178041300D01*
X40710757Y-178280785D02*
X40990157Y-177442585D01*
X41269557Y-178280785D01*
X41429214Y-177442585D02*
X41908185Y-177442585D01*
X41668700Y-178280785D02*
X41668700Y-177442585D01*
X42187585Y-178280785D02*
X42187585Y-177721985D01*
X42187585Y-177801814D02*
X42227500Y-177761900D01*
X42307328Y-177721985D01*
X42427071Y-177721985D01*
X42506900Y-177761900D01*
X42546814Y-177841728D01*
X42546814Y-178280785D01*
X42546814Y-177841728D02*
X42586728Y-177761900D01*
X42666557Y-177721985D01*
X42786300Y-177721985D01*
X42866128Y-177761900D01*
X42906042Y-177841728D01*
X42906042Y-178280785D01*
X43624500Y-178240871D02*
X43544671Y-178280785D01*
X43385014Y-178280785D01*
X43305185Y-178240871D01*
X43265271Y-178161042D01*
X43265271Y-177841728D01*
X43305185Y-177761900D01*
X43385014Y-177721985D01*
X43544671Y-177721985D01*
X43624500Y-177761900D01*
X43664414Y-177841728D01*
X43664414Y-177921557D01*
X43265271Y-178001385D01*
X44382871Y-177721985D02*
X44382871Y-178400528D01*
X44342957Y-178480357D01*
X44303042Y-178520271D01*
X44223214Y-178560185D01*
X44103471Y-178560185D01*
X44023642Y-178520271D01*
X44382871Y-178240871D02*
X44303042Y-178280785D01*
X44143385Y-178280785D01*
X44063557Y-178240871D01*
X44023642Y-178200957D01*
X43983728Y-178121128D01*
X43983728Y-177881642D01*
X44023642Y-177801814D01*
X44063557Y-177761900D01*
X44143385Y-177721985D01*
X44303042Y-177721985D01*
X44382871Y-177761900D01*
X45141242Y-178280785D02*
X45141242Y-177841728D01*
X45101328Y-177761900D01*
X45021500Y-177721985D01*
X44861842Y-177721985D01*
X44782014Y-177761900D01*
X45141242Y-178240871D02*
X45061414Y-178280785D01*
X44861842Y-178280785D01*
X44782014Y-178240871D01*
X44742100Y-178161042D01*
X44742100Y-178081214D01*
X44782014Y-178001385D01*
X44861842Y-177961471D01*
X45061414Y-177961471D01*
X45141242Y-177921557D01*
X45660128Y-177801814D02*
X45580300Y-177761900D01*
X45540385Y-177721985D01*
X45500471Y-177642157D01*
X45500471Y-177602242D01*
X45540385Y-177522414D01*
X45580300Y-177482500D01*
X45660128Y-177442585D01*
X45819785Y-177442585D01*
X45899614Y-177482500D01*
X45939528Y-177522414D01*
X45979442Y-177602242D01*
X45979442Y-177642157D01*
X45939528Y-177721985D01*
X45899614Y-177761900D01*
X45819785Y-177801814D01*
X45660128Y-177801814D01*
X45580300Y-177841728D01*
X45540385Y-177881642D01*
X45500471Y-177961471D01*
X45500471Y-178121128D01*
X45540385Y-178200957D01*
X45580300Y-178240871D01*
X45660128Y-178280785D01*
X45819785Y-178280785D01*
X45899614Y-178240871D01*
X45939528Y-178200957D01*
X45979442Y-178121128D01*
X45979442Y-177961471D01*
X45939528Y-177881642D01*
X45899614Y-177841728D01*
X45819785Y-177801814D01*
X46498328Y-177442585D02*
X46578157Y-177442585D01*
X46657985Y-177482500D01*
X46697900Y-177522414D01*
X46737814Y-177602242D01*
X46777728Y-177761900D01*
X46777728Y-177961471D01*
X46737814Y-178121128D01*
X46697900Y-178200957D01*
X46657985Y-178240871D01*
X46578157Y-178280785D01*
X46498328Y-178280785D01*
X46418500Y-178240871D01*
X46378585Y-178200957D01*
X46338671Y-178121128D01*
X46298757Y-177961471D01*
X46298757Y-177761900D01*
X46338671Y-177602242D01*
X46378585Y-177522414D01*
X46418500Y-177482500D01*
X46498328Y-177442585D01*
X47176871Y-178280785D02*
X47336528Y-178280785D01*
X47416357Y-178240871D01*
X47456271Y-178200957D01*
X47536100Y-178081214D01*
X47576014Y-177921557D01*
X47576014Y-177602242D01*
X47536100Y-177522414D01*
X47496185Y-177482500D01*
X47416357Y-177442585D01*
X47256700Y-177442585D01*
X47176871Y-177482500D01*
X47136957Y-177522414D01*
X47097042Y-177602242D01*
X47097042Y-177801814D01*
X47136957Y-177881642D01*
X47176871Y-177921557D01*
X47256700Y-177961471D01*
X47416357Y-177961471D01*
X47496185Y-177921557D01*
X47536100Y-177881642D01*
X47576014Y-177801814D01*
X27429185Y-193179700D02*
X27030042Y-193459100D01*
X27429185Y-193658671D02*
X26590985Y-193658671D01*
X26590985Y-193339357D01*
X26630900Y-193259528D01*
X26670814Y-193219614D01*
X26750642Y-193179700D01*
X26870385Y-193179700D01*
X26950214Y-193219614D01*
X26990128Y-193259528D01*
X27030042Y-193339357D01*
X27030042Y-193658671D01*
X27429185Y-192381414D02*
X27429185Y-192860385D01*
X27429185Y-192620900D02*
X26590985Y-192620900D01*
X26710728Y-192700728D01*
X26790557Y-192780557D01*
X26830471Y-192860385D01*
X30496328Y-191590385D02*
X30496328Y-190752185D01*
X30695900Y-190752185D01*
X30815642Y-190792100D01*
X30895471Y-190871928D01*
X30935385Y-190951757D01*
X30975300Y-191111414D01*
X30975300Y-191231157D01*
X30935385Y-191390814D01*
X30895471Y-191470642D01*
X30815642Y-191550471D01*
X30695900Y-191590385D01*
X30496328Y-191590385D01*
X31773585Y-191590385D02*
X31294614Y-191590385D01*
X31534100Y-191590385D02*
X31534100Y-190752185D01*
X31454271Y-190871928D01*
X31374442Y-190951757D01*
X31294614Y-190991671D01*
X66804271Y-193898157D02*
X66844185Y-193778414D01*
X66844185Y-193578842D01*
X66804271Y-193499014D01*
X66764357Y-193459100D01*
X66684528Y-193419185D01*
X66604700Y-193419185D01*
X66524871Y-193459100D01*
X66484957Y-193499014D01*
X66445042Y-193578842D01*
X66405128Y-193738500D01*
X66365214Y-193818328D01*
X66325300Y-193858242D01*
X66245471Y-193898157D01*
X66165642Y-193898157D01*
X66085814Y-193858242D01*
X66045900Y-193818328D01*
X66005985Y-193738500D01*
X66005985Y-193538928D01*
X66045900Y-193419185D01*
X66844185Y-193059957D02*
X66005985Y-193059957D01*
X66005985Y-192740642D01*
X66045900Y-192660814D01*
X66085814Y-192620900D01*
X66165642Y-192580985D01*
X66285385Y-192580985D01*
X66365214Y-192620900D01*
X66405128Y-192660814D01*
X66445042Y-192740642D01*
X66445042Y-193059957D01*
X66844185Y-192221757D02*
X66005985Y-192221757D01*
X45895985Y-194377128D02*
X46574528Y-194377128D01*
X46654357Y-194337214D01*
X46694271Y-194297300D01*
X46734185Y-194217471D01*
X46734185Y-194057814D01*
X46694271Y-193977985D01*
X46654357Y-193938071D01*
X46574528Y-193898157D01*
X45895985Y-193898157D01*
X46494700Y-193538928D02*
X46494700Y-193139785D01*
X46734185Y-193618757D02*
X45895985Y-193339357D01*
X46734185Y-193059957D01*
X46734185Y-192301585D02*
X46335042Y-192580985D01*
X46734185Y-192780557D02*
X45895985Y-192780557D01*
X45895985Y-192461242D01*
X45935900Y-192381414D01*
X45975814Y-192341500D01*
X46055642Y-192301585D01*
X46175385Y-192301585D01*
X46255214Y-192341500D01*
X46295128Y-192381414D01*
X46335042Y-192461242D01*
X46335042Y-192780557D01*
X45895985Y-192062100D02*
X45895985Y-191583128D01*
X46734185Y-191822614D02*
X45895985Y-191822614D01*
X69259357Y-168922700D02*
X69299271Y-168962614D01*
X69339185Y-169082357D01*
X69339185Y-169162185D01*
X69299271Y-169281928D01*
X69219442Y-169361757D01*
X69139614Y-169401671D01*
X68979957Y-169441585D01*
X68860214Y-169441585D01*
X68700557Y-169401671D01*
X68620728Y-169361757D01*
X68540900Y-169281928D01*
X68500985Y-169162185D01*
X68500985Y-169082357D01*
X68540900Y-168962614D01*
X68580814Y-168922700D01*
X68500985Y-168643300D02*
X68500985Y-168124414D01*
X68820300Y-168403814D01*
X68820300Y-168284071D01*
X68860214Y-168204242D01*
X68900128Y-168164328D01*
X68979957Y-168124414D01*
X69179528Y-168124414D01*
X69259357Y-168164328D01*
X69299271Y-168204242D01*
X69339185Y-168284071D01*
X69339185Y-168523557D01*
X69299271Y-168603385D01*
X69259357Y-168643300D01*
X17064357Y-165874700D02*
X17104271Y-165914614D01*
X17144185Y-166034357D01*
X17144185Y-166114185D01*
X17104271Y-166233928D01*
X17024442Y-166313757D01*
X16944614Y-166353671D01*
X16784957Y-166393585D01*
X16665214Y-166393585D01*
X16505557Y-166353671D01*
X16425728Y-166313757D01*
X16345900Y-166233928D01*
X16305985Y-166114185D01*
X16305985Y-166034357D01*
X16345900Y-165914614D01*
X16385814Y-165874700D01*
X16305985Y-165116328D02*
X16305985Y-165515471D01*
X16705128Y-165555385D01*
X16665214Y-165515471D01*
X16625300Y-165435642D01*
X16625300Y-165236071D01*
X16665214Y-165156242D01*
X16705128Y-165116328D01*
X16784957Y-165076414D01*
X16984528Y-165076414D01*
X17064357Y-165116328D01*
X17104271Y-165156242D01*
X17144185Y-165236071D01*
X17144185Y-165435642D01*
X17104271Y-165515471D01*
X17064357Y-165555385D01*
X69259357Y-186194700D02*
X69299271Y-186234614D01*
X69339185Y-186354357D01*
X69339185Y-186434185D01*
X69299271Y-186553928D01*
X69219442Y-186633757D01*
X69139614Y-186673671D01*
X68979957Y-186713585D01*
X68860214Y-186713585D01*
X68700557Y-186673671D01*
X68620728Y-186633757D01*
X68540900Y-186553928D01*
X68500985Y-186434185D01*
X68500985Y-186354357D01*
X68540900Y-186234614D01*
X68580814Y-186194700D01*
X68780385Y-185476242D02*
X69339185Y-185476242D01*
X68461071Y-185675814D02*
X69059785Y-185875385D01*
X69059785Y-185356500D01*
X38627957Y-193065400D02*
X38667871Y-193105314D01*
X38707785Y-193225057D01*
X38707785Y-193304885D01*
X38667871Y-193424628D01*
X38588042Y-193504457D01*
X38508214Y-193544371D01*
X38348557Y-193584285D01*
X38228814Y-193584285D01*
X38069157Y-193544371D01*
X37989328Y-193504457D01*
X37909500Y-193424628D01*
X37869585Y-193304885D01*
X37869585Y-193225057D01*
X37909500Y-193105314D01*
X37949414Y-193065400D01*
X37949414Y-192746085D02*
X37909500Y-192706171D01*
X37869585Y-192626342D01*
X37869585Y-192426771D01*
X37909500Y-192346942D01*
X37949414Y-192307028D01*
X38029242Y-192267114D01*
X38109071Y-192267114D01*
X38228814Y-192307028D01*
X38707785Y-192786000D01*
X38707785Y-192267114D01*
X17064357Y-185862200D02*
X17104271Y-185902114D01*
X17144185Y-186021857D01*
X17144185Y-186101685D01*
X17104271Y-186221428D01*
X17024442Y-186301257D01*
X16944614Y-186341171D01*
X16784957Y-186381085D01*
X16665214Y-186381085D01*
X16505557Y-186341171D01*
X16425728Y-186301257D01*
X16345900Y-186221428D01*
X16305985Y-186101685D01*
X16305985Y-186021857D01*
X16345900Y-185902114D01*
X16385814Y-185862200D01*
X17144185Y-185063914D02*
X17144185Y-185542885D01*
X17144185Y-185303400D02*
X16305985Y-185303400D01*
X16425728Y-185383228D01*
X16505557Y-185463057D01*
X16545471Y-185542885D01*
X55455457Y-163149185D02*
X55455457Y-162310985D01*
X55934428Y-163149185D02*
X55575200Y-162670214D01*
X55934428Y-162310985D02*
X55455457Y-162789957D01*
X56293657Y-163149185D02*
X56293657Y-162310985D01*
X56573057Y-162909700D01*
X56852457Y-162310985D01*
X56852457Y-163149185D01*
X57610828Y-162590385D02*
X57610828Y-163149185D01*
X57411257Y-162271071D02*
X57211685Y-162869785D01*
X57730571Y-162869785D01*
X58409114Y-162590385D02*
X58409114Y-163149185D01*
X58209542Y-162271071D02*
X58009971Y-162869785D01*
X58528857Y-162869785D01*
X59327142Y-163069357D02*
X59287228Y-163109271D01*
X59167485Y-163149185D01*
X59087657Y-163149185D01*
X58967914Y-163109271D01*
X58888085Y-163029442D01*
X58848171Y-162949614D01*
X58808257Y-162789957D01*
X58808257Y-162670214D01*
X58848171Y-162510557D01*
X58888085Y-162430728D01*
X58967914Y-162350900D01*
X59087657Y-162310985D01*
X59167485Y-162310985D01*
X59287228Y-162350900D01*
X59327142Y-162390814D01*
X59646457Y-162390814D02*
X59686371Y-162350900D01*
X59766200Y-162310985D01*
X59965771Y-162310985D01*
X60045600Y-162350900D01*
X60085514Y-162390814D01*
X60125428Y-162470642D01*
X60125428Y-162550471D01*
X60085514Y-162670214D01*
X59606542Y-163149185D01*
X60125428Y-163149185D01*
X60883800Y-162310985D02*
X60484657Y-162310985D01*
X60444742Y-162710128D01*
X60484657Y-162670214D01*
X60564485Y-162630300D01*
X60764057Y-162630300D01*
X60843885Y-162670214D01*
X60883800Y-162710128D01*
X60923714Y-162789957D01*
X60923714Y-162989528D01*
X60883800Y-163069357D01*
X60843885Y-163109271D01*
X60764057Y-163149185D01*
X60564485Y-163149185D01*
X60484657Y-163109271D01*
X60444742Y-163069357D01*
X61642171Y-162310985D02*
X61482514Y-162310985D01*
X61402685Y-162350900D01*
X61362771Y-162390814D01*
X61282942Y-162510557D01*
X61243028Y-162670214D01*
X61243028Y-162989528D01*
X61282942Y-163069357D01*
X61322857Y-163109271D01*
X61402685Y-163149185D01*
X61562342Y-163149185D01*
X61642171Y-163109271D01*
X61682085Y-163069357D01*
X61722000Y-162989528D01*
X61722000Y-162789957D01*
X61682085Y-162710128D01*
X61642171Y-162670214D01*
X61562342Y-162630300D01*
X61402685Y-162630300D01*
X61322857Y-162670214D01*
X61282942Y-162710128D01*
X61243028Y-162789957D01*
X62360628Y-162710128D02*
X62480371Y-162750042D01*
X62520285Y-162789957D01*
X62560200Y-162869785D01*
X62560200Y-162989528D01*
X62520285Y-163069357D01*
X62480371Y-163109271D01*
X62400542Y-163149185D01*
X62081228Y-163149185D01*
X62081228Y-162310985D01*
X62360628Y-162310985D01*
X62440457Y-162350900D01*
X62480371Y-162390814D01*
X62520285Y-162470642D01*
X62520285Y-162550471D01*
X62480371Y-162630300D01*
X62440457Y-162670214D01*
X62360628Y-162710128D01*
X62081228Y-162710128D01*
X62919428Y-163149185D02*
X62919428Y-162310985D01*
X63238742Y-162310985D01*
X63318571Y-162350900D01*
X63358485Y-162390814D01*
X63398400Y-162470642D01*
X63398400Y-162590385D01*
X63358485Y-162670214D01*
X63318571Y-162710128D01*
X63238742Y-162750042D01*
X62919428Y-162750042D01*
X63757628Y-162829871D02*
X64396257Y-162829871D01*
X64915142Y-162670214D02*
X64835314Y-162630300D01*
X64795400Y-162590385D01*
X64755485Y-162510557D01*
X64755485Y-162470642D01*
X64795400Y-162390814D01*
X64835314Y-162350900D01*
X64915142Y-162310985D01*
X65074800Y-162310985D01*
X65154628Y-162350900D01*
X65194542Y-162390814D01*
X65234457Y-162470642D01*
X65234457Y-162510557D01*
X65194542Y-162590385D01*
X65154628Y-162630300D01*
X65074800Y-162670214D01*
X64915142Y-162670214D01*
X64835314Y-162710128D01*
X64795400Y-162750042D01*
X64755485Y-162829871D01*
X64755485Y-162989528D01*
X64795400Y-163069357D01*
X64835314Y-163109271D01*
X64915142Y-163149185D01*
X65074800Y-163149185D01*
X65154628Y-163109271D01*
X65194542Y-163069357D01*
X65234457Y-162989528D01*
X65234457Y-162829871D01*
X65194542Y-162750042D01*
X65154628Y-162710128D01*
X65074800Y-162670214D01*
M02*
