G04 #@! TF.GenerationSoftware,KiCad,Pcbnew,5.1.4*
G04 #@! TF.CreationDate,2019-11-10T20:11:31+01:00*
G04 #@! TF.ProjectId,AsyncDRAM,4173796e-6344-4524-914d-2e6b69636164,rev?*
G04 #@! TF.SameCoordinates,Original*
G04 #@! TF.FileFunction,Copper,L2,Bot*
G04 #@! TF.FilePolarity,Positive*
%FSLAX46Y46*%
G04 Gerber Fmt 4.6, Leading zero omitted, Abs format (unit mm)*
G04 Created by KiCad (PCBNEW 5.1.4) date 2019-11-10 20:11:31*
%MOMM*%
%LPD*%
G04 APERTURE LIST*
%ADD10O,1.600000X1.600000*%
%ADD11R,1.600000X1.600000*%
%ADD12O,1.700000X1.700000*%
%ADD13R,1.700000X1.700000*%
%ADD14C,0.604800*%
%ADD15C,0.254000*%
%ADD16C,0.381000*%
%ADD17C,0.304800*%
%ADD18C,0.152400*%
G04 APERTURE END LIST*
D10*
X30480000Y-165100000D03*
X22860000Y-187960000D03*
X30480000Y-167640000D03*
X22860000Y-185420000D03*
X30480000Y-170180000D03*
X22860000Y-182880000D03*
X30480000Y-172720000D03*
X22860000Y-180340000D03*
X30480000Y-175260000D03*
X22860000Y-177800000D03*
X30480000Y-177800000D03*
X22860000Y-175260000D03*
X30480000Y-180340000D03*
X22860000Y-172720000D03*
X30480000Y-182880000D03*
X22860000Y-170180000D03*
X30480000Y-185420000D03*
X22860000Y-167640000D03*
X30480000Y-187960000D03*
D11*
X22860000Y-165100000D03*
D12*
X20320000Y-193040000D03*
D13*
X17780000Y-193040000D03*
D12*
X45085000Y-170180000D03*
X42545000Y-170180000D03*
X45085000Y-167640000D03*
X42545000Y-167640000D03*
X45085000Y-165100000D03*
D13*
X42545000Y-165100000D03*
D12*
X64135000Y-193040000D03*
X61595000Y-193040000D03*
X59055000Y-193040000D03*
D13*
X56515000Y-193040000D03*
D12*
X51435000Y-193040000D03*
D13*
X48895000Y-193040000D03*
D10*
X64135000Y-165100000D03*
X56515000Y-187960000D03*
X64135000Y-167640000D03*
X56515000Y-185420000D03*
X64135000Y-170180000D03*
X56515000Y-182880000D03*
X64135000Y-172720000D03*
X56515000Y-180340000D03*
X64135000Y-175260000D03*
X56515000Y-177800000D03*
X64135000Y-177800000D03*
X56515000Y-175260000D03*
X64135000Y-180340000D03*
X56515000Y-172720000D03*
X64135000Y-182880000D03*
X56515000Y-170180000D03*
X64135000Y-185420000D03*
X56515000Y-167640000D03*
X64135000Y-187960000D03*
D11*
X56515000Y-165100000D03*
D14*
X23622000Y-193700400D03*
X21945600Y-193649600D03*
X50546000Y-186283600D03*
X37541200Y-184861200D03*
X35966400Y-193040000D03*
X43459400Y-183769000D03*
X44424600Y-184454800D03*
X45212000Y-184480200D03*
X46024800Y-184480200D03*
X31877000Y-174244000D03*
X46837600Y-184480200D03*
X49657000Y-181610000D03*
X41198800Y-181102000D03*
X68630800Y-182016400D03*
X53644800Y-181000400D03*
X40792400Y-183032400D03*
X58445400Y-178828700D03*
X28143200Y-185064400D03*
X25298400Y-186588400D03*
X45923200Y-194868800D03*
X28498800Y-183388000D03*
X32461200Y-182575200D03*
X42062400Y-181457600D03*
X51562000Y-186436000D03*
X49466500Y-190119000D03*
X48641000Y-190119000D03*
X47815500Y-190119000D03*
X44196000Y-186944000D03*
X40132000Y-187579000D03*
X47345600Y-192532000D03*
X45516800Y-190296800D03*
X23672800Y-191363600D03*
X24688800Y-185674000D03*
X27023199Y-185371601D03*
X28498800Y-182270400D03*
X63500000Y-191262000D03*
X44297600Y-190296800D03*
X37719000Y-189484000D03*
X54051200Y-193090800D03*
X40640000Y-190373000D03*
X42799000Y-190627000D03*
X29718000Y-189992000D03*
X31496000Y-189992000D03*
X42164000Y-191262000D03*
X52832000Y-185801000D03*
X33909000Y-189230000D03*
X36068000Y-188214000D03*
X45821600Y-186232800D03*
X41554400Y-182829200D03*
X28321000Y-165582600D03*
X51663600Y-179755800D03*
X39116000Y-178841400D03*
X44399200Y-182880000D03*
X45669200Y-182778400D03*
X44399200Y-182067200D03*
X45669200Y-182016400D03*
X44399200Y-181254400D03*
X45669200Y-181254400D03*
X27305000Y-172364400D03*
X38023800Y-178257200D03*
D15*
X56388000Y-187960000D02*
X55715009Y-187287009D01*
X56515000Y-187960000D02*
X56388000Y-187960000D01*
X55715009Y-187287009D02*
X54914800Y-187287009D01*
X51551943Y-187287009D02*
X50546000Y-186283600D01*
X54914800Y-187287009D02*
X51551943Y-187287009D01*
X50546000Y-186283600D02*
X50548534Y-186283600D01*
X37541200Y-184912000D02*
X37541200Y-184861200D01*
D16*
X23571200Y-193649600D02*
X23622000Y-193700400D01*
X21945600Y-193649600D02*
X23571200Y-193649600D01*
D15*
X35966400Y-193040000D02*
X35966400Y-193040000D01*
D17*
X36830000Y-185572400D02*
X37541200Y-184861200D01*
X35966400Y-193040000D02*
X36830000Y-192176400D01*
X36830000Y-192176400D02*
X36830000Y-185572400D01*
D18*
X29362400Y-167640000D02*
X30480000Y-167640000D01*
X29083000Y-176148266D02*
X29083000Y-167919400D01*
X29706132Y-176771398D02*
X29083000Y-176148266D01*
X29083000Y-167919400D02*
X29362400Y-167640000D01*
X42595800Y-181330600D02*
X42593401Y-181328201D01*
X42593401Y-181202719D02*
X41959282Y-180568600D01*
X44424600Y-184454800D02*
X43359318Y-184454800D01*
X34290000Y-180568600D02*
X31851600Y-178130200D01*
X42593401Y-181328201D02*
X42593401Y-181202719D01*
X42595800Y-183691282D02*
X42595800Y-181330600D01*
X43359318Y-184454800D02*
X42595800Y-183691282D01*
X41959282Y-180568600D02*
X34290000Y-180568600D01*
X31851600Y-178130200D02*
X31851600Y-177649270D01*
X31851600Y-177649270D02*
X30973729Y-176771399D01*
X30973729Y-176771399D02*
X29706132Y-176771398D01*
X29387800Y-170840400D02*
X30048200Y-170180000D01*
X29387800Y-176022000D02*
X29387800Y-170840400D01*
X29832389Y-176466589D02*
X29387800Y-176022000D01*
X43027600Y-182551318D02*
X43027600Y-181205852D01*
X30048200Y-170180000D02*
X30480000Y-170180000D01*
X43027600Y-181205852D02*
X42085538Y-180263790D01*
X45212000Y-184480200D02*
X45212000Y-184456318D01*
X32156410Y-178003944D02*
X32156409Y-177523013D01*
X31099985Y-176466589D02*
X29832389Y-176466589D01*
X34416256Y-180263790D02*
X32156410Y-178003944D01*
X42085538Y-180263790D02*
X34416256Y-180263790D01*
X32156409Y-177523013D02*
X31099985Y-176466589D01*
X45212000Y-184480200D02*
X43865800Y-183134000D01*
X43610282Y-183134000D02*
X43027600Y-182551318D01*
X43865800Y-183134000D02*
X43610282Y-183134000D01*
X31877000Y-174244000D02*
X31877000Y-174244000D01*
X34543980Y-179958980D02*
X32461218Y-177876218D01*
X46024800Y-183208682D02*
X46380400Y-182853082D01*
X46024800Y-184480200D02*
X46024800Y-183208682D01*
X31877000Y-176812538D02*
X31877000Y-174244000D01*
X32461218Y-177876218D02*
X32461218Y-177396756D01*
X46380400Y-182853082D02*
X46380400Y-181152800D01*
X42211794Y-179958980D02*
X34543980Y-179958980D01*
X42976213Y-180723399D02*
X42211794Y-179958980D01*
X46380400Y-181152800D02*
X45950999Y-180723399D01*
X32461218Y-177396756D02*
X31877000Y-176812538D01*
X45950999Y-180723399D02*
X42976213Y-180723399D01*
X32410400Y-168048070D02*
X30960930Y-166598600D01*
X32410400Y-176914872D02*
X32410400Y-168048070D01*
X26822400Y-165100000D02*
X22860000Y-165100000D01*
X35149698Y-179654170D02*
X32410400Y-176914872D01*
X30960930Y-166598600D02*
X28321000Y-166598600D01*
X46837600Y-181178934D02*
X46077255Y-180418589D01*
X46837600Y-184480200D02*
X46837600Y-181178934D01*
X28321000Y-166598600D02*
X26822400Y-165100000D01*
X46077255Y-180418589D02*
X43102469Y-180418589D01*
X43102469Y-180418589D02*
X42338050Y-179654170D01*
X42338050Y-179654170D02*
X35149698Y-179654170D01*
X58775600Y-165100000D02*
X56515000Y-165100000D01*
X60071000Y-166395400D02*
X58775600Y-165100000D01*
X60071000Y-174599600D02*
X60071000Y-166395400D01*
X58115200Y-176555400D02*
X60071000Y-174599600D01*
X51132599Y-181074201D02*
X51132599Y-179323119D01*
X50596800Y-181610000D02*
X51132599Y-181074201D01*
X49657000Y-181610000D02*
X50596800Y-181610000D01*
X51132599Y-179323119D02*
X53900318Y-176555400D01*
X53900318Y-176555400D02*
X58115200Y-176555400D01*
X68630800Y-182016400D02*
X68630800Y-181305200D01*
X68630800Y-181305200D02*
X66598800Y-179273200D01*
X66598800Y-179273200D02*
X66446400Y-179120800D01*
X40792400Y-183032400D02*
X40792400Y-183032400D01*
X40792400Y-183032400D02*
X40792400Y-183184800D01*
X40792400Y-184098466D02*
X40792400Y-183794400D01*
X53644800Y-182219600D02*
X51638200Y-184226200D01*
X53644800Y-181000400D02*
X53644800Y-182219600D01*
X42141723Y-185447789D02*
X40792400Y-184098466D01*
X51638200Y-184226200D02*
X50292000Y-184226200D01*
X49070411Y-185447789D02*
X42141723Y-185447789D01*
X40792400Y-183794400D02*
X40792400Y-183032400D01*
X50292000Y-184226200D02*
X49070411Y-185447789D01*
X66446400Y-179120800D02*
X66154300Y-178828700D01*
X66154300Y-178828700D02*
X58445400Y-178828700D01*
X58445400Y-178828700D02*
X58445400Y-178828700D01*
X45923200Y-194868800D02*
X29616400Y-194868800D01*
X29616400Y-194868800D02*
X25298400Y-190550800D01*
X25298400Y-190550800D02*
X25298400Y-186588400D01*
X28143200Y-185064400D02*
X28143200Y-183743600D01*
X28143200Y-183743600D02*
X28498800Y-183388000D01*
X28498800Y-183388000D02*
X28498800Y-183388000D01*
X32461200Y-182575200D02*
X36830000Y-182575200D01*
X36830000Y-182575200D02*
X37744400Y-181660800D01*
X37744400Y-181660800D02*
X41859200Y-181660800D01*
X41859200Y-181660800D02*
X42062400Y-181457600D01*
X42062400Y-181457600D02*
X42062400Y-181457600D01*
X58026399Y-186931399D02*
X52311399Y-186931399D01*
X64135000Y-193040000D02*
X58026399Y-186931399D01*
X52311399Y-186931399D02*
X51943000Y-186563000D01*
X51689000Y-186563000D02*
X51562000Y-186436000D01*
X51943000Y-186563000D02*
X51689000Y-186563000D01*
X49466500Y-190627000D02*
X49466500Y-190119000D01*
X49809381Y-190969881D02*
X49466500Y-190627000D01*
X61595000Y-193040000D02*
X59524882Y-190969882D01*
X59524882Y-190969882D02*
X49809381Y-190969881D01*
X48907690Y-191274690D02*
X48641000Y-191008000D01*
X59055000Y-193040000D02*
X57289691Y-191274691D01*
X48641000Y-191008000D02*
X48641000Y-190119000D01*
X57289691Y-191274691D02*
X48907690Y-191274690D01*
X55512600Y-193040000D02*
X54052100Y-191579500D01*
X56515000Y-193040000D02*
X55512600Y-193040000D01*
X54052100Y-191579500D02*
X48641000Y-191579500D01*
X48641000Y-191579500D02*
X47815500Y-190754000D01*
X47815500Y-190754000D02*
X47815500Y-190119000D01*
X43893601Y-187246399D02*
X40845601Y-187246399D01*
X44196000Y-186944000D02*
X43893601Y-187246399D01*
X40845601Y-187246399D02*
X40513000Y-187579000D01*
X40513000Y-187579000D02*
X40132000Y-187579000D01*
X40132000Y-187579000D02*
X40132000Y-187579000D01*
X45516800Y-190296800D02*
X47345600Y-192125600D01*
X47345600Y-192125600D02*
X47345600Y-192532000D01*
X23672800Y-191363600D02*
X24688800Y-190347600D01*
X24688800Y-190347600D02*
X24688800Y-185674000D01*
X24688800Y-185674000D02*
X24688800Y-185674000D01*
X27325598Y-185069202D02*
X27325598Y-183443602D01*
X27023199Y-185371601D02*
X27325598Y-185069202D01*
X27325598Y-183443602D02*
X28498800Y-182270400D01*
X28498800Y-182270400D02*
X28498800Y-182270400D01*
X44297600Y-190296800D02*
X44297600Y-190724458D01*
X47691743Y-194118601D02*
X53023399Y-194118601D01*
X44297600Y-190724458D02*
X47691743Y-194118601D01*
X53023399Y-194118601D02*
X54051200Y-193090800D01*
X54051200Y-193090800D02*
X54051200Y-193090800D01*
X62788800Y-188925200D02*
X62788800Y-184226200D01*
X62788800Y-184226200D02*
X64135000Y-182880000D01*
X63500000Y-191262000D02*
X64008000Y-190754000D01*
X64008000Y-190144400D02*
X62788800Y-188925200D01*
X64008000Y-190754000D02*
X64008000Y-190144400D01*
X43484800Y-189484000D02*
X44297600Y-190296800D01*
X37719000Y-189484000D02*
X43484800Y-189484000D01*
X42799000Y-190627000D02*
X42799000Y-190627000D01*
X42545000Y-190373000D02*
X42799000Y-190627000D01*
X40640000Y-190373000D02*
X42545000Y-190373000D01*
X65430400Y-186715400D02*
X64135000Y-185420000D01*
X42799000Y-190627000D02*
X46736000Y-194564000D01*
X66776600Y-192125600D02*
X66776600Y-188061600D01*
X46736000Y-194564000D02*
X64338200Y-194564000D01*
X64338200Y-194564000D02*
X66776600Y-192125600D01*
X66776600Y-188061600D02*
X65430400Y-186715400D01*
X31496000Y-189992000D02*
X31496000Y-189992000D01*
X29718000Y-189992000D02*
X31496000Y-189992000D01*
X31496000Y-189992000D02*
X31496000Y-189992000D01*
X39060108Y-191262000D02*
X36266108Y-194056000D01*
X42164000Y-191262000D02*
X39060108Y-191262000D01*
X35560000Y-194056000D02*
X31496000Y-189992000D01*
X36266108Y-194056000D02*
X35560000Y-194056000D01*
X55715001Y-183679999D02*
X54953001Y-183679999D01*
X56515000Y-182880000D02*
X55715001Y-183679999D01*
X54953001Y-183679999D02*
X52832000Y-185801000D01*
X52832000Y-185801000D02*
X52832000Y-185801000D01*
X25908000Y-183388000D02*
X25908000Y-187833000D01*
X22860000Y-180340000D02*
X25908000Y-183388000D01*
X27535999Y-189460999D02*
X33678001Y-189460999D01*
X25908000Y-187833000D02*
X27535999Y-189460999D01*
X33678001Y-189460999D02*
X33909000Y-189230000D01*
X33909000Y-189230000D02*
X33909000Y-189230000D01*
X31508601Y-182386271D02*
X31508601Y-184264399D01*
X30973729Y-181851399D02*
X31508601Y-182386271D01*
X30469069Y-181851399D02*
X30973729Y-181851399D01*
X22860000Y-177800000D02*
X26417670Y-177800000D01*
X26417670Y-177800000D02*
X30469069Y-181851399D01*
X31508601Y-184264399D02*
X33147000Y-185902798D01*
X33147000Y-185902798D02*
X33147000Y-186817000D01*
X34012999Y-187682999D02*
X35536999Y-187682999D01*
X33147000Y-186817000D02*
X34012999Y-187682999D01*
X35536999Y-187682999D02*
X36068000Y-188214000D01*
X36068000Y-188214000D02*
X36068000Y-188214000D01*
X54965600Y-179349400D02*
X56515000Y-177800000D01*
X46301801Y-185752599D02*
X52094519Y-185752599D01*
X45821600Y-186232800D02*
X46301801Y-185752599D01*
X52094519Y-185752599D02*
X54178200Y-183668918D01*
X54178200Y-183668918D02*
X54178200Y-180136800D01*
X54178200Y-180136800D02*
X54965600Y-179349400D01*
X41554400Y-183997600D02*
X41554400Y-182829200D01*
X51663600Y-182423534D02*
X49022734Y-185064400D01*
X42189400Y-185064400D02*
X41554400Y-184429400D01*
X49022734Y-185064400D02*
X42189400Y-185064400D01*
X41554400Y-184429400D02*
X41554400Y-183997600D01*
X28321000Y-165582600D02*
X28321000Y-165582600D01*
X51663600Y-182423534D02*
X51663600Y-179882800D01*
X51663600Y-179882800D02*
X51663600Y-179755800D01*
X51663600Y-179755800D02*
X51663600Y-179755800D01*
X29032190Y-166293790D02*
X31087186Y-166293790D01*
X31087186Y-166293790D02*
X32715209Y-167921813D01*
X28321000Y-165582600D02*
X29032190Y-166293790D01*
X32715209Y-167921813D02*
X32715210Y-176788616D01*
X32715210Y-176788616D02*
X35024297Y-179097703D01*
X35024297Y-179097703D02*
X35275954Y-179349360D01*
X35275954Y-179349360D02*
X37745878Y-179349360D01*
X37745878Y-179349360D02*
X38608000Y-179349360D01*
X38608000Y-179349360D02*
X38608040Y-179349360D01*
X38608040Y-179349360D02*
X39116000Y-178841400D01*
X39116000Y-178841400D02*
X39116000Y-178841400D01*
X44500800Y-182778400D02*
X44399200Y-182880000D01*
X45669200Y-182778400D02*
X44500800Y-182778400D01*
X44450000Y-182016400D02*
X44399200Y-182067200D01*
X45669200Y-182016400D02*
X44450000Y-182016400D01*
X45669200Y-181254400D02*
X44399200Y-181254400D01*
X27305000Y-172364400D02*
X26949400Y-172720000D01*
X26949400Y-172720000D02*
X26720800Y-172720000D01*
X26720800Y-172720000D02*
X22860000Y-172720000D01*
X38023800Y-166497000D02*
X39420800Y-165100000D01*
X39420800Y-165100000D02*
X42545000Y-165100000D01*
X38023800Y-178257200D02*
X38023800Y-166497000D01*
D15*
G36*
X69419000Y-195149000D02*
G01*
X46546845Y-195149000D01*
X46580338Y-195068141D01*
X46594142Y-194998740D01*
X46646373Y-195014585D01*
X46713540Y-195021200D01*
X46713550Y-195021200D01*
X46736000Y-195023411D01*
X46758450Y-195021200D01*
X64315750Y-195021200D01*
X64338200Y-195023411D01*
X64360650Y-195021200D01*
X64360660Y-195021200D01*
X64427827Y-195014585D01*
X64514009Y-194988441D01*
X64593436Y-194945987D01*
X64663053Y-194888853D01*
X64677374Y-194871403D01*
X67084009Y-192464769D01*
X67101453Y-192450453D01*
X67115770Y-192433008D01*
X67158587Y-192380837D01*
X67201040Y-192301410D01*
X67201041Y-192301409D01*
X67227185Y-192215227D01*
X67233800Y-192148060D01*
X67233800Y-192148051D01*
X67236011Y-192125601D01*
X67233800Y-192103151D01*
X67233800Y-188084049D01*
X67236011Y-188061599D01*
X67233800Y-188039149D01*
X67233800Y-188039140D01*
X67227185Y-187971973D01*
X67201041Y-187885791D01*
X67172824Y-187833000D01*
X67158587Y-187806363D01*
X67115770Y-187754192D01*
X67101453Y-187736747D01*
X67084008Y-187722430D01*
X65769574Y-186407997D01*
X65769570Y-186407992D01*
X65232389Y-185870812D01*
X65298912Y-185651516D01*
X65321714Y-185420000D01*
X65298912Y-185188484D01*
X65231381Y-184965864D01*
X65121717Y-184760697D01*
X64974134Y-184580866D01*
X64794303Y-184433283D01*
X64589136Y-184323619D01*
X64366516Y-184256088D01*
X64193016Y-184239000D01*
X64076984Y-184239000D01*
X63903484Y-184256088D01*
X63680864Y-184323619D01*
X63475697Y-184433283D01*
X63295866Y-184580866D01*
X63246000Y-184641628D01*
X63246000Y-184415577D01*
X63684188Y-183977389D01*
X63903484Y-184043912D01*
X64076984Y-184061000D01*
X64193016Y-184061000D01*
X64366516Y-184043912D01*
X64589136Y-183976381D01*
X64794303Y-183866717D01*
X64974134Y-183719134D01*
X65121717Y-183539303D01*
X65231381Y-183334136D01*
X65298912Y-183111516D01*
X65321714Y-182880000D01*
X65298912Y-182648484D01*
X65231381Y-182425864D01*
X65121717Y-182220697D01*
X64974134Y-182040866D01*
X64794303Y-181893283D01*
X64589136Y-181783619D01*
X64366516Y-181716088D01*
X64193016Y-181699000D01*
X64076984Y-181699000D01*
X63903484Y-181716088D01*
X63680864Y-181783619D01*
X63475697Y-181893283D01*
X63295866Y-182040866D01*
X63148283Y-182220697D01*
X63038619Y-182425864D01*
X62971088Y-182648484D01*
X62948286Y-182880000D01*
X62971088Y-183111516D01*
X63037611Y-183330812D01*
X62481394Y-183887029D01*
X62463948Y-183901347D01*
X62449631Y-183918792D01*
X62449630Y-183918793D01*
X62406813Y-183970965D01*
X62380572Y-184020060D01*
X62364360Y-184050391D01*
X62338216Y-184136573D01*
X62336825Y-184150694D01*
X62329389Y-184226200D01*
X62331601Y-184248660D01*
X62331600Y-188902750D01*
X62329389Y-188925200D01*
X62331600Y-188947650D01*
X62331600Y-188947659D01*
X62338215Y-189014826D01*
X62364359Y-189101008D01*
X62406813Y-189180435D01*
X62463947Y-189250053D01*
X62481397Y-189264374D01*
X63550801Y-190333779D01*
X63550800Y-190564622D01*
X63536822Y-190578600D01*
X63432691Y-190578600D01*
X63300659Y-190604862D01*
X63176289Y-190656378D01*
X63064358Y-190731168D01*
X62969168Y-190826358D01*
X62894378Y-190938289D01*
X62842862Y-191062659D01*
X62836454Y-191094876D01*
X58365573Y-186623996D01*
X58351252Y-186606546D01*
X58281635Y-186549412D01*
X58202208Y-186506958D01*
X58116026Y-186480814D01*
X58048859Y-186474199D01*
X58048849Y-186474199D01*
X58026399Y-186471988D01*
X58003949Y-186474199D01*
X57048053Y-186474199D01*
X57174303Y-186406717D01*
X57354134Y-186259134D01*
X57501717Y-186079303D01*
X57611381Y-185874136D01*
X57678912Y-185651516D01*
X57701714Y-185420000D01*
X57678912Y-185188484D01*
X57611381Y-184965864D01*
X57501717Y-184760697D01*
X57354134Y-184580866D01*
X57174303Y-184433283D01*
X56969136Y-184323619D01*
X56746516Y-184256088D01*
X56573016Y-184239000D01*
X56456984Y-184239000D01*
X56283484Y-184256088D01*
X56060864Y-184323619D01*
X55855697Y-184433283D01*
X55675866Y-184580866D01*
X55528283Y-184760697D01*
X55418619Y-184965864D01*
X55351088Y-185188484D01*
X55328286Y-185420000D01*
X55351088Y-185651516D01*
X55418619Y-185874136D01*
X55528283Y-186079303D01*
X55675866Y-186259134D01*
X55855697Y-186406717D01*
X55981947Y-186474199D01*
X52950594Y-186474199D01*
X53031341Y-186458138D01*
X53155711Y-186406622D01*
X53267642Y-186331832D01*
X53362832Y-186236642D01*
X53437622Y-186124711D01*
X53489138Y-186000341D01*
X53515400Y-185868309D01*
X53515400Y-185764177D01*
X55142379Y-184137199D01*
X55692551Y-184137199D01*
X55715001Y-184139410D01*
X55737451Y-184137199D01*
X55737461Y-184137199D01*
X55804628Y-184130584D01*
X55890810Y-184104440D01*
X55970237Y-184061986D01*
X56039854Y-184004852D01*
X56054175Y-183987402D01*
X56064188Y-183977389D01*
X56283484Y-184043912D01*
X56456984Y-184061000D01*
X56573016Y-184061000D01*
X56746516Y-184043912D01*
X56969136Y-183976381D01*
X57174303Y-183866717D01*
X57354134Y-183719134D01*
X57501717Y-183539303D01*
X57611381Y-183334136D01*
X57678912Y-183111516D01*
X57701714Y-182880000D01*
X57678912Y-182648484D01*
X57611381Y-182425864D01*
X57501717Y-182220697D01*
X57354134Y-182040866D01*
X57174303Y-181893283D01*
X56969136Y-181783619D01*
X56746516Y-181716088D01*
X56573016Y-181699000D01*
X56456984Y-181699000D01*
X56283484Y-181716088D01*
X56060864Y-181783619D01*
X55855697Y-181893283D01*
X55675866Y-182040866D01*
X55528283Y-182220697D01*
X55418619Y-182425864D01*
X55351088Y-182648484D01*
X55328286Y-182880000D01*
X55351088Y-183111516D01*
X55384845Y-183222799D01*
X54975450Y-183222799D01*
X54953000Y-183220588D01*
X54930550Y-183222799D01*
X54930541Y-183222799D01*
X54863374Y-183229414D01*
X54777192Y-183255558D01*
X54759823Y-183264842D01*
X54697764Y-183298012D01*
X54659095Y-183329748D01*
X54635400Y-183349194D01*
X54635400Y-180340000D01*
X55328286Y-180340000D01*
X55351088Y-180571516D01*
X55418619Y-180794136D01*
X55528283Y-180999303D01*
X55675866Y-181179134D01*
X55855697Y-181326717D01*
X56060864Y-181436381D01*
X56283484Y-181503912D01*
X56456984Y-181521000D01*
X56573016Y-181521000D01*
X56746516Y-181503912D01*
X56969136Y-181436381D01*
X57174303Y-181326717D01*
X57354134Y-181179134D01*
X57501717Y-180999303D01*
X57611381Y-180794136D01*
X57678912Y-180571516D01*
X57701714Y-180340000D01*
X57678912Y-180108484D01*
X57611381Y-179885864D01*
X57501717Y-179680697D01*
X57354134Y-179500866D01*
X57174303Y-179353283D01*
X56969136Y-179243619D01*
X56746516Y-179176088D01*
X56573016Y-179159000D01*
X56456984Y-179159000D01*
X56283484Y-179176088D01*
X56060864Y-179243619D01*
X55855697Y-179353283D01*
X55675866Y-179500866D01*
X55528283Y-179680697D01*
X55418619Y-179885864D01*
X55351088Y-180108484D01*
X55328286Y-180340000D01*
X54635400Y-180340000D01*
X54635400Y-180326177D01*
X55304771Y-179656808D01*
X55304780Y-179656797D01*
X56064188Y-178897389D01*
X56283484Y-178963912D01*
X56456984Y-178981000D01*
X56573016Y-178981000D01*
X56746516Y-178963912D01*
X56969136Y-178896381D01*
X57174303Y-178786717D01*
X57205162Y-178761391D01*
X57762000Y-178761391D01*
X57762000Y-178896009D01*
X57788262Y-179028041D01*
X57839778Y-179152411D01*
X57914568Y-179264342D01*
X58009758Y-179359532D01*
X58121689Y-179434322D01*
X58246059Y-179485838D01*
X58378091Y-179512100D01*
X58512709Y-179512100D01*
X58644741Y-179485838D01*
X58769111Y-179434322D01*
X58881042Y-179359532D01*
X58954674Y-179285900D01*
X63601762Y-179285900D01*
X63475697Y-179353283D01*
X63295866Y-179500866D01*
X63148283Y-179680697D01*
X63038619Y-179885864D01*
X62971088Y-180108484D01*
X62948286Y-180340000D01*
X62971088Y-180571516D01*
X63038619Y-180794136D01*
X63148283Y-180999303D01*
X63295866Y-181179134D01*
X63475697Y-181326717D01*
X63680864Y-181436381D01*
X63903484Y-181503912D01*
X64076984Y-181521000D01*
X64193016Y-181521000D01*
X64366516Y-181503912D01*
X64589136Y-181436381D01*
X64794303Y-181326717D01*
X64974134Y-181179134D01*
X65121717Y-180999303D01*
X65231381Y-180794136D01*
X65298912Y-180571516D01*
X65321714Y-180340000D01*
X65298912Y-180108484D01*
X65231381Y-179885864D01*
X65121717Y-179680697D01*
X64974134Y-179500866D01*
X64794303Y-179353283D01*
X64668238Y-179285900D01*
X65964923Y-179285900D01*
X66259630Y-179580607D01*
X68173601Y-181494579D01*
X68173601Y-181507125D01*
X68099968Y-181580758D01*
X68025178Y-181692689D01*
X67973662Y-181817059D01*
X67947400Y-181949091D01*
X67947400Y-182083709D01*
X67973662Y-182215741D01*
X68025178Y-182340111D01*
X68099968Y-182452042D01*
X68195158Y-182547232D01*
X68307089Y-182622022D01*
X68431459Y-182673538D01*
X68563491Y-182699800D01*
X68698109Y-182699800D01*
X68830141Y-182673538D01*
X68954511Y-182622022D01*
X69066442Y-182547232D01*
X69161632Y-182452042D01*
X69236422Y-182340111D01*
X69287938Y-182215741D01*
X69314200Y-182083709D01*
X69314200Y-181949091D01*
X69287938Y-181817059D01*
X69236422Y-181692689D01*
X69161632Y-181580758D01*
X69088000Y-181507126D01*
X69088000Y-181327650D01*
X69090211Y-181305200D01*
X69088000Y-181282750D01*
X69088000Y-181282740D01*
X69081385Y-181215573D01*
X69055241Y-181129391D01*
X69012787Y-181049964D01*
X68955653Y-180980347D01*
X68938208Y-180966030D01*
X66906207Y-178934030D01*
X66493474Y-178521297D01*
X66479153Y-178503847D01*
X66409536Y-178446713D01*
X66330109Y-178404259D01*
X66243927Y-178378115D01*
X66176760Y-178371500D01*
X66176750Y-178371500D01*
X66154300Y-178369289D01*
X66131850Y-178371500D01*
X65168649Y-178371500D01*
X65231381Y-178254136D01*
X65298912Y-178031516D01*
X65321714Y-177800000D01*
X65298912Y-177568484D01*
X65231381Y-177345864D01*
X65121717Y-177140697D01*
X64974134Y-176960866D01*
X64794303Y-176813283D01*
X64589136Y-176703619D01*
X64366516Y-176636088D01*
X64193016Y-176619000D01*
X64076984Y-176619000D01*
X63903484Y-176636088D01*
X63680864Y-176703619D01*
X63475697Y-176813283D01*
X63295866Y-176960866D01*
X63148283Y-177140697D01*
X63038619Y-177345864D01*
X62971088Y-177568484D01*
X62948286Y-177800000D01*
X62971088Y-178031516D01*
X63038619Y-178254136D01*
X63101351Y-178371500D01*
X58954674Y-178371500D01*
X58881042Y-178297868D01*
X58769111Y-178223078D01*
X58644741Y-178171562D01*
X58512709Y-178145300D01*
X58378091Y-178145300D01*
X58246059Y-178171562D01*
X58121689Y-178223078D01*
X58009758Y-178297868D01*
X57914568Y-178393058D01*
X57839778Y-178504989D01*
X57788262Y-178629359D01*
X57762000Y-178761391D01*
X57205162Y-178761391D01*
X57354134Y-178639134D01*
X57501717Y-178459303D01*
X57611381Y-178254136D01*
X57678912Y-178031516D01*
X57701714Y-177800000D01*
X57678912Y-177568484D01*
X57611381Y-177345864D01*
X57501717Y-177140697D01*
X57396591Y-177012600D01*
X58092750Y-177012600D01*
X58115200Y-177014811D01*
X58137650Y-177012600D01*
X58137660Y-177012600D01*
X58204827Y-177005985D01*
X58291009Y-176979841D01*
X58370436Y-176937387D01*
X58440053Y-176880253D01*
X58454374Y-176862803D01*
X60057177Y-175260000D01*
X62948286Y-175260000D01*
X62971088Y-175491516D01*
X63038619Y-175714136D01*
X63148283Y-175919303D01*
X63295866Y-176099134D01*
X63475697Y-176246717D01*
X63680864Y-176356381D01*
X63903484Y-176423912D01*
X64076984Y-176441000D01*
X64193016Y-176441000D01*
X64366516Y-176423912D01*
X64589136Y-176356381D01*
X64794303Y-176246717D01*
X64974134Y-176099134D01*
X65121717Y-175919303D01*
X65231381Y-175714136D01*
X65298912Y-175491516D01*
X65321714Y-175260000D01*
X65298912Y-175028484D01*
X65231381Y-174805864D01*
X65121717Y-174600697D01*
X64974134Y-174420866D01*
X64794303Y-174273283D01*
X64589136Y-174163619D01*
X64366516Y-174096088D01*
X64193016Y-174079000D01*
X64076984Y-174079000D01*
X63903484Y-174096088D01*
X63680864Y-174163619D01*
X63475697Y-174273283D01*
X63295866Y-174420866D01*
X63148283Y-174600697D01*
X63038619Y-174805864D01*
X62971088Y-175028484D01*
X62948286Y-175260000D01*
X60057177Y-175260000D01*
X60378409Y-174938769D01*
X60395853Y-174924453D01*
X60452987Y-174854836D01*
X60495441Y-174775409D01*
X60521585Y-174689227D01*
X60528200Y-174622060D01*
X60528200Y-174622050D01*
X60530411Y-174599600D01*
X60528200Y-174577150D01*
X60528200Y-172720000D01*
X62948286Y-172720000D01*
X62971088Y-172951516D01*
X63038619Y-173174136D01*
X63148283Y-173379303D01*
X63295866Y-173559134D01*
X63475697Y-173706717D01*
X63680864Y-173816381D01*
X63903484Y-173883912D01*
X64076984Y-173901000D01*
X64193016Y-173901000D01*
X64366516Y-173883912D01*
X64589136Y-173816381D01*
X64794303Y-173706717D01*
X64974134Y-173559134D01*
X65121717Y-173379303D01*
X65231381Y-173174136D01*
X65298912Y-172951516D01*
X65321714Y-172720000D01*
X65298912Y-172488484D01*
X65231381Y-172265864D01*
X65121717Y-172060697D01*
X64974134Y-171880866D01*
X64794303Y-171733283D01*
X64589136Y-171623619D01*
X64366516Y-171556088D01*
X64193016Y-171539000D01*
X64076984Y-171539000D01*
X63903484Y-171556088D01*
X63680864Y-171623619D01*
X63475697Y-171733283D01*
X63295866Y-171880866D01*
X63148283Y-172060697D01*
X63038619Y-172265864D01*
X62971088Y-172488484D01*
X62948286Y-172720000D01*
X60528200Y-172720000D01*
X60528200Y-170180000D01*
X62948286Y-170180000D01*
X62971088Y-170411516D01*
X63038619Y-170634136D01*
X63148283Y-170839303D01*
X63295866Y-171019134D01*
X63475697Y-171166717D01*
X63680864Y-171276381D01*
X63903484Y-171343912D01*
X64076984Y-171361000D01*
X64193016Y-171361000D01*
X64366516Y-171343912D01*
X64589136Y-171276381D01*
X64794303Y-171166717D01*
X64974134Y-171019134D01*
X65121717Y-170839303D01*
X65231381Y-170634136D01*
X65298912Y-170411516D01*
X65321714Y-170180000D01*
X65298912Y-169948484D01*
X65231381Y-169725864D01*
X65121717Y-169520697D01*
X64974134Y-169340866D01*
X64794303Y-169193283D01*
X64589136Y-169083619D01*
X64366516Y-169016088D01*
X64193016Y-168999000D01*
X64076984Y-168999000D01*
X63903484Y-169016088D01*
X63680864Y-169083619D01*
X63475697Y-169193283D01*
X63295866Y-169340866D01*
X63148283Y-169520697D01*
X63038619Y-169725864D01*
X62971088Y-169948484D01*
X62948286Y-170180000D01*
X60528200Y-170180000D01*
X60528200Y-166417849D01*
X60530411Y-166395399D01*
X60528200Y-166372949D01*
X60528200Y-166372940D01*
X60521585Y-166305773D01*
X60495441Y-166219591D01*
X60471158Y-166174160D01*
X60452987Y-166140163D01*
X60410170Y-166087992D01*
X60395853Y-166070547D01*
X60378408Y-166056230D01*
X59771217Y-165449039D01*
X62743096Y-165449039D01*
X62783754Y-165583087D01*
X62903963Y-165837420D01*
X63071481Y-166063414D01*
X63279869Y-166252385D01*
X63521119Y-166397070D01*
X63785960Y-166491909D01*
X64007998Y-166370625D01*
X64007998Y-166465794D01*
X63903484Y-166476088D01*
X63680864Y-166543619D01*
X63475697Y-166653283D01*
X63295866Y-166800866D01*
X63148283Y-166980697D01*
X63038619Y-167185864D01*
X62971088Y-167408484D01*
X62948286Y-167640000D01*
X62971088Y-167871516D01*
X63038619Y-168094136D01*
X63148283Y-168299303D01*
X63295866Y-168479134D01*
X63475697Y-168626717D01*
X63680864Y-168736381D01*
X63903484Y-168803912D01*
X64076984Y-168821000D01*
X64193016Y-168821000D01*
X64366516Y-168803912D01*
X64589136Y-168736381D01*
X64794303Y-168626717D01*
X64974134Y-168479134D01*
X65121717Y-168299303D01*
X65231381Y-168094136D01*
X65298912Y-167871516D01*
X65321714Y-167640000D01*
X65298912Y-167408484D01*
X65231381Y-167185864D01*
X65121717Y-166980697D01*
X64974134Y-166800866D01*
X64794303Y-166653283D01*
X64589136Y-166543619D01*
X64366516Y-166476088D01*
X64262002Y-166465794D01*
X64262002Y-166370625D01*
X64484040Y-166491909D01*
X64748881Y-166397070D01*
X64990131Y-166252385D01*
X65198519Y-166063414D01*
X65366037Y-165837420D01*
X65486246Y-165583087D01*
X65526904Y-165449039D01*
X65404915Y-165227000D01*
X64262000Y-165227000D01*
X64262000Y-165247000D01*
X64008000Y-165247000D01*
X64008000Y-165227000D01*
X62865085Y-165227000D01*
X62743096Y-165449039D01*
X59771217Y-165449039D01*
X59114774Y-164792597D01*
X59100453Y-164775147D01*
X59070983Y-164750961D01*
X62743096Y-164750961D01*
X62865085Y-164973000D01*
X64008000Y-164973000D01*
X64008000Y-163829376D01*
X64262000Y-163829376D01*
X64262000Y-164973000D01*
X65404915Y-164973000D01*
X65526904Y-164750961D01*
X65486246Y-164616913D01*
X65366037Y-164362580D01*
X65198519Y-164136586D01*
X64990131Y-163947615D01*
X64748881Y-163802930D01*
X64484040Y-163708091D01*
X64262000Y-163829376D01*
X64008000Y-163829376D01*
X63785960Y-163708091D01*
X63521119Y-163802930D01*
X63279869Y-163947615D01*
X63071481Y-164136586D01*
X62903963Y-164362580D01*
X62783754Y-164616913D01*
X62743096Y-164750961D01*
X59070983Y-164750961D01*
X59030836Y-164718013D01*
X58951409Y-164675559D01*
X58865227Y-164649415D01*
X58798060Y-164642800D01*
X58798050Y-164642800D01*
X58775600Y-164640589D01*
X58753150Y-164642800D01*
X57697843Y-164642800D01*
X57697843Y-164300000D01*
X57690487Y-164225311D01*
X57668701Y-164153492D01*
X57633322Y-164087304D01*
X57585711Y-164029289D01*
X57527696Y-163981678D01*
X57461508Y-163946299D01*
X57389689Y-163924513D01*
X57315000Y-163917157D01*
X55715000Y-163917157D01*
X55640311Y-163924513D01*
X55568492Y-163946299D01*
X55502304Y-163981678D01*
X55444289Y-164029289D01*
X55396678Y-164087304D01*
X55361299Y-164153492D01*
X55339513Y-164225311D01*
X55332157Y-164300000D01*
X55332157Y-165900000D01*
X55339513Y-165974689D01*
X55361299Y-166046508D01*
X55396678Y-166112696D01*
X55444289Y-166170711D01*
X55502304Y-166218322D01*
X55568492Y-166253701D01*
X55640311Y-166275487D01*
X55715000Y-166282843D01*
X57315000Y-166282843D01*
X57389689Y-166275487D01*
X57461508Y-166253701D01*
X57527696Y-166218322D01*
X57585711Y-166170711D01*
X57633322Y-166112696D01*
X57668701Y-166046508D01*
X57690487Y-165974689D01*
X57697843Y-165900000D01*
X57697843Y-165557200D01*
X58586223Y-165557200D01*
X59613801Y-166584779D01*
X59613800Y-174410222D01*
X57925823Y-176098200D01*
X57354901Y-176098200D01*
X57501717Y-175919303D01*
X57611381Y-175714136D01*
X57678912Y-175491516D01*
X57701714Y-175260000D01*
X57678912Y-175028484D01*
X57611381Y-174805864D01*
X57501717Y-174600697D01*
X57354134Y-174420866D01*
X57174303Y-174273283D01*
X56969136Y-174163619D01*
X56746516Y-174096088D01*
X56573016Y-174079000D01*
X56456984Y-174079000D01*
X56283484Y-174096088D01*
X56060864Y-174163619D01*
X55855697Y-174273283D01*
X55675866Y-174420866D01*
X55528283Y-174600697D01*
X55418619Y-174805864D01*
X55351088Y-175028484D01*
X55328286Y-175260000D01*
X55351088Y-175491516D01*
X55418619Y-175714136D01*
X55528283Y-175919303D01*
X55675099Y-176098200D01*
X53922768Y-176098200D01*
X53900318Y-176095989D01*
X53877868Y-176098200D01*
X53877858Y-176098200D01*
X53810691Y-176104815D01*
X53744567Y-176124874D01*
X53724508Y-176130959D01*
X53645082Y-176173413D01*
X53592910Y-176216229D01*
X53592904Y-176216235D01*
X53575465Y-176230547D01*
X53561153Y-176247986D01*
X50825192Y-178983949D01*
X50807747Y-178998266D01*
X50793430Y-179015711D01*
X50793429Y-179015712D01*
X50750612Y-179067884D01*
X50722329Y-179120800D01*
X50708159Y-179147310D01*
X50682015Y-179233492D01*
X50678104Y-179273199D01*
X50673188Y-179323119D01*
X50675400Y-179345579D01*
X50675399Y-180884823D01*
X50407423Y-181152800D01*
X50166274Y-181152800D01*
X50092642Y-181079168D01*
X49980711Y-181004378D01*
X49856341Y-180952862D01*
X49724309Y-180926600D01*
X49589691Y-180926600D01*
X49457659Y-180952862D01*
X49333289Y-181004378D01*
X49221358Y-181079168D01*
X49126168Y-181174358D01*
X49051378Y-181286289D01*
X48999862Y-181410659D01*
X48973600Y-181542691D01*
X48973600Y-181677309D01*
X48999862Y-181809341D01*
X49051378Y-181933711D01*
X49126168Y-182045642D01*
X49221358Y-182140832D01*
X49333289Y-182215622D01*
X49457659Y-182267138D01*
X49589691Y-182293400D01*
X49724309Y-182293400D01*
X49856341Y-182267138D01*
X49980711Y-182215622D01*
X50092642Y-182140832D01*
X50166274Y-182067200D01*
X50574350Y-182067200D01*
X50596800Y-182069411D01*
X50619250Y-182067200D01*
X50619260Y-182067200D01*
X50686427Y-182060585D01*
X50772609Y-182034441D01*
X50852036Y-181991987D01*
X50921653Y-181934853D01*
X50935974Y-181917403D01*
X51206400Y-181646977D01*
X51206400Y-182234155D01*
X48833357Y-184607200D01*
X47509127Y-184607200D01*
X47521000Y-184547509D01*
X47521000Y-184412891D01*
X47494738Y-184280859D01*
X47443222Y-184156489D01*
X47368432Y-184044558D01*
X47294800Y-183970926D01*
X47294800Y-181201383D01*
X47297011Y-181178933D01*
X47294800Y-181156483D01*
X47294800Y-181156474D01*
X47288185Y-181089307D01*
X47262041Y-181003125D01*
X47219587Y-180923698D01*
X47203225Y-180903761D01*
X47176770Y-180871526D01*
X47162453Y-180854081D01*
X47145008Y-180839764D01*
X46416429Y-180111186D01*
X46402108Y-180093736D01*
X46332491Y-180036602D01*
X46253064Y-179994148D01*
X46166882Y-179968004D01*
X46099715Y-179961389D01*
X46099705Y-179961389D01*
X46077255Y-179959178D01*
X46054805Y-179961389D01*
X43291848Y-179961389D01*
X42677224Y-179346767D01*
X42662903Y-179329317D01*
X42593286Y-179272183D01*
X42513859Y-179229729D01*
X42427677Y-179203585D01*
X42360510Y-179196970D01*
X42360500Y-179196970D01*
X42338050Y-179194759D01*
X42315600Y-179196970D01*
X39700334Y-179196970D01*
X39721622Y-179165111D01*
X39773138Y-179040741D01*
X39799400Y-178908709D01*
X39799400Y-178774091D01*
X39773138Y-178642059D01*
X39721622Y-178517689D01*
X39646832Y-178405758D01*
X39551642Y-178310568D01*
X39439711Y-178235778D01*
X39315341Y-178184262D01*
X39183309Y-178158000D01*
X39048691Y-178158000D01*
X38916659Y-178184262D01*
X38792289Y-178235778D01*
X38707200Y-178292633D01*
X38707200Y-178189891D01*
X38680938Y-178057859D01*
X38629422Y-177933489D01*
X38554632Y-177821558D01*
X38481000Y-177747926D01*
X38481000Y-172720000D01*
X55328286Y-172720000D01*
X55351088Y-172951516D01*
X55418619Y-173174136D01*
X55528283Y-173379303D01*
X55675866Y-173559134D01*
X55855697Y-173706717D01*
X56060864Y-173816381D01*
X56283484Y-173883912D01*
X56456984Y-173901000D01*
X56573016Y-173901000D01*
X56746516Y-173883912D01*
X56969136Y-173816381D01*
X57174303Y-173706717D01*
X57354134Y-173559134D01*
X57501717Y-173379303D01*
X57611381Y-173174136D01*
X57678912Y-172951516D01*
X57701714Y-172720000D01*
X57678912Y-172488484D01*
X57611381Y-172265864D01*
X57501717Y-172060697D01*
X57354134Y-171880866D01*
X57174303Y-171733283D01*
X56969136Y-171623619D01*
X56746516Y-171556088D01*
X56573016Y-171539000D01*
X56456984Y-171539000D01*
X56283484Y-171556088D01*
X56060864Y-171623619D01*
X55855697Y-171733283D01*
X55675866Y-171880866D01*
X55528283Y-172060697D01*
X55418619Y-172265864D01*
X55351088Y-172488484D01*
X55328286Y-172720000D01*
X38481000Y-172720000D01*
X38481000Y-170180000D01*
X41308044Y-170180000D01*
X41331812Y-170421318D01*
X41402202Y-170653363D01*
X41516509Y-170867216D01*
X41670340Y-171054660D01*
X41857784Y-171208491D01*
X42071637Y-171322798D01*
X42303682Y-171393188D01*
X42484528Y-171411000D01*
X42605472Y-171411000D01*
X42786318Y-171393188D01*
X43018363Y-171322798D01*
X43232216Y-171208491D01*
X43419660Y-171054660D01*
X43573491Y-170867216D01*
X43682091Y-170664040D01*
X43688175Y-170684099D01*
X43813359Y-170946920D01*
X43987412Y-171180269D01*
X44203645Y-171375178D01*
X44453748Y-171524157D01*
X44728109Y-171621481D01*
X44958000Y-171500814D01*
X44958000Y-170307000D01*
X45212000Y-170307000D01*
X45212000Y-171500814D01*
X45441891Y-171621481D01*
X45716252Y-171524157D01*
X45966355Y-171375178D01*
X46182588Y-171180269D01*
X46356641Y-170946920D01*
X46481825Y-170684099D01*
X46526476Y-170536890D01*
X46405155Y-170307000D01*
X45212000Y-170307000D01*
X44958000Y-170307000D01*
X44938000Y-170307000D01*
X44938000Y-170180000D01*
X55328286Y-170180000D01*
X55351088Y-170411516D01*
X55418619Y-170634136D01*
X55528283Y-170839303D01*
X55675866Y-171019134D01*
X55855697Y-171166717D01*
X56060864Y-171276381D01*
X56283484Y-171343912D01*
X56456984Y-171361000D01*
X56573016Y-171361000D01*
X56746516Y-171343912D01*
X56969136Y-171276381D01*
X57174303Y-171166717D01*
X57354134Y-171019134D01*
X57501717Y-170839303D01*
X57611381Y-170634136D01*
X57678912Y-170411516D01*
X57701714Y-170180000D01*
X57678912Y-169948484D01*
X57611381Y-169725864D01*
X57501717Y-169520697D01*
X57354134Y-169340866D01*
X57174303Y-169193283D01*
X56969136Y-169083619D01*
X56746516Y-169016088D01*
X56573016Y-168999000D01*
X56456984Y-168999000D01*
X56283484Y-169016088D01*
X56060864Y-169083619D01*
X55855697Y-169193283D01*
X55675866Y-169340866D01*
X55528283Y-169520697D01*
X55418619Y-169725864D01*
X55351088Y-169948484D01*
X55328286Y-170180000D01*
X44938000Y-170180000D01*
X44938000Y-170053000D01*
X44958000Y-170053000D01*
X44958000Y-170033000D01*
X45212000Y-170033000D01*
X45212000Y-170053000D01*
X46405155Y-170053000D01*
X46526476Y-169823110D01*
X46481825Y-169675901D01*
X46356641Y-169413080D01*
X46182588Y-169179731D01*
X45966355Y-168984822D01*
X45716252Y-168835843D01*
X45561695Y-168781017D01*
X45772216Y-168668491D01*
X45959660Y-168514660D01*
X46113491Y-168327216D01*
X46227798Y-168113363D01*
X46298188Y-167881318D01*
X46321956Y-167640000D01*
X55328286Y-167640000D01*
X55351088Y-167871516D01*
X55418619Y-168094136D01*
X55528283Y-168299303D01*
X55675866Y-168479134D01*
X55855697Y-168626717D01*
X56060864Y-168736381D01*
X56283484Y-168803912D01*
X56456984Y-168821000D01*
X56573016Y-168821000D01*
X56746516Y-168803912D01*
X56969136Y-168736381D01*
X57174303Y-168626717D01*
X57354134Y-168479134D01*
X57501717Y-168299303D01*
X57611381Y-168094136D01*
X57678912Y-167871516D01*
X57701714Y-167640000D01*
X57678912Y-167408484D01*
X57611381Y-167185864D01*
X57501717Y-166980697D01*
X57354134Y-166800866D01*
X57174303Y-166653283D01*
X56969136Y-166543619D01*
X56746516Y-166476088D01*
X56573016Y-166459000D01*
X56456984Y-166459000D01*
X56283484Y-166476088D01*
X56060864Y-166543619D01*
X55855697Y-166653283D01*
X55675866Y-166800866D01*
X55528283Y-166980697D01*
X55418619Y-167185864D01*
X55351088Y-167408484D01*
X55328286Y-167640000D01*
X46321956Y-167640000D01*
X46298188Y-167398682D01*
X46227798Y-167166637D01*
X46113491Y-166952784D01*
X45959660Y-166765340D01*
X45772216Y-166611509D01*
X45558363Y-166497202D01*
X45326318Y-166426812D01*
X45145472Y-166409000D01*
X45024528Y-166409000D01*
X44843682Y-166426812D01*
X44611637Y-166497202D01*
X44397784Y-166611509D01*
X44210340Y-166765340D01*
X44056509Y-166952784D01*
X43942202Y-167166637D01*
X43871812Y-167398682D01*
X43848044Y-167640000D01*
X43871812Y-167881318D01*
X43942202Y-168113363D01*
X44056509Y-168327216D01*
X44210340Y-168514660D01*
X44397784Y-168668491D01*
X44608305Y-168781017D01*
X44453748Y-168835843D01*
X44203645Y-168984822D01*
X43987412Y-169179731D01*
X43813359Y-169413080D01*
X43688175Y-169675901D01*
X43682091Y-169695960D01*
X43573491Y-169492784D01*
X43419660Y-169305340D01*
X43232216Y-169151509D01*
X43018363Y-169037202D01*
X42786318Y-168966812D01*
X42605472Y-168949000D01*
X42484528Y-168949000D01*
X42303682Y-168966812D01*
X42071637Y-169037202D01*
X41857784Y-169151509D01*
X41670340Y-169305340D01*
X41516509Y-169492784D01*
X41402202Y-169706637D01*
X41331812Y-169938682D01*
X41308044Y-170180000D01*
X38481000Y-170180000D01*
X38481000Y-167640000D01*
X41308044Y-167640000D01*
X41331812Y-167881318D01*
X41402202Y-168113363D01*
X41516509Y-168327216D01*
X41670340Y-168514660D01*
X41857784Y-168668491D01*
X42071637Y-168782798D01*
X42303682Y-168853188D01*
X42484528Y-168871000D01*
X42605472Y-168871000D01*
X42786318Y-168853188D01*
X43018363Y-168782798D01*
X43232216Y-168668491D01*
X43419660Y-168514660D01*
X43573491Y-168327216D01*
X43687798Y-168113363D01*
X43758188Y-167881318D01*
X43781956Y-167640000D01*
X43758188Y-167398682D01*
X43687798Y-167166637D01*
X43573491Y-166952784D01*
X43419660Y-166765340D01*
X43232216Y-166611509D01*
X43018363Y-166497202D01*
X42786318Y-166426812D01*
X42605472Y-166409000D01*
X42484528Y-166409000D01*
X42303682Y-166426812D01*
X42071637Y-166497202D01*
X41857784Y-166611509D01*
X41670340Y-166765340D01*
X41516509Y-166952784D01*
X41402202Y-167166637D01*
X41331812Y-167398682D01*
X41308044Y-167640000D01*
X38481000Y-167640000D01*
X38481000Y-166686377D01*
X39610178Y-165557200D01*
X41312157Y-165557200D01*
X41312157Y-165950000D01*
X41319513Y-166024689D01*
X41341299Y-166096508D01*
X41376678Y-166162696D01*
X41424289Y-166220711D01*
X41482304Y-166268322D01*
X41548492Y-166303701D01*
X41620311Y-166325487D01*
X41695000Y-166332843D01*
X43395000Y-166332843D01*
X43469689Y-166325487D01*
X43541508Y-166303701D01*
X43607696Y-166268322D01*
X43665711Y-166220711D01*
X43713322Y-166162696D01*
X43748701Y-166096508D01*
X43770487Y-166024689D01*
X43777843Y-165950000D01*
X43777843Y-165100000D01*
X43848044Y-165100000D01*
X43871812Y-165341318D01*
X43942202Y-165573363D01*
X44056509Y-165787216D01*
X44210340Y-165974660D01*
X44397784Y-166128491D01*
X44611637Y-166242798D01*
X44843682Y-166313188D01*
X45024528Y-166331000D01*
X45145472Y-166331000D01*
X45326318Y-166313188D01*
X45558363Y-166242798D01*
X45772216Y-166128491D01*
X45959660Y-165974660D01*
X46113491Y-165787216D01*
X46227798Y-165573363D01*
X46298188Y-165341318D01*
X46321956Y-165100000D01*
X46298188Y-164858682D01*
X46227798Y-164626637D01*
X46113491Y-164412784D01*
X45959660Y-164225340D01*
X45772216Y-164071509D01*
X45558363Y-163957202D01*
X45326318Y-163886812D01*
X45145472Y-163869000D01*
X45024528Y-163869000D01*
X44843682Y-163886812D01*
X44611637Y-163957202D01*
X44397784Y-164071509D01*
X44210340Y-164225340D01*
X44056509Y-164412784D01*
X43942202Y-164626637D01*
X43871812Y-164858682D01*
X43848044Y-165100000D01*
X43777843Y-165100000D01*
X43777843Y-164250000D01*
X43770487Y-164175311D01*
X43748701Y-164103492D01*
X43713322Y-164037304D01*
X43665711Y-163979289D01*
X43607696Y-163931678D01*
X43541508Y-163896299D01*
X43469689Y-163874513D01*
X43395000Y-163867157D01*
X41695000Y-163867157D01*
X41620311Y-163874513D01*
X41548492Y-163896299D01*
X41482304Y-163931678D01*
X41424289Y-163979289D01*
X41376678Y-164037304D01*
X41341299Y-164103492D01*
X41319513Y-164175311D01*
X41312157Y-164250000D01*
X41312157Y-164642800D01*
X39443249Y-164642800D01*
X39420799Y-164640589D01*
X39398349Y-164642800D01*
X39398340Y-164642800D01*
X39331173Y-164649415D01*
X39244991Y-164675559D01*
X39208017Y-164695322D01*
X39165563Y-164718013D01*
X39125417Y-164750961D01*
X39095947Y-164775147D01*
X39081630Y-164792592D01*
X37716393Y-166157830D01*
X37698948Y-166172147D01*
X37684631Y-166189592D01*
X37684630Y-166189593D01*
X37641813Y-166241765D01*
X37614006Y-166293790D01*
X37599360Y-166321191D01*
X37573216Y-166407373D01*
X37567088Y-166469599D01*
X37564389Y-166497000D01*
X37566601Y-166519460D01*
X37566600Y-177747926D01*
X37492968Y-177821558D01*
X37418178Y-177933489D01*
X37366662Y-178057859D01*
X37340400Y-178189891D01*
X37340400Y-178324509D01*
X37366662Y-178456541D01*
X37418178Y-178580911D01*
X37492968Y-178692842D01*
X37588158Y-178788032D01*
X37700089Y-178862822D01*
X37770917Y-178892160D01*
X35465331Y-178892160D01*
X35363471Y-178790300D01*
X35363467Y-178790295D01*
X33172410Y-176599239D01*
X33172408Y-167944272D01*
X33174620Y-167921812D01*
X33165793Y-167832186D01*
X33139649Y-167746003D01*
X33097196Y-167666577D01*
X33054379Y-167614405D01*
X33054373Y-167614399D01*
X33040061Y-167596960D01*
X33022622Y-167582648D01*
X31522473Y-166082499D01*
X31543519Y-166063414D01*
X31711037Y-165837420D01*
X31831246Y-165583087D01*
X31871904Y-165449039D01*
X31749915Y-165227000D01*
X30607000Y-165227000D01*
X30607000Y-165247000D01*
X30353000Y-165247000D01*
X30353000Y-165227000D01*
X29210085Y-165227000D01*
X29088096Y-165449039D01*
X29128754Y-165583087D01*
X29248571Y-165836590D01*
X29221569Y-165836590D01*
X29004400Y-165619422D01*
X29004400Y-165515291D01*
X28978138Y-165383259D01*
X28926622Y-165258889D01*
X28851832Y-165146958D01*
X28756642Y-165051768D01*
X28644711Y-164976978D01*
X28520341Y-164925462D01*
X28388309Y-164899200D01*
X28253691Y-164899200D01*
X28121659Y-164925462D01*
X27997289Y-164976978D01*
X27885358Y-165051768D01*
X27790168Y-165146958D01*
X27715378Y-165258889D01*
X27689746Y-165320769D01*
X27161574Y-164792597D01*
X27147253Y-164775147D01*
X27117783Y-164750961D01*
X29088096Y-164750961D01*
X29210085Y-164973000D01*
X30353000Y-164973000D01*
X30353000Y-163829376D01*
X30607000Y-163829376D01*
X30607000Y-164973000D01*
X31749915Y-164973000D01*
X31871904Y-164750961D01*
X31831246Y-164616913D01*
X31711037Y-164362580D01*
X31543519Y-164136586D01*
X31335131Y-163947615D01*
X31093881Y-163802930D01*
X30829040Y-163708091D01*
X30607000Y-163829376D01*
X30353000Y-163829376D01*
X30130960Y-163708091D01*
X29866119Y-163802930D01*
X29624869Y-163947615D01*
X29416481Y-164136586D01*
X29248963Y-164362580D01*
X29128754Y-164616913D01*
X29088096Y-164750961D01*
X27117783Y-164750961D01*
X27077636Y-164718013D01*
X26998209Y-164675559D01*
X26912027Y-164649415D01*
X26844860Y-164642800D01*
X26844850Y-164642800D01*
X26822400Y-164640589D01*
X26799950Y-164642800D01*
X24042843Y-164642800D01*
X24042843Y-164300000D01*
X24035487Y-164225311D01*
X24013701Y-164153492D01*
X23978322Y-164087304D01*
X23930711Y-164029289D01*
X23872696Y-163981678D01*
X23806508Y-163946299D01*
X23734689Y-163924513D01*
X23660000Y-163917157D01*
X22060000Y-163917157D01*
X21985311Y-163924513D01*
X21913492Y-163946299D01*
X21847304Y-163981678D01*
X21789289Y-164029289D01*
X21741678Y-164087304D01*
X21706299Y-164153492D01*
X21684513Y-164225311D01*
X21677157Y-164300000D01*
X21677157Y-165900000D01*
X21684513Y-165974689D01*
X21706299Y-166046508D01*
X21741678Y-166112696D01*
X21789289Y-166170711D01*
X21847304Y-166218322D01*
X21913492Y-166253701D01*
X21985311Y-166275487D01*
X22060000Y-166282843D01*
X23660000Y-166282843D01*
X23734689Y-166275487D01*
X23806508Y-166253701D01*
X23872696Y-166218322D01*
X23930711Y-166170711D01*
X23978322Y-166112696D01*
X24013701Y-166046508D01*
X24035487Y-165974689D01*
X24042843Y-165900000D01*
X24042843Y-165557200D01*
X26633023Y-165557200D01*
X27981829Y-166906007D01*
X27996147Y-166923453D01*
X28013592Y-166937770D01*
X28065763Y-166980587D01*
X28108217Y-167003278D01*
X28145191Y-167023041D01*
X28231373Y-167049185D01*
X28298540Y-167055800D01*
X28298549Y-167055800D01*
X28320999Y-167058011D01*
X28343449Y-167055800D01*
X29453140Y-167055800D01*
X29385257Y-167182800D01*
X29384849Y-167182800D01*
X29362399Y-167180589D01*
X29339949Y-167182800D01*
X29339940Y-167182800D01*
X29272773Y-167189415D01*
X29186591Y-167215559D01*
X29149617Y-167235322D01*
X29107163Y-167258013D01*
X29080142Y-167280190D01*
X29037547Y-167315147D01*
X29023226Y-167332597D01*
X28775593Y-167580230D01*
X28758148Y-167594547D01*
X28743831Y-167611992D01*
X28743830Y-167611993D01*
X28701013Y-167664165D01*
X28658560Y-167743591D01*
X28632416Y-167829774D01*
X28623589Y-167919400D01*
X28625801Y-167941860D01*
X28625800Y-176125816D01*
X28623589Y-176148266D01*
X28625800Y-176170716D01*
X28625800Y-176170725D01*
X28632415Y-176237892D01*
X28658559Y-176324074D01*
X28701013Y-176403501D01*
X28758147Y-176473119D01*
X28775597Y-176487440D01*
X29366971Y-177078816D01*
X29381279Y-177096250D01*
X29398713Y-177110558D01*
X29398724Y-177110569D01*
X29450896Y-177153385D01*
X29478589Y-177168187D01*
X29383619Y-177345864D01*
X29316088Y-177568484D01*
X29293286Y-177800000D01*
X29316088Y-178031516D01*
X29383619Y-178254136D01*
X29493283Y-178459303D01*
X29640866Y-178639134D01*
X29820697Y-178786717D01*
X30025864Y-178896381D01*
X30248484Y-178963912D01*
X30421984Y-178981000D01*
X30538016Y-178981000D01*
X30711516Y-178963912D01*
X30934136Y-178896381D01*
X31139303Y-178786717D01*
X31319134Y-178639134D01*
X31466717Y-178459303D01*
X31491770Y-178412433D01*
X31526747Y-178455053D01*
X31544197Y-178469374D01*
X33950829Y-180876007D01*
X33965147Y-180893453D01*
X33982592Y-180907770D01*
X34034763Y-180950587D01*
X34077217Y-180973278D01*
X34114191Y-180993041D01*
X34200373Y-181019185D01*
X34267540Y-181025800D01*
X34267549Y-181025800D01*
X34289999Y-181028011D01*
X34312449Y-181025800D01*
X40517168Y-181025800D01*
X40515400Y-181034691D01*
X40515400Y-181169309D01*
X40522221Y-181203600D01*
X37766850Y-181203600D01*
X37744400Y-181201389D01*
X37721950Y-181203600D01*
X37721940Y-181203600D01*
X37654773Y-181210215D01*
X37568591Y-181236359D01*
X37489164Y-181278813D01*
X37419547Y-181335947D01*
X37405230Y-181353392D01*
X36640623Y-182118000D01*
X32970474Y-182118000D01*
X32896842Y-182044368D01*
X32784911Y-181969578D01*
X32660541Y-181918062D01*
X32528509Y-181891800D01*
X32393891Y-181891800D01*
X32261859Y-181918062D01*
X32137489Y-181969578D01*
X32025558Y-182044368D01*
X31930368Y-182139558D01*
X31910798Y-182168846D01*
X31905432Y-182158806D01*
X31890588Y-182131034D01*
X31847771Y-182078863D01*
X31833454Y-182061418D01*
X31816010Y-182047102D01*
X31312903Y-181543996D01*
X31298582Y-181526546D01*
X31228965Y-181469412D01*
X31149538Y-181426958D01*
X31063356Y-181400814D01*
X31010429Y-181395601D01*
X31139303Y-181326717D01*
X31319134Y-181179134D01*
X31466717Y-180999303D01*
X31576381Y-180794136D01*
X31643912Y-180571516D01*
X31666714Y-180340000D01*
X31643912Y-180108484D01*
X31576381Y-179885864D01*
X31466717Y-179680697D01*
X31319134Y-179500866D01*
X31139303Y-179353283D01*
X30934136Y-179243619D01*
X30711516Y-179176088D01*
X30538016Y-179159000D01*
X30421984Y-179159000D01*
X30248484Y-179176088D01*
X30025864Y-179243619D01*
X29820697Y-179353283D01*
X29640866Y-179500866D01*
X29493283Y-179680697D01*
X29383619Y-179885864D01*
X29329271Y-180065024D01*
X26756844Y-177492597D01*
X26742523Y-177475147D01*
X26672906Y-177418013D01*
X26593479Y-177375559D01*
X26507297Y-177349415D01*
X26440130Y-177342800D01*
X26440120Y-177342800D01*
X26417670Y-177340589D01*
X26395220Y-177342800D01*
X23954743Y-177342800D01*
X23846717Y-177140697D01*
X23699134Y-176960866D01*
X23519303Y-176813283D01*
X23314136Y-176703619D01*
X23091516Y-176636088D01*
X22918016Y-176619000D01*
X22801984Y-176619000D01*
X22628484Y-176636088D01*
X22405864Y-176703619D01*
X22200697Y-176813283D01*
X22020866Y-176960866D01*
X21873283Y-177140697D01*
X21763619Y-177345864D01*
X21696088Y-177568484D01*
X21673286Y-177800000D01*
X21696088Y-178031516D01*
X21763619Y-178254136D01*
X21873283Y-178459303D01*
X22020866Y-178639134D01*
X22200697Y-178786717D01*
X22405864Y-178896381D01*
X22628484Y-178963912D01*
X22801984Y-178981000D01*
X22918016Y-178981000D01*
X23091516Y-178963912D01*
X23314136Y-178896381D01*
X23519303Y-178786717D01*
X23699134Y-178639134D01*
X23846717Y-178459303D01*
X23954743Y-178257200D01*
X26228293Y-178257200D01*
X29849161Y-181878069D01*
X29820697Y-181893283D01*
X29640866Y-182040866D01*
X29493283Y-182220697D01*
X29383619Y-182425864D01*
X29316088Y-182648484D01*
X29293286Y-182880000D01*
X29316088Y-183111516D01*
X29383619Y-183334136D01*
X29493283Y-183539303D01*
X29640866Y-183719134D01*
X29820697Y-183866717D01*
X30025864Y-183976381D01*
X30248484Y-184043912D01*
X30421984Y-184061000D01*
X30538016Y-184061000D01*
X30711516Y-184043912D01*
X30934136Y-183976381D01*
X31051402Y-183913701D01*
X31051402Y-184241939D01*
X31049190Y-184264399D01*
X31051402Y-184286859D01*
X31058017Y-184354026D01*
X31070982Y-184396765D01*
X30934136Y-184323619D01*
X30711516Y-184256088D01*
X30538016Y-184239000D01*
X30421984Y-184239000D01*
X30248484Y-184256088D01*
X30025864Y-184323619D01*
X29820697Y-184433283D01*
X29640866Y-184580866D01*
X29493283Y-184760697D01*
X29383619Y-184965864D01*
X29316088Y-185188484D01*
X29293286Y-185420000D01*
X29316088Y-185651516D01*
X29383619Y-185874136D01*
X29493283Y-186079303D01*
X29640866Y-186259134D01*
X29820697Y-186406717D01*
X30025864Y-186516381D01*
X30248484Y-186583912D01*
X30421984Y-186601000D01*
X30538016Y-186601000D01*
X30711516Y-186583912D01*
X30934136Y-186516381D01*
X31139303Y-186406717D01*
X31319134Y-186259134D01*
X31466717Y-186079303D01*
X31576381Y-185874136D01*
X31643912Y-185651516D01*
X31666714Y-185420000D01*
X31643912Y-185188484D01*
X31581995Y-184984370D01*
X32689800Y-186092176D01*
X32689801Y-186794541D01*
X32687589Y-186817000D01*
X32689801Y-186839460D01*
X32696416Y-186906627D01*
X32720931Y-186987440D01*
X32722560Y-186992809D01*
X32765013Y-187072235D01*
X32805691Y-187121800D01*
X32822148Y-187141853D01*
X32839592Y-187156169D01*
X33673834Y-187990412D01*
X33688146Y-188007852D01*
X33705585Y-188022164D01*
X33705591Y-188022170D01*
X33757763Y-188064986D01*
X33837189Y-188107440D01*
X33923372Y-188133584D01*
X33990539Y-188140199D01*
X33990547Y-188140199D01*
X34012999Y-188142410D01*
X34035451Y-188140199D01*
X35347622Y-188140199D01*
X35384600Y-188177177D01*
X35384600Y-188281309D01*
X35410862Y-188413341D01*
X35462378Y-188537711D01*
X35537168Y-188649642D01*
X35632358Y-188744832D01*
X35744289Y-188819622D01*
X35868659Y-188871138D01*
X36000691Y-188897400D01*
X36135309Y-188897400D01*
X36267341Y-188871138D01*
X36296601Y-188859018D01*
X36296600Y-191955459D01*
X35894557Y-192357502D01*
X35767059Y-192382862D01*
X35642689Y-192434378D01*
X35530758Y-192509168D01*
X35435568Y-192604358D01*
X35360778Y-192716289D01*
X35309262Y-192840659D01*
X35283000Y-192972691D01*
X35283000Y-193107309D01*
X35289235Y-193138658D01*
X32179400Y-190028823D01*
X32179400Y-189924691D01*
X32178109Y-189918199D01*
X33655551Y-189918199D01*
X33678001Y-189920410D01*
X33700451Y-189918199D01*
X33700461Y-189918199D01*
X33767628Y-189911584D01*
X33793343Y-189903783D01*
X33841691Y-189913400D01*
X33976309Y-189913400D01*
X34108341Y-189887138D01*
X34232711Y-189835622D01*
X34344642Y-189760832D01*
X34439832Y-189665642D01*
X34514622Y-189553711D01*
X34566138Y-189429341D01*
X34592400Y-189297309D01*
X34592400Y-189162691D01*
X34566138Y-189030659D01*
X34514622Y-188906289D01*
X34439832Y-188794358D01*
X34344642Y-188699168D01*
X34232711Y-188624378D01*
X34108341Y-188572862D01*
X33976309Y-188546600D01*
X33841691Y-188546600D01*
X33709659Y-188572862D01*
X33585289Y-188624378D01*
X33473358Y-188699168D01*
X33378168Y-188794358D01*
X33303378Y-188906289D01*
X33262988Y-189003799D01*
X31032510Y-189003799D01*
X31139303Y-188946717D01*
X31319134Y-188799134D01*
X31466717Y-188619303D01*
X31576381Y-188414136D01*
X31643912Y-188191516D01*
X31666714Y-187960000D01*
X31643912Y-187728484D01*
X31576381Y-187505864D01*
X31466717Y-187300697D01*
X31319134Y-187120866D01*
X31139303Y-186973283D01*
X30934136Y-186863619D01*
X30711516Y-186796088D01*
X30538016Y-186779000D01*
X30421984Y-186779000D01*
X30248484Y-186796088D01*
X30025864Y-186863619D01*
X29820697Y-186973283D01*
X29640866Y-187120866D01*
X29493283Y-187300697D01*
X29383619Y-187505864D01*
X29316088Y-187728484D01*
X29293286Y-187960000D01*
X29316088Y-188191516D01*
X29383619Y-188414136D01*
X29493283Y-188619303D01*
X29640866Y-188799134D01*
X29820697Y-188946717D01*
X29927490Y-189003799D01*
X27725377Y-189003799D01*
X26365200Y-187643623D01*
X26365200Y-185566613D01*
X26366061Y-185570942D01*
X26417577Y-185695312D01*
X26492367Y-185807243D01*
X26587557Y-185902433D01*
X26699488Y-185977223D01*
X26823858Y-186028739D01*
X26955890Y-186055001D01*
X27090508Y-186055001D01*
X27222540Y-186028739D01*
X27346910Y-185977223D01*
X27458841Y-185902433D01*
X27554031Y-185807243D01*
X27628821Y-185695312D01*
X27680337Y-185570942D01*
X27680823Y-185568497D01*
X27707558Y-185595232D01*
X27819489Y-185670022D01*
X27943859Y-185721538D01*
X28075891Y-185747800D01*
X28210509Y-185747800D01*
X28342541Y-185721538D01*
X28466911Y-185670022D01*
X28578842Y-185595232D01*
X28674032Y-185500042D01*
X28748822Y-185388111D01*
X28800338Y-185263741D01*
X28826600Y-185131709D01*
X28826600Y-184997091D01*
X28800338Y-184865059D01*
X28748822Y-184740689D01*
X28674032Y-184628758D01*
X28600400Y-184555126D01*
X28600400Y-184064579D01*
X28698141Y-184045138D01*
X28822511Y-183993622D01*
X28934442Y-183918832D01*
X29029632Y-183823642D01*
X29104422Y-183711711D01*
X29155938Y-183587341D01*
X29182200Y-183455309D01*
X29182200Y-183320691D01*
X29155938Y-183188659D01*
X29104422Y-183064289D01*
X29029632Y-182952358D01*
X28934442Y-182857168D01*
X28892585Y-182829200D01*
X28934442Y-182801232D01*
X29029632Y-182706042D01*
X29104422Y-182594111D01*
X29155938Y-182469741D01*
X29182200Y-182337709D01*
X29182200Y-182203091D01*
X29155938Y-182071059D01*
X29104422Y-181946689D01*
X29029632Y-181834758D01*
X28934442Y-181739568D01*
X28822511Y-181664778D01*
X28698141Y-181613262D01*
X28566109Y-181587000D01*
X28431491Y-181587000D01*
X28299459Y-181613262D01*
X28175089Y-181664778D01*
X28063158Y-181739568D01*
X27967968Y-181834758D01*
X27893178Y-181946689D01*
X27841662Y-182071059D01*
X27815400Y-182203091D01*
X27815400Y-182307222D01*
X27018191Y-183104432D01*
X27000746Y-183118749D01*
X26986429Y-183136194D01*
X26986428Y-183136195D01*
X26943611Y-183188367D01*
X26915640Y-183240698D01*
X26901158Y-183267793D01*
X26875014Y-183353975D01*
X26872055Y-183384022D01*
X26866187Y-183443602D01*
X26868399Y-183466062D01*
X26868398Y-184705604D01*
X26823858Y-184714463D01*
X26699488Y-184765979D01*
X26587557Y-184840769D01*
X26492367Y-184935959D01*
X26417577Y-185047890D01*
X26366061Y-185172260D01*
X26365200Y-185176589D01*
X26365200Y-183410450D01*
X26367411Y-183388000D01*
X26365200Y-183365550D01*
X26365200Y-183365540D01*
X26358585Y-183298373D01*
X26332441Y-183212191D01*
X26289987Y-183132764D01*
X26232853Y-183063147D01*
X26215408Y-183048830D01*
X23957389Y-180790812D01*
X24023912Y-180571516D01*
X24046714Y-180340000D01*
X24023912Y-180108484D01*
X23956381Y-179885864D01*
X23846717Y-179680697D01*
X23699134Y-179500866D01*
X23519303Y-179353283D01*
X23314136Y-179243619D01*
X23091516Y-179176088D01*
X22918016Y-179159000D01*
X22801984Y-179159000D01*
X22628484Y-179176088D01*
X22405864Y-179243619D01*
X22200697Y-179353283D01*
X22020866Y-179500866D01*
X21873283Y-179680697D01*
X21763619Y-179885864D01*
X21696088Y-180108484D01*
X21673286Y-180340000D01*
X21696088Y-180571516D01*
X21763619Y-180794136D01*
X21873283Y-180999303D01*
X22020866Y-181179134D01*
X22200697Y-181326717D01*
X22405864Y-181436381D01*
X22628484Y-181503912D01*
X22801984Y-181521000D01*
X22918016Y-181521000D01*
X23091516Y-181503912D01*
X23310812Y-181437389D01*
X25450800Y-183577378D01*
X25450801Y-185921925D01*
X25365709Y-185905000D01*
X25332824Y-185905000D01*
X25345938Y-185873341D01*
X25372200Y-185741309D01*
X25372200Y-185606691D01*
X25345938Y-185474659D01*
X25294422Y-185350289D01*
X25219632Y-185238358D01*
X25124442Y-185143168D01*
X25012511Y-185068378D01*
X24888141Y-185016862D01*
X24756109Y-184990600D01*
X24621491Y-184990600D01*
X24489459Y-185016862D01*
X24365089Y-185068378D01*
X24253158Y-185143168D01*
X24157968Y-185238358D01*
X24083178Y-185350289D01*
X24044347Y-185444035D01*
X24046714Y-185420000D01*
X24023912Y-185188484D01*
X23956381Y-184965864D01*
X23846717Y-184760697D01*
X23699134Y-184580866D01*
X23519303Y-184433283D01*
X23314136Y-184323619D01*
X23091516Y-184256088D01*
X22918016Y-184239000D01*
X22801984Y-184239000D01*
X22628484Y-184256088D01*
X22405864Y-184323619D01*
X22200697Y-184433283D01*
X22020866Y-184580866D01*
X21873283Y-184760697D01*
X21763619Y-184965864D01*
X21696088Y-185188484D01*
X21673286Y-185420000D01*
X21696088Y-185651516D01*
X21763619Y-185874136D01*
X21873283Y-186079303D01*
X22020866Y-186259134D01*
X22200697Y-186406717D01*
X22405864Y-186516381D01*
X22628484Y-186583912D01*
X22801984Y-186601000D01*
X22918016Y-186601000D01*
X23091516Y-186583912D01*
X23314136Y-186516381D01*
X23519303Y-186406717D01*
X23699134Y-186259134D01*
X23846717Y-186079303D01*
X23956381Y-185874136D01*
X24005400Y-185712542D01*
X24005400Y-185741309D01*
X24031662Y-185873341D01*
X24083178Y-185997711D01*
X24157968Y-186109642D01*
X24231601Y-186183275D01*
X24231600Y-190158222D01*
X23709623Y-190680200D01*
X23605491Y-190680200D01*
X23473459Y-190706462D01*
X23349089Y-190757978D01*
X23237158Y-190832768D01*
X23141968Y-190927958D01*
X23067178Y-191039889D01*
X23015662Y-191164259D01*
X22989400Y-191296291D01*
X22989400Y-191430909D01*
X23015662Y-191562941D01*
X23067178Y-191687311D01*
X23141968Y-191799242D01*
X23237158Y-191894432D01*
X23349089Y-191969222D01*
X23473459Y-192020738D01*
X23605491Y-192047000D01*
X23740109Y-192047000D01*
X23872141Y-192020738D01*
X23996511Y-191969222D01*
X24108442Y-191894432D01*
X24203632Y-191799242D01*
X24278422Y-191687311D01*
X24329938Y-191562941D01*
X24356200Y-191430909D01*
X24356200Y-191326777D01*
X24902665Y-190780313D01*
X24916413Y-190806035D01*
X24973547Y-190875653D01*
X24990997Y-190889974D01*
X29250022Y-195149000D01*
X15671000Y-195149000D01*
X15671000Y-193890000D01*
X16291928Y-193890000D01*
X16304188Y-194014482D01*
X16340498Y-194134180D01*
X16399463Y-194244494D01*
X16478815Y-194341185D01*
X16575506Y-194420537D01*
X16685820Y-194479502D01*
X16805518Y-194515812D01*
X16930000Y-194528072D01*
X17494250Y-194525000D01*
X17653000Y-194366250D01*
X17653000Y-193167000D01*
X16453750Y-193167000D01*
X16295000Y-193325750D01*
X16291928Y-193890000D01*
X15671000Y-193890000D01*
X15671000Y-192190000D01*
X16291928Y-192190000D01*
X16295000Y-192754250D01*
X16453750Y-192913000D01*
X17653000Y-192913000D01*
X17653000Y-191713750D01*
X17907000Y-191713750D01*
X17907000Y-192913000D01*
X17927000Y-192913000D01*
X17927000Y-193167000D01*
X17907000Y-193167000D01*
X17907000Y-194366250D01*
X18065750Y-194525000D01*
X18630000Y-194528072D01*
X18754482Y-194515812D01*
X18874180Y-194479502D01*
X18984494Y-194420537D01*
X19081185Y-194341185D01*
X19160537Y-194244494D01*
X19219502Y-194134180D01*
X19255812Y-194014482D01*
X19268072Y-193890000D01*
X19266935Y-193681242D01*
X19291509Y-193727216D01*
X19445340Y-193914660D01*
X19632784Y-194068491D01*
X19846637Y-194182798D01*
X20078682Y-194253188D01*
X20259528Y-194271000D01*
X20380472Y-194271000D01*
X20561318Y-194253188D01*
X20793363Y-194182798D01*
X21007216Y-194068491D01*
X21194660Y-193914660D01*
X21280684Y-193809839D01*
X21288462Y-193848941D01*
X21339978Y-193973311D01*
X21414768Y-194085242D01*
X21509958Y-194180432D01*
X21621889Y-194255222D01*
X21746259Y-194306738D01*
X21878291Y-194333000D01*
X22012909Y-194333000D01*
X22144941Y-194306738D01*
X22269311Y-194255222D01*
X22320378Y-194221100D01*
X23176226Y-194221100D01*
X23186358Y-194231232D01*
X23298289Y-194306022D01*
X23422659Y-194357538D01*
X23554691Y-194383800D01*
X23689309Y-194383800D01*
X23821341Y-194357538D01*
X23945711Y-194306022D01*
X24057642Y-194231232D01*
X24152832Y-194136042D01*
X24227622Y-194024111D01*
X24279138Y-193899741D01*
X24305400Y-193767709D01*
X24305400Y-193633091D01*
X24279138Y-193501059D01*
X24227622Y-193376689D01*
X24152832Y-193264758D01*
X24057642Y-193169568D01*
X23945711Y-193094778D01*
X23821341Y-193043262D01*
X23689309Y-193017000D01*
X23554691Y-193017000D01*
X23422659Y-193043262D01*
X23338553Y-193078100D01*
X22320378Y-193078100D01*
X22269311Y-193043978D01*
X22144941Y-192992462D01*
X22012909Y-192966200D01*
X21878291Y-192966200D01*
X21746259Y-192992462D01*
X21621889Y-193043978D01*
X21551962Y-193090702D01*
X21556956Y-193040000D01*
X21533188Y-192798682D01*
X21462798Y-192566637D01*
X21348491Y-192352784D01*
X21194660Y-192165340D01*
X21007216Y-192011509D01*
X20793363Y-191897202D01*
X20561318Y-191826812D01*
X20380472Y-191809000D01*
X20259528Y-191809000D01*
X20078682Y-191826812D01*
X19846637Y-191897202D01*
X19632784Y-192011509D01*
X19445340Y-192165340D01*
X19291509Y-192352784D01*
X19266935Y-192398758D01*
X19268072Y-192190000D01*
X19255812Y-192065518D01*
X19219502Y-191945820D01*
X19160537Y-191835506D01*
X19081185Y-191738815D01*
X18984494Y-191659463D01*
X18874180Y-191600498D01*
X18754482Y-191564188D01*
X18630000Y-191551928D01*
X18065750Y-191555000D01*
X17907000Y-191713750D01*
X17653000Y-191713750D01*
X17494250Y-191555000D01*
X16930000Y-191551928D01*
X16805518Y-191564188D01*
X16685820Y-191600498D01*
X16575506Y-191659463D01*
X16478815Y-191738815D01*
X16399463Y-191835506D01*
X16340498Y-191945820D01*
X16304188Y-192065518D01*
X16291928Y-192190000D01*
X15671000Y-192190000D01*
X15671000Y-187960000D01*
X21673286Y-187960000D01*
X21696088Y-188191516D01*
X21763619Y-188414136D01*
X21873283Y-188619303D01*
X22020866Y-188799134D01*
X22200697Y-188946717D01*
X22405864Y-189056381D01*
X22628484Y-189123912D01*
X22801984Y-189141000D01*
X22918016Y-189141000D01*
X23091516Y-189123912D01*
X23314136Y-189056381D01*
X23519303Y-188946717D01*
X23699134Y-188799134D01*
X23846717Y-188619303D01*
X23956381Y-188414136D01*
X24023912Y-188191516D01*
X24046714Y-187960000D01*
X24023912Y-187728484D01*
X23956381Y-187505864D01*
X23846717Y-187300697D01*
X23699134Y-187120866D01*
X23519303Y-186973283D01*
X23314136Y-186863619D01*
X23091516Y-186796088D01*
X22918016Y-186779000D01*
X22801984Y-186779000D01*
X22628484Y-186796088D01*
X22405864Y-186863619D01*
X22200697Y-186973283D01*
X22020866Y-187120866D01*
X21873283Y-187300697D01*
X21763619Y-187505864D01*
X21696088Y-187728484D01*
X21673286Y-187960000D01*
X15671000Y-187960000D01*
X15671000Y-182880000D01*
X21673286Y-182880000D01*
X21696088Y-183111516D01*
X21763619Y-183334136D01*
X21873283Y-183539303D01*
X22020866Y-183719134D01*
X22200697Y-183866717D01*
X22405864Y-183976381D01*
X22628484Y-184043912D01*
X22801984Y-184061000D01*
X22918016Y-184061000D01*
X23091516Y-184043912D01*
X23314136Y-183976381D01*
X23519303Y-183866717D01*
X23699134Y-183719134D01*
X23846717Y-183539303D01*
X23956381Y-183334136D01*
X24023912Y-183111516D01*
X24046714Y-182880000D01*
X24023912Y-182648484D01*
X23956381Y-182425864D01*
X23846717Y-182220697D01*
X23699134Y-182040866D01*
X23519303Y-181893283D01*
X23314136Y-181783619D01*
X23091516Y-181716088D01*
X22918016Y-181699000D01*
X22801984Y-181699000D01*
X22628484Y-181716088D01*
X22405864Y-181783619D01*
X22200697Y-181893283D01*
X22020866Y-182040866D01*
X21873283Y-182220697D01*
X21763619Y-182425864D01*
X21696088Y-182648484D01*
X21673286Y-182880000D01*
X15671000Y-182880000D01*
X15671000Y-175260000D01*
X21673286Y-175260000D01*
X21696088Y-175491516D01*
X21763619Y-175714136D01*
X21873283Y-175919303D01*
X22020866Y-176099134D01*
X22200697Y-176246717D01*
X22405864Y-176356381D01*
X22628484Y-176423912D01*
X22801984Y-176441000D01*
X22918016Y-176441000D01*
X23091516Y-176423912D01*
X23314136Y-176356381D01*
X23519303Y-176246717D01*
X23699134Y-176099134D01*
X23846717Y-175919303D01*
X23956381Y-175714136D01*
X24023912Y-175491516D01*
X24046714Y-175260000D01*
X24023912Y-175028484D01*
X23956381Y-174805864D01*
X23846717Y-174600697D01*
X23699134Y-174420866D01*
X23519303Y-174273283D01*
X23314136Y-174163619D01*
X23091516Y-174096088D01*
X22918016Y-174079000D01*
X22801984Y-174079000D01*
X22628484Y-174096088D01*
X22405864Y-174163619D01*
X22200697Y-174273283D01*
X22020866Y-174420866D01*
X21873283Y-174600697D01*
X21763619Y-174805864D01*
X21696088Y-175028484D01*
X21673286Y-175260000D01*
X15671000Y-175260000D01*
X15671000Y-172720000D01*
X21673286Y-172720000D01*
X21696088Y-172951516D01*
X21763619Y-173174136D01*
X21873283Y-173379303D01*
X22020866Y-173559134D01*
X22200697Y-173706717D01*
X22405864Y-173816381D01*
X22628484Y-173883912D01*
X22801984Y-173901000D01*
X22918016Y-173901000D01*
X23091516Y-173883912D01*
X23314136Y-173816381D01*
X23519303Y-173706717D01*
X23699134Y-173559134D01*
X23846717Y-173379303D01*
X23954743Y-173177200D01*
X26926950Y-173177200D01*
X26949400Y-173179411D01*
X26971850Y-173177200D01*
X26971860Y-173177200D01*
X27039027Y-173170585D01*
X27125209Y-173144441D01*
X27204636Y-173101987D01*
X27270662Y-173047800D01*
X27372309Y-173047800D01*
X27504341Y-173021538D01*
X27628711Y-172970022D01*
X27740642Y-172895232D01*
X27835832Y-172800042D01*
X27910622Y-172688111D01*
X27962138Y-172563741D01*
X27988400Y-172431709D01*
X27988400Y-172297091D01*
X27962138Y-172165059D01*
X27910622Y-172040689D01*
X27835832Y-171928758D01*
X27740642Y-171833568D01*
X27628711Y-171758778D01*
X27504341Y-171707262D01*
X27372309Y-171681000D01*
X27237691Y-171681000D01*
X27105659Y-171707262D01*
X26981289Y-171758778D01*
X26869358Y-171833568D01*
X26774168Y-171928758D01*
X26699378Y-172040689D01*
X26647862Y-172165059D01*
X26628421Y-172262800D01*
X23954743Y-172262800D01*
X23846717Y-172060697D01*
X23699134Y-171880866D01*
X23519303Y-171733283D01*
X23314136Y-171623619D01*
X23091516Y-171556088D01*
X22918016Y-171539000D01*
X22801984Y-171539000D01*
X22628484Y-171556088D01*
X22405864Y-171623619D01*
X22200697Y-171733283D01*
X22020866Y-171880866D01*
X21873283Y-172060697D01*
X21763619Y-172265864D01*
X21696088Y-172488484D01*
X21673286Y-172720000D01*
X15671000Y-172720000D01*
X15671000Y-170180000D01*
X21673286Y-170180000D01*
X21696088Y-170411516D01*
X21763619Y-170634136D01*
X21873283Y-170839303D01*
X22020866Y-171019134D01*
X22200697Y-171166717D01*
X22405864Y-171276381D01*
X22628484Y-171343912D01*
X22801984Y-171361000D01*
X22918016Y-171361000D01*
X23091516Y-171343912D01*
X23314136Y-171276381D01*
X23519303Y-171166717D01*
X23699134Y-171019134D01*
X23846717Y-170839303D01*
X23956381Y-170634136D01*
X24023912Y-170411516D01*
X24046714Y-170180000D01*
X24023912Y-169948484D01*
X23956381Y-169725864D01*
X23846717Y-169520697D01*
X23699134Y-169340866D01*
X23519303Y-169193283D01*
X23314136Y-169083619D01*
X23091516Y-169016088D01*
X22918016Y-168999000D01*
X22801984Y-168999000D01*
X22628484Y-169016088D01*
X22405864Y-169083619D01*
X22200697Y-169193283D01*
X22020866Y-169340866D01*
X21873283Y-169520697D01*
X21763619Y-169725864D01*
X21696088Y-169948484D01*
X21673286Y-170180000D01*
X15671000Y-170180000D01*
X15671000Y-167640000D01*
X21673286Y-167640000D01*
X21696088Y-167871516D01*
X21763619Y-168094136D01*
X21873283Y-168299303D01*
X22020866Y-168479134D01*
X22200697Y-168626717D01*
X22405864Y-168736381D01*
X22628484Y-168803912D01*
X22801984Y-168821000D01*
X22918016Y-168821000D01*
X23091516Y-168803912D01*
X23314136Y-168736381D01*
X23519303Y-168626717D01*
X23699134Y-168479134D01*
X23846717Y-168299303D01*
X23956381Y-168094136D01*
X24023912Y-167871516D01*
X24046714Y-167640000D01*
X24023912Y-167408484D01*
X23956381Y-167185864D01*
X23846717Y-166980697D01*
X23699134Y-166800866D01*
X23519303Y-166653283D01*
X23314136Y-166543619D01*
X23091516Y-166476088D01*
X22918016Y-166459000D01*
X22801984Y-166459000D01*
X22628484Y-166476088D01*
X22405864Y-166543619D01*
X22200697Y-166653283D01*
X22020866Y-166800866D01*
X21873283Y-166980697D01*
X21763619Y-167185864D01*
X21696088Y-167408484D01*
X21673286Y-167640000D01*
X15671000Y-167640000D01*
X15671000Y-162356000D01*
X69419001Y-162356000D01*
X69419000Y-195149000D01*
X69419000Y-195149000D01*
G37*
X69419000Y-195149000D02*
X46546845Y-195149000D01*
X46580338Y-195068141D01*
X46594142Y-194998740D01*
X46646373Y-195014585D01*
X46713540Y-195021200D01*
X46713550Y-195021200D01*
X46736000Y-195023411D01*
X46758450Y-195021200D01*
X64315750Y-195021200D01*
X64338200Y-195023411D01*
X64360650Y-195021200D01*
X64360660Y-195021200D01*
X64427827Y-195014585D01*
X64514009Y-194988441D01*
X64593436Y-194945987D01*
X64663053Y-194888853D01*
X64677374Y-194871403D01*
X67084009Y-192464769D01*
X67101453Y-192450453D01*
X67115770Y-192433008D01*
X67158587Y-192380837D01*
X67201040Y-192301410D01*
X67201041Y-192301409D01*
X67227185Y-192215227D01*
X67233800Y-192148060D01*
X67233800Y-192148051D01*
X67236011Y-192125601D01*
X67233800Y-192103151D01*
X67233800Y-188084049D01*
X67236011Y-188061599D01*
X67233800Y-188039149D01*
X67233800Y-188039140D01*
X67227185Y-187971973D01*
X67201041Y-187885791D01*
X67172824Y-187833000D01*
X67158587Y-187806363D01*
X67115770Y-187754192D01*
X67101453Y-187736747D01*
X67084008Y-187722430D01*
X65769574Y-186407997D01*
X65769570Y-186407992D01*
X65232389Y-185870812D01*
X65298912Y-185651516D01*
X65321714Y-185420000D01*
X65298912Y-185188484D01*
X65231381Y-184965864D01*
X65121717Y-184760697D01*
X64974134Y-184580866D01*
X64794303Y-184433283D01*
X64589136Y-184323619D01*
X64366516Y-184256088D01*
X64193016Y-184239000D01*
X64076984Y-184239000D01*
X63903484Y-184256088D01*
X63680864Y-184323619D01*
X63475697Y-184433283D01*
X63295866Y-184580866D01*
X63246000Y-184641628D01*
X63246000Y-184415577D01*
X63684188Y-183977389D01*
X63903484Y-184043912D01*
X64076984Y-184061000D01*
X64193016Y-184061000D01*
X64366516Y-184043912D01*
X64589136Y-183976381D01*
X64794303Y-183866717D01*
X64974134Y-183719134D01*
X65121717Y-183539303D01*
X65231381Y-183334136D01*
X65298912Y-183111516D01*
X65321714Y-182880000D01*
X65298912Y-182648484D01*
X65231381Y-182425864D01*
X65121717Y-182220697D01*
X64974134Y-182040866D01*
X64794303Y-181893283D01*
X64589136Y-181783619D01*
X64366516Y-181716088D01*
X64193016Y-181699000D01*
X64076984Y-181699000D01*
X63903484Y-181716088D01*
X63680864Y-181783619D01*
X63475697Y-181893283D01*
X63295866Y-182040866D01*
X63148283Y-182220697D01*
X63038619Y-182425864D01*
X62971088Y-182648484D01*
X62948286Y-182880000D01*
X62971088Y-183111516D01*
X63037611Y-183330812D01*
X62481394Y-183887029D01*
X62463948Y-183901347D01*
X62449631Y-183918792D01*
X62449630Y-183918793D01*
X62406813Y-183970965D01*
X62380572Y-184020060D01*
X62364360Y-184050391D01*
X62338216Y-184136573D01*
X62336825Y-184150694D01*
X62329389Y-184226200D01*
X62331601Y-184248660D01*
X62331600Y-188902750D01*
X62329389Y-188925200D01*
X62331600Y-188947650D01*
X62331600Y-188947659D01*
X62338215Y-189014826D01*
X62364359Y-189101008D01*
X62406813Y-189180435D01*
X62463947Y-189250053D01*
X62481397Y-189264374D01*
X63550801Y-190333779D01*
X63550800Y-190564622D01*
X63536822Y-190578600D01*
X63432691Y-190578600D01*
X63300659Y-190604862D01*
X63176289Y-190656378D01*
X63064358Y-190731168D01*
X62969168Y-190826358D01*
X62894378Y-190938289D01*
X62842862Y-191062659D01*
X62836454Y-191094876D01*
X58365573Y-186623996D01*
X58351252Y-186606546D01*
X58281635Y-186549412D01*
X58202208Y-186506958D01*
X58116026Y-186480814D01*
X58048859Y-186474199D01*
X58048849Y-186474199D01*
X58026399Y-186471988D01*
X58003949Y-186474199D01*
X57048053Y-186474199D01*
X57174303Y-186406717D01*
X57354134Y-186259134D01*
X57501717Y-186079303D01*
X57611381Y-185874136D01*
X57678912Y-185651516D01*
X57701714Y-185420000D01*
X57678912Y-185188484D01*
X57611381Y-184965864D01*
X57501717Y-184760697D01*
X57354134Y-184580866D01*
X57174303Y-184433283D01*
X56969136Y-184323619D01*
X56746516Y-184256088D01*
X56573016Y-184239000D01*
X56456984Y-184239000D01*
X56283484Y-184256088D01*
X56060864Y-184323619D01*
X55855697Y-184433283D01*
X55675866Y-184580866D01*
X55528283Y-184760697D01*
X55418619Y-184965864D01*
X55351088Y-185188484D01*
X55328286Y-185420000D01*
X55351088Y-185651516D01*
X55418619Y-185874136D01*
X55528283Y-186079303D01*
X55675866Y-186259134D01*
X55855697Y-186406717D01*
X55981947Y-186474199D01*
X52950594Y-186474199D01*
X53031341Y-186458138D01*
X53155711Y-186406622D01*
X53267642Y-186331832D01*
X53362832Y-186236642D01*
X53437622Y-186124711D01*
X53489138Y-186000341D01*
X53515400Y-185868309D01*
X53515400Y-185764177D01*
X55142379Y-184137199D01*
X55692551Y-184137199D01*
X55715001Y-184139410D01*
X55737451Y-184137199D01*
X55737461Y-184137199D01*
X55804628Y-184130584D01*
X55890810Y-184104440D01*
X55970237Y-184061986D01*
X56039854Y-184004852D01*
X56054175Y-183987402D01*
X56064188Y-183977389D01*
X56283484Y-184043912D01*
X56456984Y-184061000D01*
X56573016Y-184061000D01*
X56746516Y-184043912D01*
X56969136Y-183976381D01*
X57174303Y-183866717D01*
X57354134Y-183719134D01*
X57501717Y-183539303D01*
X57611381Y-183334136D01*
X57678912Y-183111516D01*
X57701714Y-182880000D01*
X57678912Y-182648484D01*
X57611381Y-182425864D01*
X57501717Y-182220697D01*
X57354134Y-182040866D01*
X57174303Y-181893283D01*
X56969136Y-181783619D01*
X56746516Y-181716088D01*
X56573016Y-181699000D01*
X56456984Y-181699000D01*
X56283484Y-181716088D01*
X56060864Y-181783619D01*
X55855697Y-181893283D01*
X55675866Y-182040866D01*
X55528283Y-182220697D01*
X55418619Y-182425864D01*
X55351088Y-182648484D01*
X55328286Y-182880000D01*
X55351088Y-183111516D01*
X55384845Y-183222799D01*
X54975450Y-183222799D01*
X54953000Y-183220588D01*
X54930550Y-183222799D01*
X54930541Y-183222799D01*
X54863374Y-183229414D01*
X54777192Y-183255558D01*
X54759823Y-183264842D01*
X54697764Y-183298012D01*
X54659095Y-183329748D01*
X54635400Y-183349194D01*
X54635400Y-180340000D01*
X55328286Y-180340000D01*
X55351088Y-180571516D01*
X55418619Y-180794136D01*
X55528283Y-180999303D01*
X55675866Y-181179134D01*
X55855697Y-181326717D01*
X56060864Y-181436381D01*
X56283484Y-181503912D01*
X56456984Y-181521000D01*
X56573016Y-181521000D01*
X56746516Y-181503912D01*
X56969136Y-181436381D01*
X57174303Y-181326717D01*
X57354134Y-181179134D01*
X57501717Y-180999303D01*
X57611381Y-180794136D01*
X57678912Y-180571516D01*
X57701714Y-180340000D01*
X57678912Y-180108484D01*
X57611381Y-179885864D01*
X57501717Y-179680697D01*
X57354134Y-179500866D01*
X57174303Y-179353283D01*
X56969136Y-179243619D01*
X56746516Y-179176088D01*
X56573016Y-179159000D01*
X56456984Y-179159000D01*
X56283484Y-179176088D01*
X56060864Y-179243619D01*
X55855697Y-179353283D01*
X55675866Y-179500866D01*
X55528283Y-179680697D01*
X55418619Y-179885864D01*
X55351088Y-180108484D01*
X55328286Y-180340000D01*
X54635400Y-180340000D01*
X54635400Y-180326177D01*
X55304771Y-179656808D01*
X55304780Y-179656797D01*
X56064188Y-178897389D01*
X56283484Y-178963912D01*
X56456984Y-178981000D01*
X56573016Y-178981000D01*
X56746516Y-178963912D01*
X56969136Y-178896381D01*
X57174303Y-178786717D01*
X57205162Y-178761391D01*
X57762000Y-178761391D01*
X57762000Y-178896009D01*
X57788262Y-179028041D01*
X57839778Y-179152411D01*
X57914568Y-179264342D01*
X58009758Y-179359532D01*
X58121689Y-179434322D01*
X58246059Y-179485838D01*
X58378091Y-179512100D01*
X58512709Y-179512100D01*
X58644741Y-179485838D01*
X58769111Y-179434322D01*
X58881042Y-179359532D01*
X58954674Y-179285900D01*
X63601762Y-179285900D01*
X63475697Y-179353283D01*
X63295866Y-179500866D01*
X63148283Y-179680697D01*
X63038619Y-179885864D01*
X62971088Y-180108484D01*
X62948286Y-180340000D01*
X62971088Y-180571516D01*
X63038619Y-180794136D01*
X63148283Y-180999303D01*
X63295866Y-181179134D01*
X63475697Y-181326717D01*
X63680864Y-181436381D01*
X63903484Y-181503912D01*
X64076984Y-181521000D01*
X64193016Y-181521000D01*
X64366516Y-181503912D01*
X64589136Y-181436381D01*
X64794303Y-181326717D01*
X64974134Y-181179134D01*
X65121717Y-180999303D01*
X65231381Y-180794136D01*
X65298912Y-180571516D01*
X65321714Y-180340000D01*
X65298912Y-180108484D01*
X65231381Y-179885864D01*
X65121717Y-179680697D01*
X64974134Y-179500866D01*
X64794303Y-179353283D01*
X64668238Y-179285900D01*
X65964923Y-179285900D01*
X66259630Y-179580607D01*
X68173601Y-181494579D01*
X68173601Y-181507125D01*
X68099968Y-181580758D01*
X68025178Y-181692689D01*
X67973662Y-181817059D01*
X67947400Y-181949091D01*
X67947400Y-182083709D01*
X67973662Y-182215741D01*
X68025178Y-182340111D01*
X68099968Y-182452042D01*
X68195158Y-182547232D01*
X68307089Y-182622022D01*
X68431459Y-182673538D01*
X68563491Y-182699800D01*
X68698109Y-182699800D01*
X68830141Y-182673538D01*
X68954511Y-182622022D01*
X69066442Y-182547232D01*
X69161632Y-182452042D01*
X69236422Y-182340111D01*
X69287938Y-182215741D01*
X69314200Y-182083709D01*
X69314200Y-181949091D01*
X69287938Y-181817059D01*
X69236422Y-181692689D01*
X69161632Y-181580758D01*
X69088000Y-181507126D01*
X69088000Y-181327650D01*
X69090211Y-181305200D01*
X69088000Y-181282750D01*
X69088000Y-181282740D01*
X69081385Y-181215573D01*
X69055241Y-181129391D01*
X69012787Y-181049964D01*
X68955653Y-180980347D01*
X68938208Y-180966030D01*
X66906207Y-178934030D01*
X66493474Y-178521297D01*
X66479153Y-178503847D01*
X66409536Y-178446713D01*
X66330109Y-178404259D01*
X66243927Y-178378115D01*
X66176760Y-178371500D01*
X66176750Y-178371500D01*
X66154300Y-178369289D01*
X66131850Y-178371500D01*
X65168649Y-178371500D01*
X65231381Y-178254136D01*
X65298912Y-178031516D01*
X65321714Y-177800000D01*
X65298912Y-177568484D01*
X65231381Y-177345864D01*
X65121717Y-177140697D01*
X64974134Y-176960866D01*
X64794303Y-176813283D01*
X64589136Y-176703619D01*
X64366516Y-176636088D01*
X64193016Y-176619000D01*
X64076984Y-176619000D01*
X63903484Y-176636088D01*
X63680864Y-176703619D01*
X63475697Y-176813283D01*
X63295866Y-176960866D01*
X63148283Y-177140697D01*
X63038619Y-177345864D01*
X62971088Y-177568484D01*
X62948286Y-177800000D01*
X62971088Y-178031516D01*
X63038619Y-178254136D01*
X63101351Y-178371500D01*
X58954674Y-178371500D01*
X58881042Y-178297868D01*
X58769111Y-178223078D01*
X58644741Y-178171562D01*
X58512709Y-178145300D01*
X58378091Y-178145300D01*
X58246059Y-178171562D01*
X58121689Y-178223078D01*
X58009758Y-178297868D01*
X57914568Y-178393058D01*
X57839778Y-178504989D01*
X57788262Y-178629359D01*
X57762000Y-178761391D01*
X57205162Y-178761391D01*
X57354134Y-178639134D01*
X57501717Y-178459303D01*
X57611381Y-178254136D01*
X57678912Y-178031516D01*
X57701714Y-177800000D01*
X57678912Y-177568484D01*
X57611381Y-177345864D01*
X57501717Y-177140697D01*
X57396591Y-177012600D01*
X58092750Y-177012600D01*
X58115200Y-177014811D01*
X58137650Y-177012600D01*
X58137660Y-177012600D01*
X58204827Y-177005985D01*
X58291009Y-176979841D01*
X58370436Y-176937387D01*
X58440053Y-176880253D01*
X58454374Y-176862803D01*
X60057177Y-175260000D01*
X62948286Y-175260000D01*
X62971088Y-175491516D01*
X63038619Y-175714136D01*
X63148283Y-175919303D01*
X63295866Y-176099134D01*
X63475697Y-176246717D01*
X63680864Y-176356381D01*
X63903484Y-176423912D01*
X64076984Y-176441000D01*
X64193016Y-176441000D01*
X64366516Y-176423912D01*
X64589136Y-176356381D01*
X64794303Y-176246717D01*
X64974134Y-176099134D01*
X65121717Y-175919303D01*
X65231381Y-175714136D01*
X65298912Y-175491516D01*
X65321714Y-175260000D01*
X65298912Y-175028484D01*
X65231381Y-174805864D01*
X65121717Y-174600697D01*
X64974134Y-174420866D01*
X64794303Y-174273283D01*
X64589136Y-174163619D01*
X64366516Y-174096088D01*
X64193016Y-174079000D01*
X64076984Y-174079000D01*
X63903484Y-174096088D01*
X63680864Y-174163619D01*
X63475697Y-174273283D01*
X63295866Y-174420866D01*
X63148283Y-174600697D01*
X63038619Y-174805864D01*
X62971088Y-175028484D01*
X62948286Y-175260000D01*
X60057177Y-175260000D01*
X60378409Y-174938769D01*
X60395853Y-174924453D01*
X60452987Y-174854836D01*
X60495441Y-174775409D01*
X60521585Y-174689227D01*
X60528200Y-174622060D01*
X60528200Y-174622050D01*
X60530411Y-174599600D01*
X60528200Y-174577150D01*
X60528200Y-172720000D01*
X62948286Y-172720000D01*
X62971088Y-172951516D01*
X63038619Y-173174136D01*
X63148283Y-173379303D01*
X63295866Y-173559134D01*
X63475697Y-173706717D01*
X63680864Y-173816381D01*
X63903484Y-173883912D01*
X64076984Y-173901000D01*
X64193016Y-173901000D01*
X64366516Y-173883912D01*
X64589136Y-173816381D01*
X64794303Y-173706717D01*
X64974134Y-173559134D01*
X65121717Y-173379303D01*
X65231381Y-173174136D01*
X65298912Y-172951516D01*
X65321714Y-172720000D01*
X65298912Y-172488484D01*
X65231381Y-172265864D01*
X65121717Y-172060697D01*
X64974134Y-171880866D01*
X64794303Y-171733283D01*
X64589136Y-171623619D01*
X64366516Y-171556088D01*
X64193016Y-171539000D01*
X64076984Y-171539000D01*
X63903484Y-171556088D01*
X63680864Y-171623619D01*
X63475697Y-171733283D01*
X63295866Y-171880866D01*
X63148283Y-172060697D01*
X63038619Y-172265864D01*
X62971088Y-172488484D01*
X62948286Y-172720000D01*
X60528200Y-172720000D01*
X60528200Y-170180000D01*
X62948286Y-170180000D01*
X62971088Y-170411516D01*
X63038619Y-170634136D01*
X63148283Y-170839303D01*
X63295866Y-171019134D01*
X63475697Y-171166717D01*
X63680864Y-171276381D01*
X63903484Y-171343912D01*
X64076984Y-171361000D01*
X64193016Y-171361000D01*
X64366516Y-171343912D01*
X64589136Y-171276381D01*
X64794303Y-171166717D01*
X64974134Y-171019134D01*
X65121717Y-170839303D01*
X65231381Y-170634136D01*
X65298912Y-170411516D01*
X65321714Y-170180000D01*
X65298912Y-169948484D01*
X65231381Y-169725864D01*
X65121717Y-169520697D01*
X64974134Y-169340866D01*
X64794303Y-169193283D01*
X64589136Y-169083619D01*
X64366516Y-169016088D01*
X64193016Y-168999000D01*
X64076984Y-168999000D01*
X63903484Y-169016088D01*
X63680864Y-169083619D01*
X63475697Y-169193283D01*
X63295866Y-169340866D01*
X63148283Y-169520697D01*
X63038619Y-169725864D01*
X62971088Y-169948484D01*
X62948286Y-170180000D01*
X60528200Y-170180000D01*
X60528200Y-166417849D01*
X60530411Y-166395399D01*
X60528200Y-166372949D01*
X60528200Y-166372940D01*
X60521585Y-166305773D01*
X60495441Y-166219591D01*
X60471158Y-166174160D01*
X60452987Y-166140163D01*
X60410170Y-166087992D01*
X60395853Y-166070547D01*
X60378408Y-166056230D01*
X59771217Y-165449039D01*
X62743096Y-165449039D01*
X62783754Y-165583087D01*
X62903963Y-165837420D01*
X63071481Y-166063414D01*
X63279869Y-166252385D01*
X63521119Y-166397070D01*
X63785960Y-166491909D01*
X64007998Y-166370625D01*
X64007998Y-166465794D01*
X63903484Y-166476088D01*
X63680864Y-166543619D01*
X63475697Y-166653283D01*
X63295866Y-166800866D01*
X63148283Y-166980697D01*
X63038619Y-167185864D01*
X62971088Y-167408484D01*
X62948286Y-167640000D01*
X62971088Y-167871516D01*
X63038619Y-168094136D01*
X63148283Y-168299303D01*
X63295866Y-168479134D01*
X63475697Y-168626717D01*
X63680864Y-168736381D01*
X63903484Y-168803912D01*
X64076984Y-168821000D01*
X64193016Y-168821000D01*
X64366516Y-168803912D01*
X64589136Y-168736381D01*
X64794303Y-168626717D01*
X64974134Y-168479134D01*
X65121717Y-168299303D01*
X65231381Y-168094136D01*
X65298912Y-167871516D01*
X65321714Y-167640000D01*
X65298912Y-167408484D01*
X65231381Y-167185864D01*
X65121717Y-166980697D01*
X64974134Y-166800866D01*
X64794303Y-166653283D01*
X64589136Y-166543619D01*
X64366516Y-166476088D01*
X64262002Y-166465794D01*
X64262002Y-166370625D01*
X64484040Y-166491909D01*
X64748881Y-166397070D01*
X64990131Y-166252385D01*
X65198519Y-166063414D01*
X65366037Y-165837420D01*
X65486246Y-165583087D01*
X65526904Y-165449039D01*
X65404915Y-165227000D01*
X64262000Y-165227000D01*
X64262000Y-165247000D01*
X64008000Y-165247000D01*
X64008000Y-165227000D01*
X62865085Y-165227000D01*
X62743096Y-165449039D01*
X59771217Y-165449039D01*
X59114774Y-164792597D01*
X59100453Y-164775147D01*
X59070983Y-164750961D01*
X62743096Y-164750961D01*
X62865085Y-164973000D01*
X64008000Y-164973000D01*
X64008000Y-163829376D01*
X64262000Y-163829376D01*
X64262000Y-164973000D01*
X65404915Y-164973000D01*
X65526904Y-164750961D01*
X65486246Y-164616913D01*
X65366037Y-164362580D01*
X65198519Y-164136586D01*
X64990131Y-163947615D01*
X64748881Y-163802930D01*
X64484040Y-163708091D01*
X64262000Y-163829376D01*
X64008000Y-163829376D01*
X63785960Y-163708091D01*
X63521119Y-163802930D01*
X63279869Y-163947615D01*
X63071481Y-164136586D01*
X62903963Y-164362580D01*
X62783754Y-164616913D01*
X62743096Y-164750961D01*
X59070983Y-164750961D01*
X59030836Y-164718013D01*
X58951409Y-164675559D01*
X58865227Y-164649415D01*
X58798060Y-164642800D01*
X58798050Y-164642800D01*
X58775600Y-164640589D01*
X58753150Y-164642800D01*
X57697843Y-164642800D01*
X57697843Y-164300000D01*
X57690487Y-164225311D01*
X57668701Y-164153492D01*
X57633322Y-164087304D01*
X57585711Y-164029289D01*
X57527696Y-163981678D01*
X57461508Y-163946299D01*
X57389689Y-163924513D01*
X57315000Y-163917157D01*
X55715000Y-163917157D01*
X55640311Y-163924513D01*
X55568492Y-163946299D01*
X55502304Y-163981678D01*
X55444289Y-164029289D01*
X55396678Y-164087304D01*
X55361299Y-164153492D01*
X55339513Y-164225311D01*
X55332157Y-164300000D01*
X55332157Y-165900000D01*
X55339513Y-165974689D01*
X55361299Y-166046508D01*
X55396678Y-166112696D01*
X55444289Y-166170711D01*
X55502304Y-166218322D01*
X55568492Y-166253701D01*
X55640311Y-166275487D01*
X55715000Y-166282843D01*
X57315000Y-166282843D01*
X57389689Y-166275487D01*
X57461508Y-166253701D01*
X57527696Y-166218322D01*
X57585711Y-166170711D01*
X57633322Y-166112696D01*
X57668701Y-166046508D01*
X57690487Y-165974689D01*
X57697843Y-165900000D01*
X57697843Y-165557200D01*
X58586223Y-165557200D01*
X59613801Y-166584779D01*
X59613800Y-174410222D01*
X57925823Y-176098200D01*
X57354901Y-176098200D01*
X57501717Y-175919303D01*
X57611381Y-175714136D01*
X57678912Y-175491516D01*
X57701714Y-175260000D01*
X57678912Y-175028484D01*
X57611381Y-174805864D01*
X57501717Y-174600697D01*
X57354134Y-174420866D01*
X57174303Y-174273283D01*
X56969136Y-174163619D01*
X56746516Y-174096088D01*
X56573016Y-174079000D01*
X56456984Y-174079000D01*
X56283484Y-174096088D01*
X56060864Y-174163619D01*
X55855697Y-174273283D01*
X55675866Y-174420866D01*
X55528283Y-174600697D01*
X55418619Y-174805864D01*
X55351088Y-175028484D01*
X55328286Y-175260000D01*
X55351088Y-175491516D01*
X55418619Y-175714136D01*
X55528283Y-175919303D01*
X55675099Y-176098200D01*
X53922768Y-176098200D01*
X53900318Y-176095989D01*
X53877868Y-176098200D01*
X53877858Y-176098200D01*
X53810691Y-176104815D01*
X53744567Y-176124874D01*
X53724508Y-176130959D01*
X53645082Y-176173413D01*
X53592910Y-176216229D01*
X53592904Y-176216235D01*
X53575465Y-176230547D01*
X53561153Y-176247986D01*
X50825192Y-178983949D01*
X50807747Y-178998266D01*
X50793430Y-179015711D01*
X50793429Y-179015712D01*
X50750612Y-179067884D01*
X50722329Y-179120800D01*
X50708159Y-179147310D01*
X50682015Y-179233492D01*
X50678104Y-179273199D01*
X50673188Y-179323119D01*
X50675400Y-179345579D01*
X50675399Y-180884823D01*
X50407423Y-181152800D01*
X50166274Y-181152800D01*
X50092642Y-181079168D01*
X49980711Y-181004378D01*
X49856341Y-180952862D01*
X49724309Y-180926600D01*
X49589691Y-180926600D01*
X49457659Y-180952862D01*
X49333289Y-181004378D01*
X49221358Y-181079168D01*
X49126168Y-181174358D01*
X49051378Y-181286289D01*
X48999862Y-181410659D01*
X48973600Y-181542691D01*
X48973600Y-181677309D01*
X48999862Y-181809341D01*
X49051378Y-181933711D01*
X49126168Y-182045642D01*
X49221358Y-182140832D01*
X49333289Y-182215622D01*
X49457659Y-182267138D01*
X49589691Y-182293400D01*
X49724309Y-182293400D01*
X49856341Y-182267138D01*
X49980711Y-182215622D01*
X50092642Y-182140832D01*
X50166274Y-182067200D01*
X50574350Y-182067200D01*
X50596800Y-182069411D01*
X50619250Y-182067200D01*
X50619260Y-182067200D01*
X50686427Y-182060585D01*
X50772609Y-182034441D01*
X50852036Y-181991987D01*
X50921653Y-181934853D01*
X50935974Y-181917403D01*
X51206400Y-181646977D01*
X51206400Y-182234155D01*
X48833357Y-184607200D01*
X47509127Y-184607200D01*
X47521000Y-184547509D01*
X47521000Y-184412891D01*
X47494738Y-184280859D01*
X47443222Y-184156489D01*
X47368432Y-184044558D01*
X47294800Y-183970926D01*
X47294800Y-181201383D01*
X47297011Y-181178933D01*
X47294800Y-181156483D01*
X47294800Y-181156474D01*
X47288185Y-181089307D01*
X47262041Y-181003125D01*
X47219587Y-180923698D01*
X47203225Y-180903761D01*
X47176770Y-180871526D01*
X47162453Y-180854081D01*
X47145008Y-180839764D01*
X46416429Y-180111186D01*
X46402108Y-180093736D01*
X46332491Y-180036602D01*
X46253064Y-179994148D01*
X46166882Y-179968004D01*
X46099715Y-179961389D01*
X46099705Y-179961389D01*
X46077255Y-179959178D01*
X46054805Y-179961389D01*
X43291848Y-179961389D01*
X42677224Y-179346767D01*
X42662903Y-179329317D01*
X42593286Y-179272183D01*
X42513859Y-179229729D01*
X42427677Y-179203585D01*
X42360510Y-179196970D01*
X42360500Y-179196970D01*
X42338050Y-179194759D01*
X42315600Y-179196970D01*
X39700334Y-179196970D01*
X39721622Y-179165111D01*
X39773138Y-179040741D01*
X39799400Y-178908709D01*
X39799400Y-178774091D01*
X39773138Y-178642059D01*
X39721622Y-178517689D01*
X39646832Y-178405758D01*
X39551642Y-178310568D01*
X39439711Y-178235778D01*
X39315341Y-178184262D01*
X39183309Y-178158000D01*
X39048691Y-178158000D01*
X38916659Y-178184262D01*
X38792289Y-178235778D01*
X38707200Y-178292633D01*
X38707200Y-178189891D01*
X38680938Y-178057859D01*
X38629422Y-177933489D01*
X38554632Y-177821558D01*
X38481000Y-177747926D01*
X38481000Y-172720000D01*
X55328286Y-172720000D01*
X55351088Y-172951516D01*
X55418619Y-173174136D01*
X55528283Y-173379303D01*
X55675866Y-173559134D01*
X55855697Y-173706717D01*
X56060864Y-173816381D01*
X56283484Y-173883912D01*
X56456984Y-173901000D01*
X56573016Y-173901000D01*
X56746516Y-173883912D01*
X56969136Y-173816381D01*
X57174303Y-173706717D01*
X57354134Y-173559134D01*
X57501717Y-173379303D01*
X57611381Y-173174136D01*
X57678912Y-172951516D01*
X57701714Y-172720000D01*
X57678912Y-172488484D01*
X57611381Y-172265864D01*
X57501717Y-172060697D01*
X57354134Y-171880866D01*
X57174303Y-171733283D01*
X56969136Y-171623619D01*
X56746516Y-171556088D01*
X56573016Y-171539000D01*
X56456984Y-171539000D01*
X56283484Y-171556088D01*
X56060864Y-171623619D01*
X55855697Y-171733283D01*
X55675866Y-171880866D01*
X55528283Y-172060697D01*
X55418619Y-172265864D01*
X55351088Y-172488484D01*
X55328286Y-172720000D01*
X38481000Y-172720000D01*
X38481000Y-170180000D01*
X41308044Y-170180000D01*
X41331812Y-170421318D01*
X41402202Y-170653363D01*
X41516509Y-170867216D01*
X41670340Y-171054660D01*
X41857784Y-171208491D01*
X42071637Y-171322798D01*
X42303682Y-171393188D01*
X42484528Y-171411000D01*
X42605472Y-171411000D01*
X42786318Y-171393188D01*
X43018363Y-171322798D01*
X43232216Y-171208491D01*
X43419660Y-171054660D01*
X43573491Y-170867216D01*
X43682091Y-170664040D01*
X43688175Y-170684099D01*
X43813359Y-170946920D01*
X43987412Y-171180269D01*
X44203645Y-171375178D01*
X44453748Y-171524157D01*
X44728109Y-171621481D01*
X44958000Y-171500814D01*
X44958000Y-170307000D01*
X45212000Y-170307000D01*
X45212000Y-171500814D01*
X45441891Y-171621481D01*
X45716252Y-171524157D01*
X45966355Y-171375178D01*
X46182588Y-171180269D01*
X46356641Y-170946920D01*
X46481825Y-170684099D01*
X46526476Y-170536890D01*
X46405155Y-170307000D01*
X45212000Y-170307000D01*
X44958000Y-170307000D01*
X44938000Y-170307000D01*
X44938000Y-170180000D01*
X55328286Y-170180000D01*
X55351088Y-170411516D01*
X55418619Y-170634136D01*
X55528283Y-170839303D01*
X55675866Y-171019134D01*
X55855697Y-171166717D01*
X56060864Y-171276381D01*
X56283484Y-171343912D01*
X56456984Y-171361000D01*
X56573016Y-171361000D01*
X56746516Y-171343912D01*
X56969136Y-171276381D01*
X57174303Y-171166717D01*
X57354134Y-171019134D01*
X57501717Y-170839303D01*
X57611381Y-170634136D01*
X57678912Y-170411516D01*
X57701714Y-170180000D01*
X57678912Y-169948484D01*
X57611381Y-169725864D01*
X57501717Y-169520697D01*
X57354134Y-169340866D01*
X57174303Y-169193283D01*
X56969136Y-169083619D01*
X56746516Y-169016088D01*
X56573016Y-168999000D01*
X56456984Y-168999000D01*
X56283484Y-169016088D01*
X56060864Y-169083619D01*
X55855697Y-169193283D01*
X55675866Y-169340866D01*
X55528283Y-169520697D01*
X55418619Y-169725864D01*
X55351088Y-169948484D01*
X55328286Y-170180000D01*
X44938000Y-170180000D01*
X44938000Y-170053000D01*
X44958000Y-170053000D01*
X44958000Y-170033000D01*
X45212000Y-170033000D01*
X45212000Y-170053000D01*
X46405155Y-170053000D01*
X46526476Y-169823110D01*
X46481825Y-169675901D01*
X46356641Y-169413080D01*
X46182588Y-169179731D01*
X45966355Y-168984822D01*
X45716252Y-168835843D01*
X45561695Y-168781017D01*
X45772216Y-168668491D01*
X45959660Y-168514660D01*
X46113491Y-168327216D01*
X46227798Y-168113363D01*
X46298188Y-167881318D01*
X46321956Y-167640000D01*
X55328286Y-167640000D01*
X55351088Y-167871516D01*
X55418619Y-168094136D01*
X55528283Y-168299303D01*
X55675866Y-168479134D01*
X55855697Y-168626717D01*
X56060864Y-168736381D01*
X56283484Y-168803912D01*
X56456984Y-168821000D01*
X56573016Y-168821000D01*
X56746516Y-168803912D01*
X56969136Y-168736381D01*
X57174303Y-168626717D01*
X57354134Y-168479134D01*
X57501717Y-168299303D01*
X57611381Y-168094136D01*
X57678912Y-167871516D01*
X57701714Y-167640000D01*
X57678912Y-167408484D01*
X57611381Y-167185864D01*
X57501717Y-166980697D01*
X57354134Y-166800866D01*
X57174303Y-166653283D01*
X56969136Y-166543619D01*
X56746516Y-166476088D01*
X56573016Y-166459000D01*
X56456984Y-166459000D01*
X56283484Y-166476088D01*
X56060864Y-166543619D01*
X55855697Y-166653283D01*
X55675866Y-166800866D01*
X55528283Y-166980697D01*
X55418619Y-167185864D01*
X55351088Y-167408484D01*
X55328286Y-167640000D01*
X46321956Y-167640000D01*
X46298188Y-167398682D01*
X46227798Y-167166637D01*
X46113491Y-166952784D01*
X45959660Y-166765340D01*
X45772216Y-166611509D01*
X45558363Y-166497202D01*
X45326318Y-166426812D01*
X45145472Y-166409000D01*
X45024528Y-166409000D01*
X44843682Y-166426812D01*
X44611637Y-166497202D01*
X44397784Y-166611509D01*
X44210340Y-166765340D01*
X44056509Y-166952784D01*
X43942202Y-167166637D01*
X43871812Y-167398682D01*
X43848044Y-167640000D01*
X43871812Y-167881318D01*
X43942202Y-168113363D01*
X44056509Y-168327216D01*
X44210340Y-168514660D01*
X44397784Y-168668491D01*
X44608305Y-168781017D01*
X44453748Y-168835843D01*
X44203645Y-168984822D01*
X43987412Y-169179731D01*
X43813359Y-169413080D01*
X43688175Y-169675901D01*
X43682091Y-169695960D01*
X43573491Y-169492784D01*
X43419660Y-169305340D01*
X43232216Y-169151509D01*
X43018363Y-169037202D01*
X42786318Y-168966812D01*
X42605472Y-168949000D01*
X42484528Y-168949000D01*
X42303682Y-168966812D01*
X42071637Y-169037202D01*
X41857784Y-169151509D01*
X41670340Y-169305340D01*
X41516509Y-169492784D01*
X41402202Y-169706637D01*
X41331812Y-169938682D01*
X41308044Y-170180000D01*
X38481000Y-170180000D01*
X38481000Y-167640000D01*
X41308044Y-167640000D01*
X41331812Y-167881318D01*
X41402202Y-168113363D01*
X41516509Y-168327216D01*
X41670340Y-168514660D01*
X41857784Y-168668491D01*
X42071637Y-168782798D01*
X42303682Y-168853188D01*
X42484528Y-168871000D01*
X42605472Y-168871000D01*
X42786318Y-168853188D01*
X43018363Y-168782798D01*
X43232216Y-168668491D01*
X43419660Y-168514660D01*
X43573491Y-168327216D01*
X43687798Y-168113363D01*
X43758188Y-167881318D01*
X43781956Y-167640000D01*
X43758188Y-167398682D01*
X43687798Y-167166637D01*
X43573491Y-166952784D01*
X43419660Y-166765340D01*
X43232216Y-166611509D01*
X43018363Y-166497202D01*
X42786318Y-166426812D01*
X42605472Y-166409000D01*
X42484528Y-166409000D01*
X42303682Y-166426812D01*
X42071637Y-166497202D01*
X41857784Y-166611509D01*
X41670340Y-166765340D01*
X41516509Y-166952784D01*
X41402202Y-167166637D01*
X41331812Y-167398682D01*
X41308044Y-167640000D01*
X38481000Y-167640000D01*
X38481000Y-166686377D01*
X39610178Y-165557200D01*
X41312157Y-165557200D01*
X41312157Y-165950000D01*
X41319513Y-166024689D01*
X41341299Y-166096508D01*
X41376678Y-166162696D01*
X41424289Y-166220711D01*
X41482304Y-166268322D01*
X41548492Y-166303701D01*
X41620311Y-166325487D01*
X41695000Y-166332843D01*
X43395000Y-166332843D01*
X43469689Y-166325487D01*
X43541508Y-166303701D01*
X43607696Y-166268322D01*
X43665711Y-166220711D01*
X43713322Y-166162696D01*
X43748701Y-166096508D01*
X43770487Y-166024689D01*
X43777843Y-165950000D01*
X43777843Y-165100000D01*
X43848044Y-165100000D01*
X43871812Y-165341318D01*
X43942202Y-165573363D01*
X44056509Y-165787216D01*
X44210340Y-165974660D01*
X44397784Y-166128491D01*
X44611637Y-166242798D01*
X44843682Y-166313188D01*
X45024528Y-166331000D01*
X45145472Y-166331000D01*
X45326318Y-166313188D01*
X45558363Y-166242798D01*
X45772216Y-166128491D01*
X45959660Y-165974660D01*
X46113491Y-165787216D01*
X46227798Y-165573363D01*
X46298188Y-165341318D01*
X46321956Y-165100000D01*
X46298188Y-164858682D01*
X46227798Y-164626637D01*
X46113491Y-164412784D01*
X45959660Y-164225340D01*
X45772216Y-164071509D01*
X45558363Y-163957202D01*
X45326318Y-163886812D01*
X45145472Y-163869000D01*
X45024528Y-163869000D01*
X44843682Y-163886812D01*
X44611637Y-163957202D01*
X44397784Y-164071509D01*
X44210340Y-164225340D01*
X44056509Y-164412784D01*
X43942202Y-164626637D01*
X43871812Y-164858682D01*
X43848044Y-165100000D01*
X43777843Y-165100000D01*
X43777843Y-164250000D01*
X43770487Y-164175311D01*
X43748701Y-164103492D01*
X43713322Y-164037304D01*
X43665711Y-163979289D01*
X43607696Y-163931678D01*
X43541508Y-163896299D01*
X43469689Y-163874513D01*
X43395000Y-163867157D01*
X41695000Y-163867157D01*
X41620311Y-163874513D01*
X41548492Y-163896299D01*
X41482304Y-163931678D01*
X41424289Y-163979289D01*
X41376678Y-164037304D01*
X41341299Y-164103492D01*
X41319513Y-164175311D01*
X41312157Y-164250000D01*
X41312157Y-164642800D01*
X39443249Y-164642800D01*
X39420799Y-164640589D01*
X39398349Y-164642800D01*
X39398340Y-164642800D01*
X39331173Y-164649415D01*
X39244991Y-164675559D01*
X39208017Y-164695322D01*
X39165563Y-164718013D01*
X39125417Y-164750961D01*
X39095947Y-164775147D01*
X39081630Y-164792592D01*
X37716393Y-166157830D01*
X37698948Y-166172147D01*
X37684631Y-166189592D01*
X37684630Y-166189593D01*
X37641813Y-166241765D01*
X37614006Y-166293790D01*
X37599360Y-166321191D01*
X37573216Y-166407373D01*
X37567088Y-166469599D01*
X37564389Y-166497000D01*
X37566601Y-166519460D01*
X37566600Y-177747926D01*
X37492968Y-177821558D01*
X37418178Y-177933489D01*
X37366662Y-178057859D01*
X37340400Y-178189891D01*
X37340400Y-178324509D01*
X37366662Y-178456541D01*
X37418178Y-178580911D01*
X37492968Y-178692842D01*
X37588158Y-178788032D01*
X37700089Y-178862822D01*
X37770917Y-178892160D01*
X35465331Y-178892160D01*
X35363471Y-178790300D01*
X35363467Y-178790295D01*
X33172410Y-176599239D01*
X33172408Y-167944272D01*
X33174620Y-167921812D01*
X33165793Y-167832186D01*
X33139649Y-167746003D01*
X33097196Y-167666577D01*
X33054379Y-167614405D01*
X33054373Y-167614399D01*
X33040061Y-167596960D01*
X33022622Y-167582648D01*
X31522473Y-166082499D01*
X31543519Y-166063414D01*
X31711037Y-165837420D01*
X31831246Y-165583087D01*
X31871904Y-165449039D01*
X31749915Y-165227000D01*
X30607000Y-165227000D01*
X30607000Y-165247000D01*
X30353000Y-165247000D01*
X30353000Y-165227000D01*
X29210085Y-165227000D01*
X29088096Y-165449039D01*
X29128754Y-165583087D01*
X29248571Y-165836590D01*
X29221569Y-165836590D01*
X29004400Y-165619422D01*
X29004400Y-165515291D01*
X28978138Y-165383259D01*
X28926622Y-165258889D01*
X28851832Y-165146958D01*
X28756642Y-165051768D01*
X28644711Y-164976978D01*
X28520341Y-164925462D01*
X28388309Y-164899200D01*
X28253691Y-164899200D01*
X28121659Y-164925462D01*
X27997289Y-164976978D01*
X27885358Y-165051768D01*
X27790168Y-165146958D01*
X27715378Y-165258889D01*
X27689746Y-165320769D01*
X27161574Y-164792597D01*
X27147253Y-164775147D01*
X27117783Y-164750961D01*
X29088096Y-164750961D01*
X29210085Y-164973000D01*
X30353000Y-164973000D01*
X30353000Y-163829376D01*
X30607000Y-163829376D01*
X30607000Y-164973000D01*
X31749915Y-164973000D01*
X31871904Y-164750961D01*
X31831246Y-164616913D01*
X31711037Y-164362580D01*
X31543519Y-164136586D01*
X31335131Y-163947615D01*
X31093881Y-163802930D01*
X30829040Y-163708091D01*
X30607000Y-163829376D01*
X30353000Y-163829376D01*
X30130960Y-163708091D01*
X29866119Y-163802930D01*
X29624869Y-163947615D01*
X29416481Y-164136586D01*
X29248963Y-164362580D01*
X29128754Y-164616913D01*
X29088096Y-164750961D01*
X27117783Y-164750961D01*
X27077636Y-164718013D01*
X26998209Y-164675559D01*
X26912027Y-164649415D01*
X26844860Y-164642800D01*
X26844850Y-164642800D01*
X26822400Y-164640589D01*
X26799950Y-164642800D01*
X24042843Y-164642800D01*
X24042843Y-164300000D01*
X24035487Y-164225311D01*
X24013701Y-164153492D01*
X23978322Y-164087304D01*
X23930711Y-164029289D01*
X23872696Y-163981678D01*
X23806508Y-163946299D01*
X23734689Y-163924513D01*
X23660000Y-163917157D01*
X22060000Y-163917157D01*
X21985311Y-163924513D01*
X21913492Y-163946299D01*
X21847304Y-163981678D01*
X21789289Y-164029289D01*
X21741678Y-164087304D01*
X21706299Y-164153492D01*
X21684513Y-164225311D01*
X21677157Y-164300000D01*
X21677157Y-165900000D01*
X21684513Y-165974689D01*
X21706299Y-166046508D01*
X21741678Y-166112696D01*
X21789289Y-166170711D01*
X21847304Y-166218322D01*
X21913492Y-166253701D01*
X21985311Y-166275487D01*
X22060000Y-166282843D01*
X23660000Y-166282843D01*
X23734689Y-166275487D01*
X23806508Y-166253701D01*
X23872696Y-166218322D01*
X23930711Y-166170711D01*
X23978322Y-166112696D01*
X24013701Y-166046508D01*
X24035487Y-165974689D01*
X24042843Y-165900000D01*
X24042843Y-165557200D01*
X26633023Y-165557200D01*
X27981829Y-166906007D01*
X27996147Y-166923453D01*
X28013592Y-166937770D01*
X28065763Y-166980587D01*
X28108217Y-167003278D01*
X28145191Y-167023041D01*
X28231373Y-167049185D01*
X28298540Y-167055800D01*
X28298549Y-167055800D01*
X28320999Y-167058011D01*
X28343449Y-167055800D01*
X29453140Y-167055800D01*
X29385257Y-167182800D01*
X29384849Y-167182800D01*
X29362399Y-167180589D01*
X29339949Y-167182800D01*
X29339940Y-167182800D01*
X29272773Y-167189415D01*
X29186591Y-167215559D01*
X29149617Y-167235322D01*
X29107163Y-167258013D01*
X29080142Y-167280190D01*
X29037547Y-167315147D01*
X29023226Y-167332597D01*
X28775593Y-167580230D01*
X28758148Y-167594547D01*
X28743831Y-167611992D01*
X28743830Y-167611993D01*
X28701013Y-167664165D01*
X28658560Y-167743591D01*
X28632416Y-167829774D01*
X28623589Y-167919400D01*
X28625801Y-167941860D01*
X28625800Y-176125816D01*
X28623589Y-176148266D01*
X28625800Y-176170716D01*
X28625800Y-176170725D01*
X28632415Y-176237892D01*
X28658559Y-176324074D01*
X28701013Y-176403501D01*
X28758147Y-176473119D01*
X28775597Y-176487440D01*
X29366971Y-177078816D01*
X29381279Y-177096250D01*
X29398713Y-177110558D01*
X29398724Y-177110569D01*
X29450896Y-177153385D01*
X29478589Y-177168187D01*
X29383619Y-177345864D01*
X29316088Y-177568484D01*
X29293286Y-177800000D01*
X29316088Y-178031516D01*
X29383619Y-178254136D01*
X29493283Y-178459303D01*
X29640866Y-178639134D01*
X29820697Y-178786717D01*
X30025864Y-178896381D01*
X30248484Y-178963912D01*
X30421984Y-178981000D01*
X30538016Y-178981000D01*
X30711516Y-178963912D01*
X30934136Y-178896381D01*
X31139303Y-178786717D01*
X31319134Y-178639134D01*
X31466717Y-178459303D01*
X31491770Y-178412433D01*
X31526747Y-178455053D01*
X31544197Y-178469374D01*
X33950829Y-180876007D01*
X33965147Y-180893453D01*
X33982592Y-180907770D01*
X34034763Y-180950587D01*
X34077217Y-180973278D01*
X34114191Y-180993041D01*
X34200373Y-181019185D01*
X34267540Y-181025800D01*
X34267549Y-181025800D01*
X34289999Y-181028011D01*
X34312449Y-181025800D01*
X40517168Y-181025800D01*
X40515400Y-181034691D01*
X40515400Y-181169309D01*
X40522221Y-181203600D01*
X37766850Y-181203600D01*
X37744400Y-181201389D01*
X37721950Y-181203600D01*
X37721940Y-181203600D01*
X37654773Y-181210215D01*
X37568591Y-181236359D01*
X37489164Y-181278813D01*
X37419547Y-181335947D01*
X37405230Y-181353392D01*
X36640623Y-182118000D01*
X32970474Y-182118000D01*
X32896842Y-182044368D01*
X32784911Y-181969578D01*
X32660541Y-181918062D01*
X32528509Y-181891800D01*
X32393891Y-181891800D01*
X32261859Y-181918062D01*
X32137489Y-181969578D01*
X32025558Y-182044368D01*
X31930368Y-182139558D01*
X31910798Y-182168846D01*
X31905432Y-182158806D01*
X31890588Y-182131034D01*
X31847771Y-182078863D01*
X31833454Y-182061418D01*
X31816010Y-182047102D01*
X31312903Y-181543996D01*
X31298582Y-181526546D01*
X31228965Y-181469412D01*
X31149538Y-181426958D01*
X31063356Y-181400814D01*
X31010429Y-181395601D01*
X31139303Y-181326717D01*
X31319134Y-181179134D01*
X31466717Y-180999303D01*
X31576381Y-180794136D01*
X31643912Y-180571516D01*
X31666714Y-180340000D01*
X31643912Y-180108484D01*
X31576381Y-179885864D01*
X31466717Y-179680697D01*
X31319134Y-179500866D01*
X31139303Y-179353283D01*
X30934136Y-179243619D01*
X30711516Y-179176088D01*
X30538016Y-179159000D01*
X30421984Y-179159000D01*
X30248484Y-179176088D01*
X30025864Y-179243619D01*
X29820697Y-179353283D01*
X29640866Y-179500866D01*
X29493283Y-179680697D01*
X29383619Y-179885864D01*
X29329271Y-180065024D01*
X26756844Y-177492597D01*
X26742523Y-177475147D01*
X26672906Y-177418013D01*
X26593479Y-177375559D01*
X26507297Y-177349415D01*
X26440130Y-177342800D01*
X26440120Y-177342800D01*
X26417670Y-177340589D01*
X26395220Y-177342800D01*
X23954743Y-177342800D01*
X23846717Y-177140697D01*
X23699134Y-176960866D01*
X23519303Y-176813283D01*
X23314136Y-176703619D01*
X23091516Y-176636088D01*
X22918016Y-176619000D01*
X22801984Y-176619000D01*
X22628484Y-176636088D01*
X22405864Y-176703619D01*
X22200697Y-176813283D01*
X22020866Y-176960866D01*
X21873283Y-177140697D01*
X21763619Y-177345864D01*
X21696088Y-177568484D01*
X21673286Y-177800000D01*
X21696088Y-178031516D01*
X21763619Y-178254136D01*
X21873283Y-178459303D01*
X22020866Y-178639134D01*
X22200697Y-178786717D01*
X22405864Y-178896381D01*
X22628484Y-178963912D01*
X22801984Y-178981000D01*
X22918016Y-178981000D01*
X23091516Y-178963912D01*
X23314136Y-178896381D01*
X23519303Y-178786717D01*
X23699134Y-178639134D01*
X23846717Y-178459303D01*
X23954743Y-178257200D01*
X26228293Y-178257200D01*
X29849161Y-181878069D01*
X29820697Y-181893283D01*
X29640866Y-182040866D01*
X29493283Y-182220697D01*
X29383619Y-182425864D01*
X29316088Y-182648484D01*
X29293286Y-182880000D01*
X29316088Y-183111516D01*
X29383619Y-183334136D01*
X29493283Y-183539303D01*
X29640866Y-183719134D01*
X29820697Y-183866717D01*
X30025864Y-183976381D01*
X30248484Y-184043912D01*
X30421984Y-184061000D01*
X30538016Y-184061000D01*
X30711516Y-184043912D01*
X30934136Y-183976381D01*
X31051402Y-183913701D01*
X31051402Y-184241939D01*
X31049190Y-184264399D01*
X31051402Y-184286859D01*
X31058017Y-184354026D01*
X31070982Y-184396765D01*
X30934136Y-184323619D01*
X30711516Y-184256088D01*
X30538016Y-184239000D01*
X30421984Y-184239000D01*
X30248484Y-184256088D01*
X30025864Y-184323619D01*
X29820697Y-184433283D01*
X29640866Y-184580866D01*
X29493283Y-184760697D01*
X29383619Y-184965864D01*
X29316088Y-185188484D01*
X29293286Y-185420000D01*
X29316088Y-185651516D01*
X29383619Y-185874136D01*
X29493283Y-186079303D01*
X29640866Y-186259134D01*
X29820697Y-186406717D01*
X30025864Y-186516381D01*
X30248484Y-186583912D01*
X30421984Y-186601000D01*
X30538016Y-186601000D01*
X30711516Y-186583912D01*
X30934136Y-186516381D01*
X31139303Y-186406717D01*
X31319134Y-186259134D01*
X31466717Y-186079303D01*
X31576381Y-185874136D01*
X31643912Y-185651516D01*
X31666714Y-185420000D01*
X31643912Y-185188484D01*
X31581995Y-184984370D01*
X32689800Y-186092176D01*
X32689801Y-186794541D01*
X32687589Y-186817000D01*
X32689801Y-186839460D01*
X32696416Y-186906627D01*
X32720931Y-186987440D01*
X32722560Y-186992809D01*
X32765013Y-187072235D01*
X32805691Y-187121800D01*
X32822148Y-187141853D01*
X32839592Y-187156169D01*
X33673834Y-187990412D01*
X33688146Y-188007852D01*
X33705585Y-188022164D01*
X33705591Y-188022170D01*
X33757763Y-188064986D01*
X33837189Y-188107440D01*
X33923372Y-188133584D01*
X33990539Y-188140199D01*
X33990547Y-188140199D01*
X34012999Y-188142410D01*
X34035451Y-188140199D01*
X35347622Y-188140199D01*
X35384600Y-188177177D01*
X35384600Y-188281309D01*
X35410862Y-188413341D01*
X35462378Y-188537711D01*
X35537168Y-188649642D01*
X35632358Y-188744832D01*
X35744289Y-188819622D01*
X35868659Y-188871138D01*
X36000691Y-188897400D01*
X36135309Y-188897400D01*
X36267341Y-188871138D01*
X36296601Y-188859018D01*
X36296600Y-191955459D01*
X35894557Y-192357502D01*
X35767059Y-192382862D01*
X35642689Y-192434378D01*
X35530758Y-192509168D01*
X35435568Y-192604358D01*
X35360778Y-192716289D01*
X35309262Y-192840659D01*
X35283000Y-192972691D01*
X35283000Y-193107309D01*
X35289235Y-193138658D01*
X32179400Y-190028823D01*
X32179400Y-189924691D01*
X32178109Y-189918199D01*
X33655551Y-189918199D01*
X33678001Y-189920410D01*
X33700451Y-189918199D01*
X33700461Y-189918199D01*
X33767628Y-189911584D01*
X33793343Y-189903783D01*
X33841691Y-189913400D01*
X33976309Y-189913400D01*
X34108341Y-189887138D01*
X34232711Y-189835622D01*
X34344642Y-189760832D01*
X34439832Y-189665642D01*
X34514622Y-189553711D01*
X34566138Y-189429341D01*
X34592400Y-189297309D01*
X34592400Y-189162691D01*
X34566138Y-189030659D01*
X34514622Y-188906289D01*
X34439832Y-188794358D01*
X34344642Y-188699168D01*
X34232711Y-188624378D01*
X34108341Y-188572862D01*
X33976309Y-188546600D01*
X33841691Y-188546600D01*
X33709659Y-188572862D01*
X33585289Y-188624378D01*
X33473358Y-188699168D01*
X33378168Y-188794358D01*
X33303378Y-188906289D01*
X33262988Y-189003799D01*
X31032510Y-189003799D01*
X31139303Y-188946717D01*
X31319134Y-188799134D01*
X31466717Y-188619303D01*
X31576381Y-188414136D01*
X31643912Y-188191516D01*
X31666714Y-187960000D01*
X31643912Y-187728484D01*
X31576381Y-187505864D01*
X31466717Y-187300697D01*
X31319134Y-187120866D01*
X31139303Y-186973283D01*
X30934136Y-186863619D01*
X30711516Y-186796088D01*
X30538016Y-186779000D01*
X30421984Y-186779000D01*
X30248484Y-186796088D01*
X30025864Y-186863619D01*
X29820697Y-186973283D01*
X29640866Y-187120866D01*
X29493283Y-187300697D01*
X29383619Y-187505864D01*
X29316088Y-187728484D01*
X29293286Y-187960000D01*
X29316088Y-188191516D01*
X29383619Y-188414136D01*
X29493283Y-188619303D01*
X29640866Y-188799134D01*
X29820697Y-188946717D01*
X29927490Y-189003799D01*
X27725377Y-189003799D01*
X26365200Y-187643623D01*
X26365200Y-185566613D01*
X26366061Y-185570942D01*
X26417577Y-185695312D01*
X26492367Y-185807243D01*
X26587557Y-185902433D01*
X26699488Y-185977223D01*
X26823858Y-186028739D01*
X26955890Y-186055001D01*
X27090508Y-186055001D01*
X27222540Y-186028739D01*
X27346910Y-185977223D01*
X27458841Y-185902433D01*
X27554031Y-185807243D01*
X27628821Y-185695312D01*
X27680337Y-185570942D01*
X27680823Y-185568497D01*
X27707558Y-185595232D01*
X27819489Y-185670022D01*
X27943859Y-185721538D01*
X28075891Y-185747800D01*
X28210509Y-185747800D01*
X28342541Y-185721538D01*
X28466911Y-185670022D01*
X28578842Y-185595232D01*
X28674032Y-185500042D01*
X28748822Y-185388111D01*
X28800338Y-185263741D01*
X28826600Y-185131709D01*
X28826600Y-184997091D01*
X28800338Y-184865059D01*
X28748822Y-184740689D01*
X28674032Y-184628758D01*
X28600400Y-184555126D01*
X28600400Y-184064579D01*
X28698141Y-184045138D01*
X28822511Y-183993622D01*
X28934442Y-183918832D01*
X29029632Y-183823642D01*
X29104422Y-183711711D01*
X29155938Y-183587341D01*
X29182200Y-183455309D01*
X29182200Y-183320691D01*
X29155938Y-183188659D01*
X29104422Y-183064289D01*
X29029632Y-182952358D01*
X28934442Y-182857168D01*
X28892585Y-182829200D01*
X28934442Y-182801232D01*
X29029632Y-182706042D01*
X29104422Y-182594111D01*
X29155938Y-182469741D01*
X29182200Y-182337709D01*
X29182200Y-182203091D01*
X29155938Y-182071059D01*
X29104422Y-181946689D01*
X29029632Y-181834758D01*
X28934442Y-181739568D01*
X28822511Y-181664778D01*
X28698141Y-181613262D01*
X28566109Y-181587000D01*
X28431491Y-181587000D01*
X28299459Y-181613262D01*
X28175089Y-181664778D01*
X28063158Y-181739568D01*
X27967968Y-181834758D01*
X27893178Y-181946689D01*
X27841662Y-182071059D01*
X27815400Y-182203091D01*
X27815400Y-182307222D01*
X27018191Y-183104432D01*
X27000746Y-183118749D01*
X26986429Y-183136194D01*
X26986428Y-183136195D01*
X26943611Y-183188367D01*
X26915640Y-183240698D01*
X26901158Y-183267793D01*
X26875014Y-183353975D01*
X26872055Y-183384022D01*
X26866187Y-183443602D01*
X26868399Y-183466062D01*
X26868398Y-184705604D01*
X26823858Y-184714463D01*
X26699488Y-184765979D01*
X26587557Y-184840769D01*
X26492367Y-184935959D01*
X26417577Y-185047890D01*
X26366061Y-185172260D01*
X26365200Y-185176589D01*
X26365200Y-183410450D01*
X26367411Y-183388000D01*
X26365200Y-183365550D01*
X26365200Y-183365540D01*
X26358585Y-183298373D01*
X26332441Y-183212191D01*
X26289987Y-183132764D01*
X26232853Y-183063147D01*
X26215408Y-183048830D01*
X23957389Y-180790812D01*
X24023912Y-180571516D01*
X24046714Y-180340000D01*
X24023912Y-180108484D01*
X23956381Y-179885864D01*
X23846717Y-179680697D01*
X23699134Y-179500866D01*
X23519303Y-179353283D01*
X23314136Y-179243619D01*
X23091516Y-179176088D01*
X22918016Y-179159000D01*
X22801984Y-179159000D01*
X22628484Y-179176088D01*
X22405864Y-179243619D01*
X22200697Y-179353283D01*
X22020866Y-179500866D01*
X21873283Y-179680697D01*
X21763619Y-179885864D01*
X21696088Y-180108484D01*
X21673286Y-180340000D01*
X21696088Y-180571516D01*
X21763619Y-180794136D01*
X21873283Y-180999303D01*
X22020866Y-181179134D01*
X22200697Y-181326717D01*
X22405864Y-181436381D01*
X22628484Y-181503912D01*
X22801984Y-181521000D01*
X22918016Y-181521000D01*
X23091516Y-181503912D01*
X23310812Y-181437389D01*
X25450800Y-183577378D01*
X25450801Y-185921925D01*
X25365709Y-185905000D01*
X25332824Y-185905000D01*
X25345938Y-185873341D01*
X25372200Y-185741309D01*
X25372200Y-185606691D01*
X25345938Y-185474659D01*
X25294422Y-185350289D01*
X25219632Y-185238358D01*
X25124442Y-185143168D01*
X25012511Y-185068378D01*
X24888141Y-185016862D01*
X24756109Y-184990600D01*
X24621491Y-184990600D01*
X24489459Y-185016862D01*
X24365089Y-185068378D01*
X24253158Y-185143168D01*
X24157968Y-185238358D01*
X24083178Y-185350289D01*
X24044347Y-185444035D01*
X24046714Y-185420000D01*
X24023912Y-185188484D01*
X23956381Y-184965864D01*
X23846717Y-184760697D01*
X23699134Y-184580866D01*
X23519303Y-184433283D01*
X23314136Y-184323619D01*
X23091516Y-184256088D01*
X22918016Y-184239000D01*
X22801984Y-184239000D01*
X22628484Y-184256088D01*
X22405864Y-184323619D01*
X22200697Y-184433283D01*
X22020866Y-184580866D01*
X21873283Y-184760697D01*
X21763619Y-184965864D01*
X21696088Y-185188484D01*
X21673286Y-185420000D01*
X21696088Y-185651516D01*
X21763619Y-185874136D01*
X21873283Y-186079303D01*
X22020866Y-186259134D01*
X22200697Y-186406717D01*
X22405864Y-186516381D01*
X22628484Y-186583912D01*
X22801984Y-186601000D01*
X22918016Y-186601000D01*
X23091516Y-186583912D01*
X23314136Y-186516381D01*
X23519303Y-186406717D01*
X23699134Y-186259134D01*
X23846717Y-186079303D01*
X23956381Y-185874136D01*
X24005400Y-185712542D01*
X24005400Y-185741309D01*
X24031662Y-185873341D01*
X24083178Y-185997711D01*
X24157968Y-186109642D01*
X24231601Y-186183275D01*
X24231600Y-190158222D01*
X23709623Y-190680200D01*
X23605491Y-190680200D01*
X23473459Y-190706462D01*
X23349089Y-190757978D01*
X23237158Y-190832768D01*
X23141968Y-190927958D01*
X23067178Y-191039889D01*
X23015662Y-191164259D01*
X22989400Y-191296291D01*
X22989400Y-191430909D01*
X23015662Y-191562941D01*
X23067178Y-191687311D01*
X23141968Y-191799242D01*
X23237158Y-191894432D01*
X23349089Y-191969222D01*
X23473459Y-192020738D01*
X23605491Y-192047000D01*
X23740109Y-192047000D01*
X23872141Y-192020738D01*
X23996511Y-191969222D01*
X24108442Y-191894432D01*
X24203632Y-191799242D01*
X24278422Y-191687311D01*
X24329938Y-191562941D01*
X24356200Y-191430909D01*
X24356200Y-191326777D01*
X24902665Y-190780313D01*
X24916413Y-190806035D01*
X24973547Y-190875653D01*
X24990997Y-190889974D01*
X29250022Y-195149000D01*
X15671000Y-195149000D01*
X15671000Y-193890000D01*
X16291928Y-193890000D01*
X16304188Y-194014482D01*
X16340498Y-194134180D01*
X16399463Y-194244494D01*
X16478815Y-194341185D01*
X16575506Y-194420537D01*
X16685820Y-194479502D01*
X16805518Y-194515812D01*
X16930000Y-194528072D01*
X17494250Y-194525000D01*
X17653000Y-194366250D01*
X17653000Y-193167000D01*
X16453750Y-193167000D01*
X16295000Y-193325750D01*
X16291928Y-193890000D01*
X15671000Y-193890000D01*
X15671000Y-192190000D01*
X16291928Y-192190000D01*
X16295000Y-192754250D01*
X16453750Y-192913000D01*
X17653000Y-192913000D01*
X17653000Y-191713750D01*
X17907000Y-191713750D01*
X17907000Y-192913000D01*
X17927000Y-192913000D01*
X17927000Y-193167000D01*
X17907000Y-193167000D01*
X17907000Y-194366250D01*
X18065750Y-194525000D01*
X18630000Y-194528072D01*
X18754482Y-194515812D01*
X18874180Y-194479502D01*
X18984494Y-194420537D01*
X19081185Y-194341185D01*
X19160537Y-194244494D01*
X19219502Y-194134180D01*
X19255812Y-194014482D01*
X19268072Y-193890000D01*
X19266935Y-193681242D01*
X19291509Y-193727216D01*
X19445340Y-193914660D01*
X19632784Y-194068491D01*
X19846637Y-194182798D01*
X20078682Y-194253188D01*
X20259528Y-194271000D01*
X20380472Y-194271000D01*
X20561318Y-194253188D01*
X20793363Y-194182798D01*
X21007216Y-194068491D01*
X21194660Y-193914660D01*
X21280684Y-193809839D01*
X21288462Y-193848941D01*
X21339978Y-193973311D01*
X21414768Y-194085242D01*
X21509958Y-194180432D01*
X21621889Y-194255222D01*
X21746259Y-194306738D01*
X21878291Y-194333000D01*
X22012909Y-194333000D01*
X22144941Y-194306738D01*
X22269311Y-194255222D01*
X22320378Y-194221100D01*
X23176226Y-194221100D01*
X23186358Y-194231232D01*
X23298289Y-194306022D01*
X23422659Y-194357538D01*
X23554691Y-194383800D01*
X23689309Y-194383800D01*
X23821341Y-194357538D01*
X23945711Y-194306022D01*
X24057642Y-194231232D01*
X24152832Y-194136042D01*
X24227622Y-194024111D01*
X24279138Y-193899741D01*
X24305400Y-193767709D01*
X24305400Y-193633091D01*
X24279138Y-193501059D01*
X24227622Y-193376689D01*
X24152832Y-193264758D01*
X24057642Y-193169568D01*
X23945711Y-193094778D01*
X23821341Y-193043262D01*
X23689309Y-193017000D01*
X23554691Y-193017000D01*
X23422659Y-193043262D01*
X23338553Y-193078100D01*
X22320378Y-193078100D01*
X22269311Y-193043978D01*
X22144941Y-192992462D01*
X22012909Y-192966200D01*
X21878291Y-192966200D01*
X21746259Y-192992462D01*
X21621889Y-193043978D01*
X21551962Y-193090702D01*
X21556956Y-193040000D01*
X21533188Y-192798682D01*
X21462798Y-192566637D01*
X21348491Y-192352784D01*
X21194660Y-192165340D01*
X21007216Y-192011509D01*
X20793363Y-191897202D01*
X20561318Y-191826812D01*
X20380472Y-191809000D01*
X20259528Y-191809000D01*
X20078682Y-191826812D01*
X19846637Y-191897202D01*
X19632784Y-192011509D01*
X19445340Y-192165340D01*
X19291509Y-192352784D01*
X19266935Y-192398758D01*
X19268072Y-192190000D01*
X19255812Y-192065518D01*
X19219502Y-191945820D01*
X19160537Y-191835506D01*
X19081185Y-191738815D01*
X18984494Y-191659463D01*
X18874180Y-191600498D01*
X18754482Y-191564188D01*
X18630000Y-191551928D01*
X18065750Y-191555000D01*
X17907000Y-191713750D01*
X17653000Y-191713750D01*
X17494250Y-191555000D01*
X16930000Y-191551928D01*
X16805518Y-191564188D01*
X16685820Y-191600498D01*
X16575506Y-191659463D01*
X16478815Y-191738815D01*
X16399463Y-191835506D01*
X16340498Y-191945820D01*
X16304188Y-192065518D01*
X16291928Y-192190000D01*
X15671000Y-192190000D01*
X15671000Y-187960000D01*
X21673286Y-187960000D01*
X21696088Y-188191516D01*
X21763619Y-188414136D01*
X21873283Y-188619303D01*
X22020866Y-188799134D01*
X22200697Y-188946717D01*
X22405864Y-189056381D01*
X22628484Y-189123912D01*
X22801984Y-189141000D01*
X22918016Y-189141000D01*
X23091516Y-189123912D01*
X23314136Y-189056381D01*
X23519303Y-188946717D01*
X23699134Y-188799134D01*
X23846717Y-188619303D01*
X23956381Y-188414136D01*
X24023912Y-188191516D01*
X24046714Y-187960000D01*
X24023912Y-187728484D01*
X23956381Y-187505864D01*
X23846717Y-187300697D01*
X23699134Y-187120866D01*
X23519303Y-186973283D01*
X23314136Y-186863619D01*
X23091516Y-186796088D01*
X22918016Y-186779000D01*
X22801984Y-186779000D01*
X22628484Y-186796088D01*
X22405864Y-186863619D01*
X22200697Y-186973283D01*
X22020866Y-187120866D01*
X21873283Y-187300697D01*
X21763619Y-187505864D01*
X21696088Y-187728484D01*
X21673286Y-187960000D01*
X15671000Y-187960000D01*
X15671000Y-182880000D01*
X21673286Y-182880000D01*
X21696088Y-183111516D01*
X21763619Y-183334136D01*
X21873283Y-183539303D01*
X22020866Y-183719134D01*
X22200697Y-183866717D01*
X22405864Y-183976381D01*
X22628484Y-184043912D01*
X22801984Y-184061000D01*
X22918016Y-184061000D01*
X23091516Y-184043912D01*
X23314136Y-183976381D01*
X23519303Y-183866717D01*
X23699134Y-183719134D01*
X23846717Y-183539303D01*
X23956381Y-183334136D01*
X24023912Y-183111516D01*
X24046714Y-182880000D01*
X24023912Y-182648484D01*
X23956381Y-182425864D01*
X23846717Y-182220697D01*
X23699134Y-182040866D01*
X23519303Y-181893283D01*
X23314136Y-181783619D01*
X23091516Y-181716088D01*
X22918016Y-181699000D01*
X22801984Y-181699000D01*
X22628484Y-181716088D01*
X22405864Y-181783619D01*
X22200697Y-181893283D01*
X22020866Y-182040866D01*
X21873283Y-182220697D01*
X21763619Y-182425864D01*
X21696088Y-182648484D01*
X21673286Y-182880000D01*
X15671000Y-182880000D01*
X15671000Y-175260000D01*
X21673286Y-175260000D01*
X21696088Y-175491516D01*
X21763619Y-175714136D01*
X21873283Y-175919303D01*
X22020866Y-176099134D01*
X22200697Y-176246717D01*
X22405864Y-176356381D01*
X22628484Y-176423912D01*
X22801984Y-176441000D01*
X22918016Y-176441000D01*
X23091516Y-176423912D01*
X23314136Y-176356381D01*
X23519303Y-176246717D01*
X23699134Y-176099134D01*
X23846717Y-175919303D01*
X23956381Y-175714136D01*
X24023912Y-175491516D01*
X24046714Y-175260000D01*
X24023912Y-175028484D01*
X23956381Y-174805864D01*
X23846717Y-174600697D01*
X23699134Y-174420866D01*
X23519303Y-174273283D01*
X23314136Y-174163619D01*
X23091516Y-174096088D01*
X22918016Y-174079000D01*
X22801984Y-174079000D01*
X22628484Y-174096088D01*
X22405864Y-174163619D01*
X22200697Y-174273283D01*
X22020866Y-174420866D01*
X21873283Y-174600697D01*
X21763619Y-174805864D01*
X21696088Y-175028484D01*
X21673286Y-175260000D01*
X15671000Y-175260000D01*
X15671000Y-172720000D01*
X21673286Y-172720000D01*
X21696088Y-172951516D01*
X21763619Y-173174136D01*
X21873283Y-173379303D01*
X22020866Y-173559134D01*
X22200697Y-173706717D01*
X22405864Y-173816381D01*
X22628484Y-173883912D01*
X22801984Y-173901000D01*
X22918016Y-173901000D01*
X23091516Y-173883912D01*
X23314136Y-173816381D01*
X23519303Y-173706717D01*
X23699134Y-173559134D01*
X23846717Y-173379303D01*
X23954743Y-173177200D01*
X26926950Y-173177200D01*
X26949400Y-173179411D01*
X26971850Y-173177200D01*
X26971860Y-173177200D01*
X27039027Y-173170585D01*
X27125209Y-173144441D01*
X27204636Y-173101987D01*
X27270662Y-173047800D01*
X27372309Y-173047800D01*
X27504341Y-173021538D01*
X27628711Y-172970022D01*
X27740642Y-172895232D01*
X27835832Y-172800042D01*
X27910622Y-172688111D01*
X27962138Y-172563741D01*
X27988400Y-172431709D01*
X27988400Y-172297091D01*
X27962138Y-172165059D01*
X27910622Y-172040689D01*
X27835832Y-171928758D01*
X27740642Y-171833568D01*
X27628711Y-171758778D01*
X27504341Y-171707262D01*
X27372309Y-171681000D01*
X27237691Y-171681000D01*
X27105659Y-171707262D01*
X26981289Y-171758778D01*
X26869358Y-171833568D01*
X26774168Y-171928758D01*
X26699378Y-172040689D01*
X26647862Y-172165059D01*
X26628421Y-172262800D01*
X23954743Y-172262800D01*
X23846717Y-172060697D01*
X23699134Y-171880866D01*
X23519303Y-171733283D01*
X23314136Y-171623619D01*
X23091516Y-171556088D01*
X22918016Y-171539000D01*
X22801984Y-171539000D01*
X22628484Y-171556088D01*
X22405864Y-171623619D01*
X22200697Y-171733283D01*
X22020866Y-171880866D01*
X21873283Y-172060697D01*
X21763619Y-172265864D01*
X21696088Y-172488484D01*
X21673286Y-172720000D01*
X15671000Y-172720000D01*
X15671000Y-170180000D01*
X21673286Y-170180000D01*
X21696088Y-170411516D01*
X21763619Y-170634136D01*
X21873283Y-170839303D01*
X22020866Y-171019134D01*
X22200697Y-171166717D01*
X22405864Y-171276381D01*
X22628484Y-171343912D01*
X22801984Y-171361000D01*
X22918016Y-171361000D01*
X23091516Y-171343912D01*
X23314136Y-171276381D01*
X23519303Y-171166717D01*
X23699134Y-171019134D01*
X23846717Y-170839303D01*
X23956381Y-170634136D01*
X24023912Y-170411516D01*
X24046714Y-170180000D01*
X24023912Y-169948484D01*
X23956381Y-169725864D01*
X23846717Y-169520697D01*
X23699134Y-169340866D01*
X23519303Y-169193283D01*
X23314136Y-169083619D01*
X23091516Y-169016088D01*
X22918016Y-168999000D01*
X22801984Y-168999000D01*
X22628484Y-169016088D01*
X22405864Y-169083619D01*
X22200697Y-169193283D01*
X22020866Y-169340866D01*
X21873283Y-169520697D01*
X21763619Y-169725864D01*
X21696088Y-169948484D01*
X21673286Y-170180000D01*
X15671000Y-170180000D01*
X15671000Y-167640000D01*
X21673286Y-167640000D01*
X21696088Y-167871516D01*
X21763619Y-168094136D01*
X21873283Y-168299303D01*
X22020866Y-168479134D01*
X22200697Y-168626717D01*
X22405864Y-168736381D01*
X22628484Y-168803912D01*
X22801984Y-168821000D01*
X22918016Y-168821000D01*
X23091516Y-168803912D01*
X23314136Y-168736381D01*
X23519303Y-168626717D01*
X23699134Y-168479134D01*
X23846717Y-168299303D01*
X23956381Y-168094136D01*
X24023912Y-167871516D01*
X24046714Y-167640000D01*
X24023912Y-167408484D01*
X23956381Y-167185864D01*
X23846717Y-166980697D01*
X23699134Y-166800866D01*
X23519303Y-166653283D01*
X23314136Y-166543619D01*
X23091516Y-166476088D01*
X22918016Y-166459000D01*
X22801984Y-166459000D01*
X22628484Y-166476088D01*
X22405864Y-166543619D01*
X22200697Y-166653283D01*
X22020866Y-166800866D01*
X21873283Y-166980697D01*
X21763619Y-167185864D01*
X21696088Y-167408484D01*
X21673286Y-167640000D01*
X15671000Y-167640000D01*
X15671000Y-162356000D01*
X69419001Y-162356000D01*
X69419000Y-195149000D01*
M02*
